<?xml version="1.0" encoding="utf-8"?>
<!-- Generator: Adobe Illustrator 19.0.0, SVG Export Plug-In . SVG Version: 6.00 Build 0)  -->
<svg version="1.1" id="Layer_1" xmlns="http://www.w3.org/2000/svg" xmlns:xlink="http://www.w3.org/1999/xlink" x="0px" y="0px"
	 viewBox="0 0 1400 980" style="enable-background:new 0 0 1400 980;" xml:space="preserve">
<style type="text/css">
	.st0{fill:#F4E1CE;}
	.st1{fill:#F8C26B;}
	.st2{fill:#E6BA85;}
	.st3{fill:#5D6C82;}
	.st4{fill:#E94E4E;}
	.st5{fill:#92D5D8;}
	.st6{fill:#EAC5C5;}
	.st7{fill:none;stroke:#FFFFFF;stroke-width:7;stroke-linecap:round;stroke-miterlimit:10;}
	.st8{fill:none;stroke:#FFFFFF;stroke-width:7;stroke-linecap:round;stroke-linejoin:round;stroke-miterlimit:10;}
	.st9{fill:none;stroke:#ADDCD2;stroke-width:3;stroke-miterlimit:10;}
	.st10{fill:#FFFFFF;}
	.st11{fill:#5C86C4;}
</style>
<g>
	<path class="st0" d="M1343.4,727.5c0,25.3-20.5,45.8-45.8,45.8H117.3c-25.3,0-45.8-20.5-45.8-45.8l0,0c0-25.3,20.5-45.8,45.8-45.8
		h1180.3C1322.9,681.7,1343.4,702.2,1343.4,727.5L1343.4,727.5z"/>
	<path class="st0" d="M1395.9,817.8c0,24.6-19.9,44.6-44.6,44.6H77c-24.6,0-44.6-19.9-44.6-44.6l0,0c0-24.6,19.9-44.6,44.6-44.6
		h1274.3C1375.9,773.3,1395.9,793.2,1395.9,817.8L1395.9,817.8z"/>
	<path class="st0" d="M1334.4,901.4c0,15.7-12.8,28.5-28.5,28.5h-183c-15.7,0-28.5-12.8-28.5-28.5l0,0c0-15.7,12.8-28.5,28.5-28.5
		h183C1321.6,872.9,1334.4,885.6,1334.4,901.4L1334.4,901.4z"/>
	<path class="st0" d="M374.7,888.7c0,7-5.7,12.7-12.7,12.7H167.6c-7,0-12.7-5.7-12.7-12.7l0,0c0-7,5.7-12.7,12.7-12.7H362
		C369,876,374.7,881.7,374.7,888.7L374.7,888.7z"/>
	<path class="st0" d="M825.3,924.7c0,7.5-6,13.5-13.5,13.5H622.4c-7.5,0-13.5-6-13.5-13.5l0,0c0-7.5,6-13.5,13.5-13.5h189.5
		C819.3,911.2,825.3,917.3,825.3,924.7L825.3,924.7z"/>
</g>
<g>
	<g>
		<g>
			<path class="st1" d="M503.3,139c3.6-5.2,10.7-6.5,15.9-3c5.2,3.6,6.5,10.7,3,15.9l-37.7,54.9c-0.4,1.9,0.4,4,2.1,5.1
				c2.3,1.6,5.4,1,7-1.2c0,0,0-0.1,0-0.1l52.7-76.7c3.6-5.2,10.7-6.5,15.9-3c5.2,3.6,6.5,10.7,3,15.9l-50,72.8
				c-1.6,2.3-1,5.5,1.3,7.1c2.3,1.6,5.5,1,7.1-1.3l58.1-84.6c3.6-5.2,10.7-6.5,15.9-3c5.2,3.6,6.5,10.7,3,15.9l-58.3,84.8
				c-1.4,2.3-0.8,5.3,1.4,6.9c2.3,1.6,5.5,1,7.1-1.3c0,0,0,0,0.1-0.1l50-72.7c3.6-5.2,10.7-6.5,15.9-3c5.2,3.6,6.5,10.7,3,15.9
				L567,261.1c-0.4,0.6-0.9,1.1-1.3,1.6l-9.1,13.2l31.5-18.8c5.4-3.3,12.4-1.5,15.7,3.9c3.3,5.4,1.2,11.4-4.2,14.6l-54.3,48.2
				c0,0-50.5,37.2-64.1,33.1L413,310.1c0,0,7.4-49.1,25.9-77c4.7-7.2,8.5-12.8,11.6-17.3c0-0.1,0.1-0.1,0.1-0.2L503.3,139z"/>
			<path class="st1" d="M352,376.1c22.3-28.4,59.8-61.6,59.8-61.6l33.1,22.8l0.5,0.4l33.1,22.8c0,0-17.6,46.9-36.1,77.9
				c0,0,4.1,3-0.1,7.5l-48.4-33.3l-0.5-0.4l-48.4-33.3C347.7,373.4,352,376.1,352,376.1z"/>
		</g>
	</g>
	<g>
		<g>
			<g>
				<g>
					<path class="st2" d="M323.6,422l-2.6,8.2l-140.3-70.6c2.3-7.1,4.3-13.4,5.8-18.2L323.6,422z"/>
					<path class="st2" d="M292.6,519.2l-3.5,11.1L132.2,512c1.8-5.8,3.9-12.2,6-18.9L292.6,519.2z"/>
					<path class="st2" d="M145.9,468.8c1.5-4.8,3-9.4,4.4-13.9l152,33.8l-0.4,1.3l-2.6,8.1L145.9,468.8z"/>
					<path class="st2" d="M126.5,529.9c1.1-3.4,2.4-7.6,3.9-12.3l156.9,18.3l-3.6,11.2L126.5,529.9z"/>
					<path class="st2" d="M319.2,435.7l-2.9,9.1l-143-62c1.9-6.1,3.9-12.1,5.7-17.8L319.2,435.7z"/>
					<path class="st2" d="M165.2,408.3c2.1-6.5,4.2-13.3,6.4-20.1l143,62l-2.4,7.5L165.2,408.3z"/>
					<path class="st2" d="M310.6,462.9l-1.5,4.6l-1.3,4.2l-149.6-41.4c2-6.1,3.1-9.9,3.1-9.9c0.7-2.2,1.4-4.5,2.2-6.9L310.6,462.9z"
						/>
					<path class="st2" d="M199,327.8l129.5,78.8l-3.1,9.7l-137.1-80.6c0.4-1.1,0.7-2.1,0.9-2.7C192.9,321.2,199,327.8,199,327.8z"/>
					<path class="st2" d="M297.6,503.5l-3.3,10.3l-154.4-26.1c1.4-4.5,2.9-9,4.3-13.5L297.6,503.5z"/>
					<path class="st2" d="M306.1,476.9l-2.1,6.5l-152-33.8c0.7-2.3,1.4-4.5,2.1-6.6c0.8-2.7,1.6-5.2,2.4-7.5L306.1,476.9z"/>
					<path class="st2" d="M124.7,535.6L282,552.7l-2.4,7.6l-150.4-13c0,0-8.8,2-5.1-9.8C124.2,537,124.4,536.4,124.7,535.6z"/>
				</g>
			</g>
			<path class="st3" d="M939.1,683.5c1.9-6-1.4-12.4-7.4-14.3l-559.1-178c-6-1.9-12.4,1.4-14.3,7.4c-1.9,6,1.4,12.4,7.4,14.3
				l559.1,178C930.8,692.8,937.2,689.5,939.1,683.5z M908.5,679.7c-3.3-1-5.1-4.5-4-7.8c1-3.3,4.5-5.1,7.8-4l15.1,4.8
				c3.3,1,5.1,4.5,4,7.8c-1,3.3-4.5,5.1-7.8,4L908.5,679.7z"/>
		</g>
		<path class="st4" d="M363.7,516.9c-7.9-2.9-12.2-11.5-9.6-19.6c2.6-8.1,11.1-12.7,19.2-10.5c2.1-20.5-0.5-56.7-38.7-81.1
			l-24.7,77.5l-24.7,77.5C330.5,562.9,353.6,534.9,363.7,516.9z M299.9,542.7l37-116.3c0.6-1.9,2.6-2.9,4.4-2.3
			c1.9,0.6,2.9,2.6,2.3,4.4l-37,116.3c-0.6,1.9-2.6,2.9-4.4,2.3C300.3,546.5,299.3,544.6,299.9,542.7z"/>
	</g>
	<path class="st5" d="M456.1,615.4c-33.1,9.3-43,42.4-30.9,61.1c0,0-71.7-14.1-95.9,8.4c-24.3,22.5-11,51.1,0,61.1
		c0,0-19.8,29.8-3.3,45.2c16.5,15.4,47.4,0,47.4,0s24.3,39.7,78.3,36.4c54-3.3,80.5-46.3,80.5-46.3s18.8,65.1,101,61.8
		c82.1-3.3,78.7-47.4,78.7-47.4s13.7,30.9,44.4,24.3c30.7-6.6,27.3-32,27.3-32s10.1,40.8,60.8,36.4c50.7-4.4,46.3-48.5,46.3-48.5
		s54,43,108.1,14.3c54-28.7,73.9-121.3,37.5-156.6c-36.4-35.3-68.4-2.2-68.4-2.2s-5.5-47.2-52.9-47.9c-47.4-0.7-56.1,41.2-56.1,41.2
		s-35.4-34.7-62.4-23.6l8.1,50.9c0,0-23.5-17.1-26-4.6c0,0,44,24.3-129.5,14.9c0,0-41.2,40.5-52.8-0.9c0,0-69.4,3.5-40.9-8.6
		l-1.7-21C553.6,631.9,489.2,606.1,456.1,615.4z"/>
	<g>
		<g>
			<path class="st4" d="M681.5,353.8c-51.5,0-100-0.9-136.5-2.6c-17.8-0.8-31.9-1.8-41.7-2.9c-5.2-0.6-9.2-1.2-12-1.8
				c-2.5-0.6-9.1-2.1-9.1-8.3c0-6.2,6.6-7.7,9.1-8.3c2.8-0.6,6.7-1.2,12-1.8c9.8-1.1,23.9-2,41.7-2.9c36.5-1.7,84.9-2.6,136.5-2.6
				c51.5,0,100,0.9,136.5,2.6c17.8,0.8,31.9,1.8,41.7,2.9c5.2,0.6,9.2,1.2,12,1.8c2.5,0.6,9.1,2.1,9.1,8.3c0,6.2-6.6,7.7-9.1,8.3
				c-2.8,0.6-6.7,1.2-12,1.8c-9.8,1.1-23.9,2-41.7,2.9C781.5,352.8,733.1,353.8,681.5,353.8z M554.1,338.2
				c35.1,1.4,80.3,2.2,127.4,2.2c47.1,0,92.2-0.8,127.4-2.2c-35.1-1.4-80.3-2.2-127.4-2.2C634.4,335.9,589.3,336.7,554.1,338.2z"/>
		</g>
		<path class="st4" d="M850.9,403.8l9.8-50.6c-55.8,6.3-161.7,6.4-179.2,6.3v0c0,0-0.4,0-1.2,0c-0.8,0-1.2,0-1.2,0v0
			c-17.5,0-123.4,0-179.2-6.3l9.8,50.6c0,0-10.9,9.2,2.9,16.7l2.9,13.2c0,0-10.3,7.5,0,17.8L547,659.1c0,0,5.1,25,132,25.9v0
			c0.4,0,0.8,0,1.2,0c0.4,0,0.8,0,1.2,0v0c126.9-0.9,132-25.9,132-25.9l31.6-207.5c10.3-10.3,0-17.8,0-17.8l2.9-13.2
			C861.9,413,850.9,403.8,850.9,403.8z"/>
		<path class="st4" d="M828.3,680.6c-0.5-12.9-8.9-16.3-8.9-16.3C800.6,691.2,701,692,682.9,692v0c0,0-0.5,0-1.4,0
			c-0.9,0-1.4,0-1.4,0v0c-18.1,0.1-117.6-0.8-136.5-27.7c0,0-8.4,3.5-8.9,16.3c0,0,10.2,28.8,145.4,30.1v0c0.5,0,0.9,0,1.4,0
			c0.5,0,0.9,0,1.4,0v0C818.1,709.3,828.3,680.6,828.3,680.6z"/>
		<path class="st4" d="M496.2,353.2l3.6,36.4c0,0-10.5-2.4-12.1-14.1c-1.6-11.7-1.6-13.1-1.6-13.1S487,352.6,496.2,353.2z"/>
		<g>
			<path class="st6" d="M602.6,583.5c-0.1,0-0.2,0-0.3,0c-12.9-1-21.8-9.7-29-16.7l-1.4-1.3c-1.8-1.8-6.1-5.2-11.5-9.6
				c-15.7-12.7-41.9-34-65-58.8c-20.2-21.7-31.5-59.2-33.6-111.6c0-1-0.1-1.8-0.1-2.4c-0.5-11.5,6.8-16,10.8-16.8l0.3-0.1h15.6
				c1.8,0,3.3,1.5,3.3,3.3c0,1.8-1.5,3.3-3.3,3.3h-14.9c-1.2,0.3-5.6,2.2-5.2,9.9c0,0.7,0.1,1.5,0.1,2.5
				c2,50.8,12.7,86.9,31.8,107.3c22.8,24.4,48.8,45.5,64.4,58.1c5.8,4.7,9.9,8,11.9,10l1.4,1.4c6.7,6.5,14.3,14,24.9,14.8
				c1.8,0.1,3.2,1.8,3.1,3.6C605.8,582.2,604.3,583.5,602.6,583.5z"/>
		</g>
		<path class="st4" d="M865.9,353.2l-3.6,36.4c0,0,10.5-2.4,12.1-14.1c1.6-11.7,1.6-13.1,1.6-13.1S875.2,352.6,865.9,353.2z"/>
		<g>
			<path class="st6" d="M759.6,583.5c-1.7,0-3.2-1.3-3.3-3.1c-0.1-1.8,1.2-3.4,3.1-3.6c10.5-0.8,18.1-8.2,24.9-14.8l1.4-1.4
				c2-2,6.2-5.3,11.9-10c15.5-12.6,41.6-33.7,64.4-58.1c19.1-20.5,29.8-56.6,31.8-107.3c0-1,0.1-1.8,0.1-2.5c0.4-7.6-4-9.5-5.2-9.9
				h-14.8c-1.8,0-3.3-1.5-3.3-3.3c0-1.8,1.5-3.3,3.3-3.3h15.6l0.3,0.1c4,0.8,11.4,5.3,10.8,16.8c0,0.6-0.1,1.4-0.1,2.4
				c-2,52.4-13.3,90-33.6,111.6c-23.1,24.8-49.4,46-65,58.8c-5.4,4.4-9.7,7.9-11.5,9.6l-1.4,1.3c-7.2,7-16.1,15.6-29,16.7
				C759.7,583.5,759.6,583.5,759.6,583.5z"/>
		</g>
		<path class="st2" d="M687.5,563.6v38c0,0,0,3.4-3.8,3.6c-3.8,0.2-40.1-1.9-51-2.6c-11-0.8-16.8,3.6-22.9,1.7
			c-6-1.9-7.2-4.3-7.2-4.3v-34c0,0,6-6,14-4.9c7.9,1.1,18.5,2.3,31.9,1.1c13.4-1.1,34.6-2.1,34.6-2.1S687.5,559.2,687.5,563.6z"/>
		<path class="st2" d="M690.7,563.6v38c0,0,0,3.4,3.8,3.6c3.8,0.2,40.1-1.9,51-2.6c11-0.8,16.8,3.6,22.9,1.7c6-1.9,7.2-4.3,7.2-4.3
			v-34c0,0-6-6-14-4.9c-7.9,1.1-18.5,2.3-31.9,1.1c-13.4-1.1-34.6-2.1-34.6-2.1S690.7,559.2,690.7,563.6z"/>
	</g>
	<path class="st5" d="M523.4,335.8c0,0-21.4-16-10.5-40.1c10.9-24.1,38.1-17.3,38.1-17.3s-5.4-26.9,24.1-49.3
		c29.6-22.4,66.6-5.4,76.8,15.3c0,0,6.9-21.4,28.4-24.1c21.5-2.7,32.1,18.4,32.4,27.5c0,0,16-46.6,63.6-48.3
		c47.6-1.7,80.6,47.3,59.8,84.6c0,0,39.8,20.4,13.9,51.7C850.1,335.8,644,355.2,523.4,335.8z"/>
	<path class="st7" d="M530.3,322.6c0,0-8.6-14,6.2-23.3"/>
	<path class="st7" d="M584.8,246.7c0,0,21.4-24.9,48.3-5.8"/>
	<path class="st7" d="M692.7,240.1c0,0,7.8,1.1,8.2,10"/>
	<path class="st7" d="M735.2,240.1c0,0,8.2-23.5,35.4-28.2"/>
	<path class="st7" d="M789.3,212c0,0,10.9-3,19.5,14.1"/>
	<path class="st8" d="M584.8,322.6c0,0,9.7-24.5,40.5-33.5c30.8-9,43.2,19.9,43.2,19.9s15.6-11.7,28.2-9.7c12.7,1.9,15,13.2,15,13.2
		"/>
	<path class="st8" d="M808.8,286c0,0,38.6,8.2,23.8,42.1"/>
	<path class="st8" d="M783.5,274.3c0,0,10.1,1.2,12.9,10.1"/>
	<path class="st7" d="M442.9,677c0,0-7.8-24.3,10.7-37.4"/>
	<path class="st7" d="M478.7,628.6c0,0,7.1-1.1,14.3,6.1"/>
	<path class="st7" d="M345.3,731.7c0,0-13.2-16,0-34.7"/>
	<path class="st7" d="M499.9,669.4c0,0-17.3,37.5,38.4,50.7"/>
	<path class="st7" d="M432.4,806.7c0,0,25.4,11.6,53.8-8.8"/>
	<path class="st7" d="M562,724.5c0,0,11.6,7.2,29.8,7.2"/>
	<path class="st7" d="M639.2,820.5c3.9-0.6,32.6,4.4,48.3-19.3"/>
	<path class="st7" d="M621,820.6c0,0-14.9-0.6-24.8-9.7"/>
	<path class="st7" d="M876.8,620.3c0-1.7,14.9-24.8,43.6-20.4"/>
	<path class="st7" d="M946.8,620.3c0,0,7.7,7.2,6.6,19.3"/>
	<path class="st7" d="M990.4,634.6c0,0,40.8-3.9,45.8,34.7"/>
	<path class="st7" d="M931.4,776.9c0,0,22.6,17.1,49.6,2.8"/>
	<path class="st7" d="M840.4,803.9c0,0,19.8,3.2,32-18.5"/>
	<path class="st7" d="M807.9,720.1c1.7,1.1,32-4.1,40.8-32.6"/>
	<circle class="st9" cx="371" cy="610.4" r="24.8"/>
	<path class="st5" d="M371,608c-6.8,0-12.4,5.5-12.4,12.4c0,4.7,2.7,8.9,6.6,10.9c-0.7-1-1-2.3-1-3.6c0-3.7,3-6.8,6.8-6.8
		c3.7,0,6.8,3,6.8,6.8c0,1.3-0.4,2.5-1,3.6c3.9-2.1,6.6-6.2,6.6-10.9C383.3,613.5,377.8,608,371,608z"/>
	<path class="st5" d="M979,598.5c5.3-2.8,7.3-9.3,4.5-14.6c-1.9-3.7-5.7-5.7-9.6-5.7c0.9,0.5,1.7,1.3,2.3,2.3c1.5,2.9,0.4,6.5-2.5,8
		c-2.9,1.5-6.5,0.4-8-2.5c-0.5-1-0.7-2.1-0.7-3.2c-2.2,3.2-2.6,7.5-0.6,11.1C967.2,599.2,973.7,601.2,979,598.5z"/>
	<g>
		<g>
			<path class="st10" d="M506.7,597.6c-8.7,0-16.6-4.8-20.6-12.4c-6-11.4-1.6-25.5,9.7-31.5c3.4-1.8,7.1-2.7,10.9-2.7
				c8.7,0,16.6,4.8,20.6,12.4c2.9,5.5,3.5,11.8,1.7,17.8c-1.8,6-5.9,10.8-11.4,13.7C514.2,596.7,510.5,597.6,506.7,597.6z
				 M506.7,554.3c-3.2,0-6.5,0.8-9.3,2.3c-9.8,5.2-13.5,17.3-8.3,27c3.5,6.6,10.3,10.7,17.7,10.7c3.2,0,6.5-0.8,9.3-2.3
				c4.7-2.5,8.2-6.7,9.8-11.8c1.6-5.1,1.1-10.5-1.4-15.3C520.9,558.4,514.1,554.3,506.7,554.3z"/>
		</g>
		<g>
			<path class="st10" d="M507.7,576.2c5.3-2.8,7.3-9.3,4.5-14.6c-1.9-3.7-5.7-5.7-9.5-5.7c0.9,0.5,1.7,1.3,2.3,2.3
				c1.5,2.9,0.4,6.5-2.5,8c-2.9,1.5-6.5,0.4-8-2.5c-0.5-1-0.7-2.1-0.7-3.2c-2.2,3.2-2.6,7.5-0.6,11.1
				C495.9,577,502.4,579,507.7,576.2z"/>
		</g>
	</g>
	<circle class="st9" cx="900.4" cy="843.2" r="21.7"/>
	<path class="st5" d="M901.4,845.1c5.3-2.8,7.3-9.3,4.5-14.6c-1.9-3.7-5.7-5.7-9.5-5.7c0.9,0.5,1.7,1.3,2.3,2.3
		c1.5,2.9,0.4,6.5-2.5,8c-2.9,1.5-6.5,0.4-8-2.5c-0.5-1-0.7-2.1-0.7-3.2c-2.2,3.2-2.6,7.5-0.6,11.1
		C889.6,845.9,896.2,847.9,901.4,845.1z"/>
	<circle class="st9" cx="521.5" cy="843.2" r="21.7"/>
	<path class="st5" d="M522.5,845.1c5.3-2.8,7.3-9.3,4.5-14.6c-1.9-3.7-5.7-5.7-9.5-5.7c0.9,0.5,1.7,1.3,2.3,2.3
		c1.5,2.9,0.4,6.5-2.5,8c-2.9,1.5-6.5,0.4-8-2.5c-0.5-1-0.7-2.1-0.7-3.2c-2.2,3.2-2.6,7.5-0.6,11.1
		C510.7,845.9,517.3,847.9,522.5,845.1z"/>
	<g>
		<circle class="st9" cx="432.4" cy="577.1" r="21.7"/>
		<circle class="st5" cx="434.2" cy="568.1" r="10.4"/>
	</g>
	<g>
		<circle class="st9" cx="1046.1" cy="571.8" r="21.7"/>
		<circle class="st5" cx="1047.9" cy="562.8" r="10.4"/>
	</g>
	<circle class="st9" cx="310.6" cy="718" r="11.6"/>
	<circle class="st5" cx="311.5" cy="713.2" r="5.5"/>
	<circle class="st9" cx="383.3" cy="519.1" r="11.6"/>
	<circle class="st5" cx="384.3" cy="514.3" r="5.5"/>
	<g>
		<path class="st10" d="M995.1,717.9c-9.5,0-18.1-5.2-22.6-13.6c-6.6-12.4-1.8-27.9,10.6-34.5c3.7-1.9,7.8-3,11.9-3
			c9.5,0,18.1,5.2,22.6,13.6c3.2,6,3.8,12.9,1.8,19.4c-2,6.5-6.4,11.8-12.5,15C1003.3,716.9,999.2,717.9,995.1,717.9z M995.1,670.2
			c-3.6,0-7.2,0.9-10.3,2.6c-10.8,5.7-15,19.2-9.3,30c3.9,7.3,11.4,11.8,19.6,11.8c3.6,0,7.2-0.9,10.3-2.6
			c5.2-2.8,9.1-7.4,10.8-13.1c1.7-5.7,1.2-11.7-1.6-16.9C1010.9,674.7,1003.3,670.2,995.1,670.2z"/>
	</g>
	<g>
		<path class="st10" d="M1008.5,682.5c0,6.3-5.1,11.4-11.4,11.4c-6.3,0-11.4-5.1-11.4-11.4c0-6.3,5.1-11.4,11.4-11.4
			C1003.4,671,1008.5,676.1,1008.5,682.5z"/>
	</g>
	<g>
		<path class="st10" d="M674.8,755c0,6.3-5.1,11.4-11.4,11.4c-6.3,0-11.4-5.1-11.4-11.4c0-6.3,5.1-11.4,11.4-11.4
			C669.6,743.6,674.8,748.7,674.8,755z"/>
	</g>
	<circle class="st9" cx="946.8" cy="507.5" r="11.6"/>
	<circle class="st5" cx="947.8" cy="502.7" r="5.5"/>
	<g>
		<path class="st4" d="M113.5,672.5c0,8.7,7,15.7,15.7,15.7h159.7c8.7,0,15.7-7,15.7-15.7c0-8.7-7-15.7-15.7-15.7H129.1
			C120.5,656.8,113.5,663.9,113.5,672.5z M126.1,671.5c0-4.9,3.9-8.8,8.8-8.8h51.8c4.9,0,8.8,3.9,8.8,8.8c0,4.9-3.9,8.8-8.8,8.8H135
			C130.1,680.3,126.1,676.3,126.1,671.5z"/>
		<path class="st11" d="M308.1,672.5c0-2.1-0.4-4.1-1.2-5.9h177.6c3.2,0,5.9,2.6,5.9,5.9c0,3.2-2.6,5.9-5.9,5.9H306.9
			C307.6,676.6,308.1,674.6,308.1,672.5z"/>
		<g>
			<path class="st3" d="M338.6,682h8.6l-24.7,82.6c-7.5,0-14.1,0-19.1,0L338.6,682z"/>
			<path class="st3" d="M440.7,682h11.6l30.2,82.6c-6.1,0-12.8,0-19.8,0L440.7,682z"/>
			<path class="st3" d="M437.1,764.6c-5,0-9.9,0-14.5,0L408.6,682h1.4h8.5L437.1,764.6z"/>
			<path class="st3" d="M501.2,764.6c-3.5,0-7.9,0-13,0L458.1,682h11.8L501.2,764.6z"/>
			<path class="st3" d="M352.9,682h9.6l-15.7,82.6c-6.4,0-12.7,0-18.6,0L352.9,682z"/>
			<path class="st3" d="M373.6,764.6c-6.8,0-14,0-21.1,0l15.7-82.6h7.8L373.6,764.6z"/>
			<path class="st3" d="M381.5,682h4.8h4.4l6,82.6c-6.4,0-10.4,0-10.4,0c-2.3,0-4.7,0-7.2,0L381.5,682z"/>
			<path class="st3" d="M286.7,756.8l35.8-74.8h10.1l-35.3,82.6c-1.2,0-2.2,0-2.9,0C282.1,764.6,286.7,756.8,286.7,756.8z"/>
			<path class="st3" d="M424.2,682h10.8l22,82.6c-4.7,0-9.5,0-14.2,0L424.2,682z"/>
			<path class="st3" d="M396.2,682h6.8l13.9,82.6c-2.4,0-4.7,0-6.9,0c-2.8,0-5.4,0-7.8,0L396.2,682z"/>
			<path class="st3" d="M507.1,764.6L475.8,682h7.9l33.2,74.8c0,0,4.5,7.8-7.8,7.8C508.6,764.6,508,764.6,507.1,764.6z"/>
		</g>
	</g>
	<g>
		<g>
			<path class="st1" d="M900.5,166.1c-3.6-5.2-10.7-6.5-15.9-3c-5.2,3.6-6.5,10.7-3,15.9l37.7,54.9c0.4,1.9-0.4,4-2.1,5.1
				c-2.3,1.6-5.4,1-7-1.2c0,0,0-0.1,0-0.1l-52.7-76.7c-3.6-5.2-10.7-6.5-15.9-3c-5.2,3.6-6.5,10.7-3,15.9l50,72.8
				c1.6,2.3,1,5.5-1.3,7.1c-2.3,1.6-5.5,1-7.1-1.3L822.1,168c-3.6-5.2-10.7-6.5-15.9-3c-5.2,3.6-6.5,10.7-3,15.9l58.3,84.8
				c1.4,2.3,0.8,5.3-1.4,6.9c-2.3,1.6-5.5,1-7.1-1.3c0,0,0,0-0.1-0.1l-50-72.7c-3.6-5.2-10.7-6.5-15.9-3c-5.2,3.6-6.5,10.7-3,15.9
				l52.7,76.7c0.4,0.6,0.8,1.1,1.3,1.6l9.1,13.2l-31.5-18.8c-5.4-3.3-12.4-1.5-15.7,3.9c-3.3,5.4-1.2,11.4,4.2,14.6l54.3,48.2
				c0,0,50.5,37.2,64.1,33.1l68.2-46.9c0,0-7.4-49.1-25.9-77c-4.7-7.2-8.5-12.8-11.6-17.3c0-0.1-0.1-0.1-0.1-0.2L900.5,166.1z"/>
			<path class="st1" d="M1051.7,403.2c-22.3-28.4-59.8-61.6-59.8-61.6l-33.1,22.8l-0.5,0.4l-33.1,22.8c0,0,17.6,46.9,36.1,77.9
				c0,0-4.1,3,0.1,7.5l48.4-33.3l0.5-0.4l48.4-33.3C1056,400.5,1051.7,403.2,1051.7,403.2z"/>
		</g>
	</g>
	<g>
		<polygon class="st11" points="1010.9,719.8 1171,719.8 1160.6,747.9 1021.3,747.9 		"/>
		<polygon class="st11" points="1021.3,751.1 974.8,801.6 1206.9,801.6 1161.1,751.1 		"/>
		<polygon class="st4" points="1010.9,719.8 1025.9,710.6 1153.2,710.6 1171,719.8 		"/>
		<polygon class="st4" points="1010.9,719.8 979,766.7 973.3,799.3 1021.3,747.9 		"/>
		<polygon class="st4" points="1170.9,719.8 1202.9,766.7 1208.5,799.3 1160.6,747.9 		"/>
		<path class="st2" d="M1075.2,715.2h32.6c0,0-3.8-10.6-10.9-12.5h-12C1084.9,702.7,1077.6,705.1,1075.2,715.2z"/>
		<path class="st4" d="M1090.9,253.6c-3.8,0-6.9,3.1-6.9,6.9v438h13.8v-438C1097.8,256.7,1094.7,253.6,1090.9,253.6z M1090.9,269.3
			c-2.5,0-4.5-2-4.5-4.5c0-2.5,2-4.5,4.5-4.5c2.5,0,4.5,2,4.5,4.5C1095.4,267.2,1093.4,269.3,1090.9,269.3z"/>
	</g>
	<g>
		<g>
			<polygon class="st4" points="963.5,517.9 951.6,511.3 941.7,515.3 960.6,526.9 			"/>
			<path class="st4" d="M893.8,540.6c0,0,1.6-4.9,3.2-9.8c1.6-4.9,5.3-5.5,5.3-5.5l14.8,4.2c0-0.1,0-0.1,0-0.1l1.1,0.4l1.1,0.3
				c0,0,0,0,0,0.1l14.4,5.3c0,0,2.6,2.6,1,7.6c-1.6,4.9-3.2,9.8-3.2,9.8s0.6,2.9-6.8,0.5c-5.6-1.8-10.8-3.2-12.9-3.9
				c-2.2-0.6-7.1-2.5-12.7-4.4C891.6,542.6,893.8,540.6,893.8,540.6z"/>
			<path class="st11" d="M881.2,486.9l-1,3l16.1,5.2l12.6,13c1.3-5.5,7.7-16.6,17.1-12.2c9.5,4.4,5.1,19.4,5.1,19.4l6.2,2
				c1.5,0.5,4.5-0.8,4.5-0.8l14.5-5.7c0,0,1.6,0.3,4.7,2.1c3.1,1.8,1.4,4.6,1.4,4.6l-3.5,10.9l4.4,1.4c0,0,5.2,20.2,16.1,30.7
				c10.9,10.5,16.7,10.8,18,10.2c1.4-0.6-5.5-11.2-11.7-23.8c-6.2-12.5-8.1-34.5-8.1-34.5s3.8-1.7,4-3.4c0.2-1.7-2.9-10.6-2.9-10.6
				l17.4-1.9c0,0,3.3-0.1,3.2-7.8c-0.2-7.7-5.5-9.5-5.5-9.5l-17.3-1.1c-45.7-9.3-79.9,13.7-79.9,13.7L881.2,486.9z M901.6,494
				l13.4-5.7c0,0,2.2,4.7,1.6,5c-6.9,2.9-8.1,8.8-8.1,8.8L901.6,494z"/>
			<path class="st11" d="M900.5,521.7c-0.5,1.6,0.4,3.3,1.9,3.8l30.1,9.7c1.6,0.5,3.3-0.4,3.8-1.9l0,0c0.5-1.6-0.4-3.3-1.9-3.8
				l-30.1-9.7C902.7,519.3,901,520.2,900.5,521.7L900.5,521.7z"/>
			<path class="st11" d="M933.7,531.2l3.5-10.9l-9.1-3c0,0,2.8-8.4,1.2-14.5c-1.6-6-10.8-8.1-14.2-2.3c0,0-2.3,3.1-4.3,10.1
				c-2.1,7-3.7,11.3-3.7,11.3L933.7,531.2z"/>
			<path class="st4" d="M999.1,488.8c0.2,7.7-3.2,7.8-3.2,7.8l-17.4,1.9c0,0,0.2,0.5,0.4,1.3c0,0-4-3.4-4.9-9.7
				c-0.9-6.3,2.2-11.9,2.2-11.9l17.3,1.1C993.6,479.2,998.9,481,999.1,488.8z"/>
		</g>
		<g>
			<path class="st11" d="M939.3,642.8c-32.3-26.8-10.6-86-10.6-86c-14-3.4-17.7-5-17.7-5s-3.9-0.9-17.3-6.3c0,0-17.1,60.6-59,63.5
				c0,0-11.7,1.3-16,12.6l-25.1,77.7l0.2,0.1c0.6,0.3,59.5,32.5,125.7,40.7h0.3l25.1-77.6C948,650.7,939.3,642.8,939.3,642.8z"/>
			<path class="st11" d="M794.2,702c1.3,2.7,3.5,7.9,3.8,12.4c0.4,6.3,4,12.9,14.2,20.3c10.2,7.4,34.7,15.3,34.7,15.3
				s24.5,7.9,37.1,7.9c12.6,0,19.5-3.3,23.4-8.1c2.8-3.5,7.7-6.4,10.3-7.8C857.3,734.2,803.4,706.9,794.2,702z"/>
		</g>
	</g>
	<g>
		<path class="st1" d="M1167.6,647.4c0,3.7-2.2,6.7-4.8,6.7l0,0c-2.7,0-4.8-3-4.8-6.7V506.2c0-3.7,2.2-6.7,4.8-6.7l0,0
			c2.7,0,4.8,3,4.8,6.7V647.4z"/>
		<path class="st4" d="M1209.9,352.6c1.1-17.3-10.2-21.8-10.2-21.8s0.4-7.9-7.4-13.6c-7.8-5.7-21.6-2.1-21.6-2.1s-5.3-3.4-10.1-2.6
			c-4.7-0.8-10.1,2.6-10.1,2.6s-13.8-3.5-21.6,2.1c-7.8,5.7-7.4,13.6-7.4,13.6s-11.3,4.4-10.2,21.8c1.1,17.3,15.9,20.1,15.9,20.1
			s-4.6,2.1-5.3,7.8c-0.7,5.7,3.5,12.7,3.5,12.7s-13.4,12-11.3,27.2c2.1,15.2,12.4,19.8,12.4,19.8s-6.4,2.8-5.7,8.1
			c0.7,5.3,4.9,7.4,4.9,7.4c-4.9,3.9-10.2,8.1-8.5,17.3c1.8,9.2,13.1,13.4,13.1,13.4s-10.6,2.5-9.2,19.1c1.4,16.6,23,17.3,23,17.3
			h9.1h14.6h9.1c0,0,21.6-0.7,23-17.3c1.4-16.6-9.2-19.1-9.2-19.1s11.3-4.2,13.1-13.4c1.8-9.2-3.5-13.4-8.5-17.3
			c0,0,4.2-2.1,4.9-7.4c0.7-5.3-5.7-8.1-5.7-8.1s10.2-4.6,12.4-19.8c2.1-15.2-11.3-27.2-11.3-27.2s4.2-7.1,3.5-12.7
			c-0.7-5.7-5.3-7.8-5.3-7.8S1208.8,369.9,1209.9,352.6z"/>
		<g>
			<path class="st10" d="M1134.3,365.7c-0.5,0-0.9-0.1-1.3-0.3c-0.2-0.1-15.1-8.7-7.4-28.2c0.6-1.4,2.2-2.1,3.6-1.6
				c1.4,0.6,2.1,2.2,1.6,3.6c-5.8,14.9,4.6,21.1,5,21.4c1.3,0.8,1.8,2.4,1,3.8C1136.2,365.2,1135.3,365.7,1134.3,365.7z"/>
		</g>
		<g>
			<path class="st10" d="M1179.1,378.1c-0.8,0-1.6-0.4-2.2-1.1c-0.9-1.2-0.7-2.9,0.5-3.9c12.3-9.7,5-23.9,4.7-24.5
				c-0.7-1.3-0.2-3,1.1-3.7c1.3-0.7,3-0.2,3.7,1.1c3.4,6.5,6.5,21.4-6.2,31.4C1180.3,377.9,1179.7,378.1,1179.1,378.1z"/>
		</g>
		<g>
			<path class="st10" d="M1149.7,401.7c-6.3,0-11.4-2.6-11.7-2.8c-1.3-0.7-1.9-2.4-1.1-3.7c0.7-1.3,2.4-1.9,3.7-1.1l0,0
				c0.1,0,9.3,4.8,16.5,0.1c1.3-0.8,3-0.5,3.8,0.8c0.8,1.3,0.5,3-0.8,3.8C1156.7,401,1153,401.7,1149.7,401.7z"/>
		</g>
		<g>
			<path class="st10" d="M1179.1,435.3c-1.2,0-2.3-0.8-2.6-1.9c-0.5-1.5,0.4-3,1.8-3.5c7.5-2.4,6.3-11.5,6.3-11.9
				c-0.2-1.5,0.8-2.9,2.3-3.1c1.5-0.2,2.9,0.8,3.1,2.3c0.7,4.9-0.4,14.9-10.1,17.9C1179.6,435.3,1179.4,435.3,1179.1,435.3z"/>
		</g>
		<g>
			<path class="st10" d="M1136.8,453.9c-0.8,0-1.5-0.3-2.1-1c-7.6-8.8-3.3-18.4,0-22.3c1-1.2,2.7-1.3,3.9-0.3c1.1,1,1.3,2.7,0.3,3.9
				c-0.7,0.8-6.3,7.8,0,15c1,1.2,0.9,2.9-0.3,3.9C1138.1,453.7,1137.5,453.9,1136.8,453.9z"/>
		</g>
		<g>
			<path class="st10" d="M1136.8,485c-0.1,0-0.2,0-0.2,0c-3.5-0.3-5.2-2-6.1-3.4c-2.3-3.9-0.1-9.3,0.2-9.9c0.6-1.4,2.2-2,3.6-1.4
				c1.4,0.6,2,2.2,1.4,3.6c-0.6,1.4-1.1,3.8-0.5,4.8c0.2,0.4,0.8,0.7,1.8,0.7c1.5,0.1,2.6,1.5,2.5,3
				C1139.5,483.9,1138.3,485,1136.8,485z"/>
		</g>
		<g>
			<path class="st10" d="M1184.6,511c-0.2,0-0.5,0-0.7-0.1c-1.5-0.4-2.3-1.9-1.9-3.4c3-11.2-3.1-14-3.8-14.3
				c-1.4-0.6-2.1-2.2-1.6-3.6c0.5-1.4,2.1-2.1,3.5-1.6c4,1.5,10.7,7.8,7.2,20.9C1186.9,510.2,1185.8,511,1184.6,511z"/>
		</g>
		<g>
			<path class="st10" d="M1143.1,325.3c-1.2,0-2.3-0.8-2.6-1.9c-0.5-1.5,0.4-3,1.8-3.4c1.1-0.4,11.2-3.3,17.7,0.2
				c1.3,0.7,1.8,2.4,1.1,3.7s-2.4,1.8-3.7,1.1c-3.7-2.1-11.1-0.5-13.4,0.2C1143.6,325.3,1143.3,325.3,1143.1,325.3z"/>
		</g>
		<rect x="1157.9" y="528" class="st5" width="9.7" height="6"/>
		<rect x="1157.9" y="539.6" class="st5" width="9.7" height="6"/>
		<rect x="1157.9" y="551.2" class="st5" width="9.7" height="6"/>
		<rect x="1157.9" y="562.8" class="st5" width="9.7" height="6"/>
		<rect x="1157.9" y="574.3" class="st5" width="9.7" height="6"/>
		<rect x="1157.9" y="585.9" class="st5" width="9.7" height="6"/>
		<rect x="1157.9" y="597.5" class="st5" width="9.7" height="6"/>
		<rect x="1157.9" y="609.1" class="st5" width="9.7" height="6"/>
		<rect x="1157.9" y="620.7" class="st5" width="9.7" height="6"/>
		<rect x="1159.8" y="646.6" class="st5" width="4.8" height="20.3"/>
	</g>
	<circle class="st5" cx="300.1" cy="261.3" r="18.1"/>
	<circle class="st5" cx="383.6" cy="150.4" r="12.6"/>
	<circle class="st5" cx="1009.1" cy="105.7" r="45.6"/>
	<circle class="st5" cx="1014.1" cy="226.3" r="7.3"/>
	<circle class="st5" cx="272.8" cy="613.8" r="14.5"/>
	<circle class="st5" cx="690.1" cy="128.3" r="15.3"/>
	<circle class="st5" cx="230.5" cy="782.9" r="27.9"/>
	<circle class="st5" cx="324.1" cy="824.2" r="8.5"/>
	<circle class="st5" cx="1130.1" cy="639.5" r="18.9"/>
	<circle class="st5" cx="1288.4" cy="237.8" r="18.9"/>
	<circle class="st5" cx="1254.2" cy="700.3" r="15.4"/>
	<circle class="st5" cx="229.1" cy="163.1" r="15.4"/>
</g>
</svg>
