<?xml version="1.0" encoding="utf-8"?>
<!-- Generator: Adobe Illustrator 16.0.0, SVG Export Plug-In . SVG Version: 6.00 Build 0)  -->
<!DOCTYPE svg PUBLIC "-//W3C//DTD SVG 1.1//EN" "http://www.w3.org/Graphics/SVG/1.1/DTD/svg11.dtd">
<svg xmlns="http://www.w3.org/2000/svg" xmlns:xlink="http://www.w3.org/1999/xlink" version="1.1" id="Layer_1" x="0px" y="0px" width="1400px" height="980px" viewBox="0 0 1400 980" enable-background="new 0 0 1400 980" xml:space="preserve">
<g>
	<g>
		
	</g>
	<g>
		<path fill="#379EFF" d="M860.324,158.717c-4.844,0-9.616,0.81-14.186,2.399l-1.965,0.688l-0.746-1.946    c-2.957-7.704-7.903-14.519-14.303-19.706l-0.762-0.621l-0.033-0.981c-0.432-13.492-11.334-24.064-24.819-24.064    c-3.393,0-6.703,0.679-9.845,2.025l-2.21,0.944l-0.691-2.303c-4.542-15.131-18.751-25.699-34.555-25.699    c-15.167,0-28.808,9.616-33.94,23.925l-1.296,3.611l-2.401-2.994c-8.326-10.375-20.723-16.326-34.009-16.326    c-13.683,0-26.312,6.249-34.651,17.14l-0.906,1.187l-4.15-1.17l-0.05-1.573c-0.78-25.481-21.37-45.439-46.87-45.439    c-18.096,0-34.263,10.115-42.192,26.399l-0.644,1.325l-1.468-0.125c-1.288-0.109-2.581-0.185-3.892-0.185    c-25.392,0-46.048,20.659-46.048,46.047c0,2.294,0.174,4.626,0.518,6.924l0.465,3.124l-3.074-0.713    c-3.578-0.83-7.236-1.25-10.876-1.25c-26.463,0-47.994,21.531-47.994,47.993c0,26.455,21.531,47.977,47.994,47.977l371.735-0.013    l1.948-0.185c22.354-2.088,39.214-20.621,39.214-43.108C903.625,178.146,884.199,158.717,860.324,158.717z"/>
		<path d="M855.135,152.422c-4.643,0-9.227,0.675-13.655,2.009c-3.155-7.334-7.989-13.856-14.093-19.002    c-0.994-15.349-13.577-27.238-29.065-27.238c-3.199,0-6.339,0.516-9.36,1.539c-5.747-15.756-21.027-26.572-37.94-26.572    c-15.773,0-30.069,9.289-36.622,23.447c-9.049-9.721-21.625-15.231-35.024-15.231c-13.798,0-26.618,5.779-35.714,15.982    c-2.661-25.989-24.343-45.838-50.912-45.838c-19.264,0-36.524,10.501-45.394,27.507c-0.929-0.059-1.862-0.092-2.801-0.092    c-27.759,0-50.342,22.583-50.342,50.342c0,1.51,0.069,3.032,0.206,4.555c-2.94-0.507-5.915-0.763-8.878-0.763    c-28.833,0-52.288,23.456-52.288,52.288c0,28.824,23.456,52.271,52.288,52.271h373.883l2.147-0.206v-0.231    c23.6-3.166,41.161-23.107,41.161-47.163C902.729,173.777,881.379,152.422,855.135,152.422z M859.222,243.134l-1.948,0.185    l-371.735,0.013c-26.463,0-47.994-21.522-47.994-47.977c0-26.462,21.531-47.993,47.994-47.993c3.64,0,7.299,0.419,10.876,1.25    l3.074,0.713l-0.465-3.124c-0.344-2.298-0.518-4.63-0.518-6.924c0-25.389,20.656-46.047,46.048-46.047    c1.311,0,2.604,0.075,3.892,0.185l1.468,0.125l0.644-1.325c7.929-16.284,24.096-26.399,42.192-26.399    c25.5,0,46.089,19.958,46.87,45.439l0.05,1.573l4.15,1.17l0.906-1.187c8.339-10.891,20.969-17.14,34.651-17.14    c13.286,0,25.683,5.951,34.009,16.326l2.401,2.994l1.296-3.611c5.133-14.309,18.773-23.925,33.94-23.925    c15.804,0,30.013,10.568,34.555,25.699l0.691,2.303l2.21-0.944c3.142-1.346,6.452-2.025,9.845-2.025    c13.485,0,24.388,10.572,24.819,24.064l0.033,0.981l0.762,0.621c6.399,5.188,11.346,12.002,14.303,19.706l0.746,1.946l1.965-0.688    c4.569-1.589,9.342-2.399,14.186-2.399c23.875,0,43.301,19.43,43.301,43.309C898.436,222.513,881.576,241.045,859.222,243.134z"/>
	</g>
	<g>
		<path fill="#FFFFFF" d="M922.086,569.258H806.77c-3.111,0-5.643,2.533-5.643,5.641c0,3.111,2.531,5.645,5.643,5.645h115.316    c3.113,0,5.646-2.533,5.646-5.645C927.732,571.791,925.199,569.258,922.086,569.258z"/>
		<rect x="721.55" y="708.961" fill="#BBFF57" width="285.751" height="14.594"/>
		<path d="M806.336,431.396c8.576,0,15.553-6.983,15.553-15.567c0-8.581-6.977-15.563-15.553-15.563    c-8.582,0-15.565,6.982-15.565,15.563C790.771,424.414,797.754,431.396,806.336,431.396z"/>
		<path d="M966.701,641.663c-11.77,0-21.344,9.579-21.344,21.347s9.574,21.347,21.344,21.347c11.774,0,21.353-9.579,21.353-21.347    S978.476,641.663,966.701,641.663z"/>
		<polygon points="752.742,362.77 757.64,362.77 769.741,350.662 752.742,350.662   "/>
		<polygon fill="#FFFFFF" points="975.886,352.662 780.03,352.662 767.921,364.77 975.886,364.77   "/>
		<polygon fill="#FFFFFF" points="975.886,318.772 813.914,318.772 801.819,330.875 975.886,330.875   "/>
		<path fill="#FFFFFF" d="M922.086,539.503H806.77c-3.111,0-5.643,2.533-5.643,5.641s2.531,5.637,5.643,5.637h115.316    c3.113,0,5.646-2.529,5.646-5.637S925.199,539.503,922.086,539.503z"/>
		<polygon points="749.147,366.368 749.147,347.076 773.331,347.076 787.928,332.482 749.147,332.482 749.147,313.166     807.235,313.166 843.309,277.091 716.36,277.091 716.36,404.036 754.037,366.368   "/>
		<polygon points="752.742,328.875 791.538,328.875 803.629,316.772 752.742,316.772   "/>
		<path fill="#BBFF57" d="M1010.896,705.371h54.267v-426.28h-54.267V705.371z M1016.079,395.778h43.899v227.21h-43.899V395.778z     M1016.079,631.795h43.899v33.76h-43.899V631.795z"/>
		<rect x="1014.487" y="633.389" width="36.704" height="26.585"/>
		<path fill="#BBFF57" d="M817.522,315.166h161.957v19.316H798.212l-14.592,14.594h195.859v19.292H764.318l-42.769,42.76v294.244    h285.751v-426.28H853.6L817.522,315.166z M811.525,398.667c10.563,0,19.155,8.593,19.155,19.162    c0,10.564-8.593,19.157-19.155,19.157c-10.566,0-19.163-8.593-19.163-19.157C792.362,407.261,800.959,398.667,811.525,398.667z     M971.891,689.946c-13.755,0-24.946-11.186-24.946-24.937c0-13.76,11.191-24.949,24.946-24.949    c13.758,0,24.951,11.189,24.951,24.949C996.842,678.761,985.648,689.946,971.891,689.946z M971.647,544.414l-0.366,0.243    l0.088,0.428c1.539,7.401,2.319,14.93,2.319,22.369c0,60.256-49.02,109.273-109.271,109.273c-20.686,0-40.855-5.843-58.331-16.893    l-0.382-0.239l-0.356,0.276c-5.789,4.476-12.99,6.941-20.276,6.941c-18.318,0-33.221-14.905-33.221-33.224    c0-9.394,4.005-18.385,10.989-24.668l0.334-0.302l-0.168-0.415c-5.202-12.95-7.843-26.66-7.843-40.751    c0-12.979,2.271-25.699,6.746-37.803l0.187-0.499l-0.459-0.276c-13.681-8.187-22.179-23.184-22.179-39.132    c0-25.146,20.463-45.603,45.613-45.603c15.521,0,30.311,8.182,38.595,21.355l0.285,0.453l0.495-0.197    c12.751-5.02,26.198-7.561,39.971-7.561c20.994,0,41.405,5.989,59.023,17.32l0.371,0.239l0.356-0.26    c7.182-5.23,15.683-7.994,24.582-7.994c23.097,0,41.89,18.792,41.89,41.892C990.64,523.554,983.539,536.651,971.647,544.414z"/>
		<rect x="1019.677" y="399.376" fill="#FFFFFF" width="36.704" height="220.022"/>
		<rect x="1005.706" y="706.961" width="54.267" height="14.594"/>
		<path fill="#FCFF8F" d="M948.75,471.094c-8.689,0-16.896,2.86-23.732,8.266l-1.032,0.81l-1.086-0.721    c-17.358-11.545-37.58-17.652-58.482-17.652c-14.051,0-27.691,2.713-40.541,8.065l-1.472,0.612l-0.786-1.38    c-7.45-13.168-21.454-21.355-36.547-21.355c-23.173,0-42.023,18.843-42.023,42.005c0,15.479,8.479,29.667,22.132,37.018    l1.403,0.755l-0.577,1.477c-4.808,12.279-7.244,25.217-7.244,38.461c0,14.204,2.774,28.002,8.245,41.003l0.521,1.237l-1.05,0.859    c-7.008,5.657-11.03,14.054-11.03,23.036c0,16.335,13.288,29.625,29.623,29.625c7.079,0,13.942-2.566,19.322-7.222l1.023-0.877    l1.141,0.743c17.234,11.302,37.243,17.278,57.859,17.278c58.269,0,105.673-47.411,105.673-105.684    c0-7.775-0.874-15.604-2.603-23.275l-0.28-1.258l1.123-0.688c11.712-6.983,18.707-19.263,18.707-32.846    C987.037,488.272,969.861,471.094,948.75,471.094z M922.086,584.146H806.77c-5.096,0-9.241-4.147-9.241-9.247    c0-5.096,4.146-9.239,9.241-9.239h115.316c5.096,0,9.241,4.144,9.241,9.239C931.327,579.998,927.182,584.146,922.086,584.146z     M922.086,554.37H806.77c-5.096,0-9.241-4.14-9.241-9.227c0-5.096,4.146-9.239,9.241-9.239h115.316    c5.096,0,9.241,4.144,9.241,9.239C931.327,550.23,927.182,554.37,922.086,554.37z"/>
		<path d="M712.759,273.505v451.656h350.816V273.505H712.759z M716.36,277.091h126.948l-36.073,36.075h-58.088v19.316h38.78    l-14.597,14.594h-24.184v19.292h4.89l-37.677,37.668V277.091z M808.725,316.772h161.972v12.104H796.63L808.725,316.772z     M791.538,328.875h-38.796v-12.104h50.887L791.538,328.875z M774.841,350.662h195.855v12.107H762.731L774.841,350.662z     M757.64,362.77h-4.897v-12.107h16.999L757.64,362.77z M1002.111,721.555H716.36v-14.594h285.751V721.555z M1002.111,703.371    H716.36V409.127l42.769-42.76H974.29v-19.292H778.431l14.592-14.594H974.29v-19.316H812.333l36.077-36.075h153.701V703.371z     M1059.973,721.555h-54.267v-14.594h54.267V721.555z M1059.973,703.371h-54.267v-426.28h54.267V703.371z"/>
		<path d="M1054.789,393.778h-43.899v227.21h43.899V393.778z M1051.191,617.398h-36.704V397.376h36.704V617.398z"/>
		<path d="M1054.789,629.795h-43.899v33.76h43.899V629.795z M1051.191,659.974h-36.704v-26.585h36.704V659.974z"/>
		<path d="M943.561,465.496c-8.899,0-17.4,2.764-24.582,7.994l-0.356,0.26l-0.371-0.239c-17.618-11.332-38.029-17.32-59.023-17.32    c-13.772,0-27.22,2.542-39.971,7.561l-0.495,0.197l-0.285-0.453c-8.284-13.173-23.073-21.355-38.595-21.355    c-25.15,0-45.613,20.458-45.613,45.603c0,15.949,8.498,30.946,22.179,39.132l0.459,0.276l-0.187,0.499    c-4.475,12.104-6.746,24.823-6.746,37.803c0,14.091,2.641,27.801,7.843,40.751l0.168,0.415l-0.334,0.302    c-6.984,6.283-10.989,15.274-10.989,24.668c0,18.318,14.902,33.224,33.221,33.224c7.286,0,14.487-2.466,20.276-6.941l0.356-0.276    l0.382,0.239c17.476,11.05,37.646,16.893,58.331,16.893c60.252,0,109.271-49.018,109.271-109.273    c0-7.439-0.78-14.968-2.319-22.369l-0.088-0.428l0.366-0.243c11.892-7.763,18.992-20.86,18.992-35.026    C985.45,484.288,966.657,465.496,943.561,465.496z M963.141,540.233l-1.123,0.688l0.28,1.258c1.729,7.671,2.603,15.5,2.603,23.275    c0,58.272-47.404,105.684-105.673,105.684c-20.616,0-40.625-5.977-57.859-17.278l-1.141-0.743l-1.023,0.877    c-5.38,4.655-12.243,7.222-19.322,7.222c-16.335,0-29.623-13.29-29.623-29.625c0-8.982,4.022-17.379,11.03-23.036l1.05-0.859    l-0.521-1.237c-5.471-13.001-8.245-26.799-8.245-41.003c0-13.244,2.437-26.182,7.244-38.461l0.577-1.477l-1.403-0.755    c-13.652-7.352-22.132-21.539-22.132-37.018c0-23.162,18.851-42.005,42.023-42.005c15.093,0,29.097,8.187,36.547,21.355    l0.786,1.38l1.472-0.612c12.85-5.352,26.49-8.065,40.541-8.065c20.902,0,41.124,6.106,58.482,17.652l1.086,0.721l1.032-0.81    c6.836-5.406,15.043-8.266,23.732-8.266c21.111,0,38.287,17.178,38.287,38.293C981.848,520.971,974.853,533.25,963.141,540.233z"/>
		<path d="M966.701,638.061c-13.755,0-24.946,11.189-24.946,24.949c0,13.751,11.191,24.937,24.946,24.937    c13.758,0,24.951-11.186,24.951-24.937C991.652,649.25,980.459,638.061,966.701,638.061z M966.701,684.356    c-11.77,0-21.344-9.579-21.344-21.347s9.574-21.347,21.344-21.347c11.774,0,21.353,9.579,21.353,21.347    S978.476,684.356,966.701,684.356z"/>
		<path d="M806.336,434.986c10.563,0,19.155-8.593,19.155-19.157c0-10.568-8.593-19.162-19.155-19.162    c-10.566,0-19.163,8.593-19.163,19.162C787.173,426.393,795.77,434.986,806.336,434.986z M806.336,400.266    c8.576,0,15.553,6.982,15.553,15.563c0,8.584-6.977,15.567-15.553,15.567c-8.582,0-15.565-6.983-15.565-15.567    C790.771,407.249,797.754,400.266,806.336,400.266z"/>
		<path d="M916.896,533.904H801.58c-5.096,0-9.241,4.144-9.241,9.239c0,5.087,4.146,9.227,9.241,9.227h115.316    c5.096,0,9.241-4.14,9.241-9.227C926.138,538.048,921.992,533.904,916.896,533.904z M916.896,548.78H801.58    c-3.111,0-5.643-2.529-5.643-5.637s2.531-5.641,5.643-5.641h115.316c3.113,0,5.646,2.533,5.646,5.641    S920.01,548.78,916.896,548.78z"/>
		<path d="M916.896,563.659H801.58c-5.096,0-9.241,4.144-9.241,9.239c0,5.1,4.146,9.247,9.241,9.247h115.316    c5.096,0,9.241-4.147,9.241-9.247C926.138,567.803,921.992,563.659,916.896,563.659z M916.896,578.543H801.58    c-3.111,0-5.643-2.533-5.643-5.645c0-3.107,2.531-5.641,5.643-5.641h115.316c3.113,0,5.646,2.533,5.646,5.641    C922.543,576.01,920.01,578.543,916.896,578.543z"/>
	</g>
	<g>
		<path fill="#FF7557" d="M1218.023,880.15V596.039c0-4.265-0.939-8.824-3.569-8.824c-0.857,0-3.25,0.508-6.932,5.218l-61.72,78.708    c-6.938,8.87-12.8,25.855-12.8,37.086V880.15H1218.023z"/>
		<path fill="#FF7557" d="M1147.44,591.899l0.39-0.478c0.689-0.843,1.398-1.678,2.109-2.513l3.257-3.857    c1.404-1.623,2.848-3.229,4.292-4.832l1.921-2.143c1.51-1.644,3.053-3.259,4.599-4.869l1.897-2.009    c2.187-2.243,4.405-4.458,6.659-6.639c4.211-4.08,8.74-8.245,13.465-12.376c1.592-1.388,3.162-2.726,4.701-4.021l4.487-3.712    c1.059-0.863,4.296-3.442,4.296-3.442c1.051-0.831,4.068-3.154,4.068-3.154l3.879-2.919l4.933-3.581l4.915-3.439l-0.08-0.528    c-0.564-3.791-2.241-7.205-4.848-9.867c-3.427-3.54-8.042-5.494-12.994-5.494c-4.75,0-9.241,1.828-12.648,5.146l-45.759,44.5    c-3.648,3.548-5.615,8.019-5.683,12.93c-0.064,4.844,1.76,9.428,5.138,12.904c1.786,1.833,3.95,3.237,6.427,4.177L1147.44,591.899    z"/>
		<path fill="#FFFFFF" d="M1130.08,880.15V708.227c0-11.994,6.02-29.444,13.42-38.897l61.716-78.721    c3.296-4.189,6.403-6.312,9.238-6.312c1.954,0,6.501,1.145,6.501,11.742V880.15h29.684V601.361c0-0.395-0.281-39.954-24.584-74.7    l-0.472-0.675l-0.692,0.44c-1.208,0.768-2.988,1.929-5.224,3.426c-7.303,4.949-18.729,13.228-31.72,24.56    c-4.543,3.95-9.035,8.072-13.349,12.25c-9.115,8.827-17.695,18.192-25.504,27.838c-32.634,40.365-49.181,82.798-49.181,126.119    V880.15H1130.08z"/>
		<path fill="#FFFFFF" d="M1139.985,558.56l43.485-42.299l-0.642-0.616c-4.608-4.416-10.669-6.849-17.068-6.849    c-6.459,0-12.573,2.487-17.218,6.995l-8.063,7.843c-4.73,4.597-7.385,10.761-7.478,17.362c-0.086,6.27,2.181,12.271,6.385,16.904    L1139.985,558.56z"/>
		<path d="M1091.806,718.619l-0.002,159.531h2.921V718.619c0-43.321,16.547-85.754,49.181-126.119    c7.809-9.646,16.389-19.011,25.504-27.838c4.313-4.178,8.806-8.3,13.349-12.25c12.99-11.332,24.417-19.61,31.72-24.56    c2.235-1.497,4.016-2.658,5.224-3.426l0.692-0.44l0.472,0.675c24.303,34.746,24.584,74.306,24.584,74.7V878.15h2.927V599.361    c0-1.707-0.3-42.257-26.403-78.197l-0.793-1.082l-1.146,0.684c-0.008,0.004-1.532,0.927-4.202,2.676l-1.015,0.666l-0.289-1.178    c-0.89-3.619-2.65-6.803-5.234-9.457c-3.983-4.105-9.346-6.366-15.097-6.366c-4.721,0-9.265,1.644-13.142,4.752l-0.594,0.478    l-0.545-0.537c-5.209-5.116-12.078-7.93-19.346-7.93c-7.232,0-14.072,2.78-19.258,7.834l-8.059,7.842    c-5.288,5.134-8.26,12.032-8.364,19.417c-0.099,7.113,2.524,13.911,7.385,19.153l0.521,0.558l-0.497,0.583    c-3.279,3.837-5.049,8.438-5.118,13.315c-0.078,5.628,2.042,10.945,5.968,14.972c1.728,1.778,3.813,3.229,6.202,4.312l1,0.457    l-0.681,0.859C1107.91,633.335,1091.806,675.545,1091.806,718.619z M1127.813,538.996c0.093-6.602,2.747-12.766,7.478-17.362    l8.063-7.843c4.645-4.508,10.759-6.995,17.218-6.995c6.399,0,12.46,2.433,17.068,6.849l0.642,0.616l-43.485,42.299l-0.598-0.659    C1129.994,551.267,1127.728,545.266,1127.813,538.996z M1135.245,585.505c-3.378-3.477-5.202-8.061-5.138-12.904    c0.067-4.911,2.034-9.382,5.683-12.93l45.759-44.5c3.407-3.317,7.898-5.146,12.648-5.146c4.952,0,9.567,1.954,12.994,5.494    c2.606,2.662,4.283,6.076,4.848,9.867l0.08,0.528l-4.915,3.439l-4.933,3.581l-3.879,2.919c0,0-3.018,2.323-4.068,3.154    c0,0-3.237,2.579-4.296,3.442l-4.487,3.712c-1.539,1.296-3.109,2.634-4.701,4.021c-4.725,4.131-9.254,8.296-13.465,12.376    c-2.254,2.181-4.473,4.396-6.659,6.639l-1.897,2.009c-1.546,1.61-3.089,3.226-4.599,4.869l-1.921,2.143    c-1.444,1.603-2.888,3.209-4.292,4.832l-3.257,3.857c-0.711,0.835-1.42,1.67-2.109,2.513l-0.39,0.478l-0.579-0.218    C1139.195,588.742,1137.031,587.338,1135.245,585.505z"/>
		<path d="M1127.813,878.15V706.227c0-11.23,5.861-28.216,12.8-37.086l61.72-78.708c3.682-4.71,6.074-5.218,6.932-5.218    c2.63,0,3.569,4.56,3.569,8.824V878.15h2.932V594.039c0-10.598-4.547-11.742-6.501-11.742c-2.835,0-5.942,2.122-9.238,6.312    l-61.716,78.721c-7.4,9.453-13.42,26.903-13.42,38.897V878.15H1127.813z"/>
	</g>
	<g>
		<rect x="332.687" y="684.511" fill="#FF7557" width="70.191" height="26.103"/>
		<path fill="#FFFFFF" d="M364.489,780.188v77.748c0,10.862,7.935,19.698,17.687,19.698h20.703V760.506h-20.703    C372.423,760.506,364.489,769.334,364.489,780.188z"/>
		<path fill="#FF7557" d="M374.478,880.15c-8.211-3.405-14.074-12.07-14.074-22.215v-77.748c0-13.105,9.767-23.771,21.772-23.771    h20.703V736.43h-70.191V880.15H374.478z"/>
		<path fill="#379EFF" d="M385.191,505.844h-76.46c-9.755,0-17.691,8.828-17.691,19.686v85.809h111.839v-85.809    C402.878,514.672,394.944,505.844,385.191,505.844z"/>
		<polygon fill="#FFFFFF" points="328.611,880.15 328.611,732.35 402.878,732.35 402.878,714.693 328.611,714.693 328.611,680.435     402.878,680.435 402.878,632.625 291.039,632.625 291.039,880.15   "/>
		<rect x="291.039" y="615.414" fill="#FF7557" width="111.839" height="13.127"/>
		<path d="M285.85,878.15V630.625h111.839v47.81h-74.268v34.259h74.268v17.656h-74.268V878.15h4.076V734.43h70.191v19.987h-20.703    c-12.005,0-21.772,10.665-21.772,23.771v77.748c0,10.145,5.863,18.81,14.074,22.215h32.477V523.529    c0-13.105-9.763-23.767-21.764-23.767h-76.46c-12.003,0-21.768,10.661-21.768,23.767V878.15H285.85z M397.689,875.634h-20.703    c-9.752,0-17.687-8.836-17.687-19.698v-77.748c0-10.854,7.935-19.682,17.687-19.682h20.703V875.634z M397.689,708.613h-70.191    v-26.103h70.191V708.613z M285.85,523.529c0-10.857,7.937-19.686,17.691-19.686h76.46c9.753,0,17.688,8.828,17.688,19.686v85.809    H285.85V523.529z M285.85,613.414h111.839v13.127H285.85V613.414z"/>
	</g>
	<g>
		<path fill="#FF7557" d="M1021.415,541.223l0.42-0.466c0.45-0.508,11.163-12.393,27.41-15.035l1.233-0.196l-0.02-0.147    c2.414-0.78,7.463-2.86,9.309-7.041c1.302-2.952,0.768-6.555-1.594-10.698l-26.826-44.047c-0.232-0.394-6.095-9.96-23.172-9.96    H882.918l0.193,1.455c0.031,0.23,0.048,0.465,0.048,0.713v25.096c0,0.377-0.042,0.759-0.124,1.136l-0.148,0.47    c-0.059,0.197-0.113,0.398-0.197,0.587l-0.539,0.956l-0.693,0.805l-1.221,1.132l1.271,1.044l0.6,0.386l7.893,3.623l-0.002-0.029    l54.326,24.836c0.163,0.071,0.466,0.201,0.887,0.415l3.888,1.778l-0.721,0.021l2.115,2.118c4.322,4.323,6.66,10.023,6.951,16.938    l0.073,1.736h-3.91v6.03h67.809V541.223z"/>
		<path fill="#FFFFFF" d="M1001.276,567.761c9.055,0,16.419-7.369,16.419-16.428v-3.115h-59.845v3.115    c0,9.059,7.364,16.428,16.418,16.428H1001.276z"/>
		<path fill="#FFFFFF" d="M893.724,498.446c0.952,23.858-0.627,68.299-21.906,97.869c-0.177,0.181-2.508,2.818-2.271,4.743    c0.074,0.592,0.403,1.074,1.038,1.515l1.416,1.278l0.656-0.763c1.192-0.243,3.227-1.204,6.169-4.412    c2.857-2.398,28.52-25.079,34.813-66.438c0.069-0.512,1.817-12.095,17.876-16.037l3.594-0.881l-41.468-18.968L893.724,498.446z"/>
		<path fill="#379EFF" d="M878.553,453.782l-24.498-0.151c-1.189,0-2.156,0.973-2.156,2.168v25.096c0,1.187,0.967,2.151,2.156,2.151    h23.598c1.193,0,2.164-0.965,2.164-2.151v-25.096c0-0.713-0.35-1.384-0.937-1.791L878.553,453.782z"/>
		<path fill="#FCFF8F" d="M1044.632,880.15V696.664c0-9.516-7.746-17.257-17.27-17.257h-79.179c-9.52,0-17.266,7.741-17.266,17.257    V880.15H1044.632z"/>
		<path fill="#379EFF" d="M927.575,880.15V696.664c0-11.36,9.245-20.604,20.608-20.604h79.179c11.362,0,20.608,9.243,20.608,20.604    V880.15h80.446c-9.134-31.667-28.786-59.837-56.379-79.296l-0.709-0.499V671.879c0-30.958-21.989-57.907-52.285-64.076    l-1.349-0.272v-20.013c0-9.051-7.364-16.415-16.419-16.415h-27.008c-9.054,0-16.418,7.364-16.418,16.415v20.013l-1.338,0.272    c-30.296,6.169-52.284,33.118-52.284,64.076v128.477l-0.706,0.499c-27.6,19.446-47.258,47.62-56.392,79.296H927.575z"/>
		<path d="M848.865,484.401h20.278l6.188,3.951l9.671,4.424l0.042,0.78c1.04,19.434,1.086,67.935-20.99,98.629    c-0.57,0.607-3.401,3.82-3.021,7.226c0.113,1.053,0.606,2.571,2.398,3.875c0.64,0.554,1.747,1.212,3.383,1.212    c2.703,0,5.875-1.857,9.084-5.368c1.183-0.947,29.064-23.74,35.867-68.438c0.086-0.554,2.354-13.521,24.277-14.418l0.309-0.013    l1.455,0.666c0.088,0.038,8.903,3.569,10.782,15.098l0.245,1.493h-3.756v12.699h4.236v3.115c0,7.017,3.678,13.366,9.836,16.985    l1.892,1.111l-1.892,1.111c-6.158,3.619-9.836,9.964-9.836,16.977v17.286l-0.985,0.239c-30.5,7.331-52.637,35.441-52.637,66.836    v126.74l-0.534,0.386c-27.805,20.029-47.568,48.87-56.669,81.146h3.452c9.134-31.676,28.792-59.85,56.392-79.296l0.706-0.499    V669.879c0-30.958,21.988-57.907,52.284-64.076l1.338-0.272v-20.013c0-9.051,7.364-16.415,16.418-16.415h27.008    c9.055,0,16.419,7.364,16.419,16.415v20.013l1.349,0.272c30.296,6.169,52.285,33.118,52.285,64.076v128.477l0.709,0.499    c27.593,19.459,47.245,47.629,56.379,79.296h3.454c-9.101-32.275-28.864-61.116-56.669-81.146l-0.534-0.386v-126.74    c0-31.398-22.142-59.51-52.645-66.836l-0.985-0.239v-17.286c0-7.013-3.676-13.357-9.833-16.977l-1.891-1.111l1.891-1.111    c6.157-3.619,9.833-9.969,9.833-16.985v-3.115h3.716v-5.691l0.379-0.377c2.571-2.559,11.957-11.067,24.743-13.144    c0.099-0.021,9.786-2.206,12.934-9.281c1.771-3.976,1.173-8.622-1.757-13.784l-26.836-44.073    c-0.065-0.113-6.876-11.575-26.041-11.575H874.787l-0.428,0.344l-0.617-0.146c-0.417-0.105-0.859-0.197-1.279-0.197h-23.598    c-3.036,0-5.507,2.47-5.507,5.506v25.096C843.358,481.931,845.829,484.401,848.865,484.401z M926.324,514.202    c-16.059,3.942-17.807,15.525-17.876,16.037c-6.293,41.358-31.955,64.039-34.813,66.438c-2.942,3.208-4.977,4.169-6.169,4.412    l-0.656,0.763l-1.416-1.278c-0.635-0.44-0.964-0.923-1.038-1.515c-0.236-1.925,2.095-4.563,2.271-4.743    c21.279-29.57,22.858-74.011,21.906-97.869l-0.084-2.093l41.468,18.968L926.324,514.202z M1012.506,549.333    c0,9.059-7.364,16.428-16.419,16.428h-27.008c-9.054,0-16.418-7.369-16.418-16.428v-3.115h59.845V549.333z M876.268,482.85    l0.693-0.805l0.539-0.956c0.084-0.189,0.139-0.39,0.197-0.587l0.148-0.47c0.082-0.377,0.124-0.759,0.124-1.136v-25.096    c0-0.248-0.017-0.482-0.048-0.713l-0.193-1.455h125.258c17.077,0,22.939,9.566,23.172,9.96l26.826,44.047    c2.361,4.144,2.896,7.746,1.594,10.698c-1.846,4.181-6.895,6.261-9.309,7.041l0.02,0.147l-1.233,0.196    c-16.247,2.643-26.96,14.527-27.41,15.035l-0.42,0.466v3.656h-67.809v-6.03h3.91l-0.073-1.736    c-0.291-6.915-2.629-12.615-6.951-16.938l-2.115-2.118l0.721-0.021l-3.888-1.778c-0.421-0.214-0.724-0.344-0.887-0.415    l-54.326-24.836l0.002,0.03l-7.893-3.624l-0.6-0.386l-1.271-1.044L876.268,482.85z M846.709,453.799    c0-1.195,0.967-2.168,2.156-2.168l24.498,0.151l0.327,0.227c0.587,0.407,0.937,1.078,0.937,1.791v25.096    c0,1.187-0.971,2.151-2.164,2.151h-23.598c-1.189,0-2.156-0.965-2.156-2.151V453.799z"/>
		<path d="M925.729,878.15V694.664c0-9.516,7.746-17.257,17.266-17.257h79.179c9.523,0,17.27,7.741,17.27,17.257V878.15h3.339    V694.664c0-11.36-9.246-20.604-20.608-20.604h-79.179c-11.363,0-20.608,9.243-20.608,20.604V878.15H925.729z"/>
	</g>
	<g>
		<path fill="#FF7557" d="M852.159,478.349c-0.77,0.784-3.184,3.175-3.184,3.175l-3.468,3.263l-1.029,0.927    c-0.804,0.743-1.608,1.468-2.427,2.181l-0.063,0.054l-0.08,0.155l-0.176,0.063l-1.389,1.208c-0.631,0.545-1.262,1.078-1.903,1.606    l-5.381,4.357l-0.075,0.147l-0.185,0.05c-1.045,0.813-2.1,1.623-3.167,2.412l-1.353,0.989c-0.935,0.692-1.901,1.388-2.87,2.071    l-4.251,2.89c-0.486,0.336-0.993,0.667-1.512,0.99l-8.304,5.133c-1.254,0.738-2.539,1.46-3.835,2.177l-1.073,0.579l-9.647,4.902    c-0.539,0.264-1.08,0.512-1.623,0.763l-3.28,1.485l-1.991,0.847c-1.301,0.566-2.603,1.099-3.915,1.636l-2.078,0.826l-4.513,1.669    l-9.042,2.999c-1.753,0.532-3.493,1.031-5.25,1.509l-6.843,1.745c-0.664,0.163-1.371,0.331-2.088,0.486l-2.789,0.6l-2.267,0.457    l-3.663,0.688l-0.078,0.247c-2.214,7.163-8.998,12.17-16.494,12.17H612.217c-7.499,0-14.28-5.007-16.49-12.17l-0.078-0.247    l-3.69-0.688c-0.812-0.155-3.898-0.805-4.473-0.931l-3.047-0.696l-2.025-0.495c-1.149-0.285-1.938-0.478-2.709-0.695l-1.839-0.487    c-1.688-0.47-3.37-0.952-5.043-1.476l-11.568-3.913l-2.053-0.771l-2.116-0.843l-3.779-1.561c-0.862-0.365-1.736-0.742-2.602-1.128    l-2.214-1.007c-0.732-0.331-1.466-0.666-2.187-1.023c-0.675-0.306-1.353-0.637-2.036-0.969c-0.883-0.423-1.6-0.784-2.319-1.148    l-6.364-3.363c-1.302-0.705-2.6-1.456-3.898-2.206l-6.108-3.72l-1.96-1.259l-1.961-1.291l-3.963-2.714    c-0.971-0.68-1.942-1.384-2.913-2.097l-0.969-0.709c-1.252-0.914-2.493-1.854-3.722-2.81l-1.338-1.073    c-0.817-0.634-1.623-1.284-2.438-1.946l-3.569-2.999l-3.265-2.869l-1.887-1.715c-1.17-1.069-2.321-2.155-3.464-3.263l-0.818-0.81    c-0.826-0.805-1.64-1.606-2.451-2.44l-1.892-1.946c-0.694-0.726-3.021-3.221-3.021-3.221l-2.25-2.495l26.981,223.851h321.738    l26.995-223.876l-2.445,2.73L852.159,478.349z"/>
		<path fill="#FCFF8F" d="M488.815,470.855l1.359,1.451c0.654,0.7,1.311,1.388,1.981,2.063c0.386,0.424,0.757,0.801,1.143,1.191    c0.845,0.868,1.692,1.719,2.559,2.55l0.792,0.784c1.126,1.095,2.256,2.164,3.414,3.217c0,0,2.659,2.411,3.504,3.149l2.944,2.529    l2.298,1.908c0.728,0.591,3.813,3.044,3.813,3.044c1.337,1.027,2.338,1.791,3.355,2.537c0,0,2.839,2.067,3.806,2.751l5.647,3.813    c0.747,0.49,1.499,0.96,2.252,1.435c0.606,0.39,1.183,0.759,1.766,1.115l4.076,2.453c1.252,0.738,2.533,1.447,3.833,2.168    c0.487,0.265,0.969,0.529,1.453,0.776l9.048,4.592c0.717,0.349,1.44,0.688,2.145,0.998l2.183,0.998    c0.841,0.382,1.696,0.743,2.55,1.091c1.147,0.495,2.29,0.969,3.435,1.435l4.672,1.812l11.059,3.724    c1.633,0.508,3.277,0.981,4.934,1.435l1.799,0.495c0.927,0.239,1.688,0.44,2.441,0.612l4.86,1.17c0,0,3.827,0.797,4.722,0.973    l2.317,0.433l-0.021-1.011c0-1.955,0.325-3.867,0.964-5.688l0.166-0.465l-7.415-1.531c-2.91-0.658-5.825-1.396-8.667-2.185    c-1.331-0.365-2.535-0.722-3.715-1.078l-0.409-0.121l-0.017,0.05v-0.063l-0.782-0.227c-1.375-0.432-2.764-0.872-4.146-1.347    c-5.781-1.95-11.489-4.189-16.968-6.659l-0.654-0.29c-1.202-0.558-4.62-2.193-4.62-2.193c-1.107-0.54-2.204-1.094-3.3-1.656    l-1.244-0.658c-3.517-1.846-6.987-3.816-10.321-5.858l0.155-0.261l-0.673-0.523l-0.281,0.28c-1.107-0.671-2.005-1.232-2.906-1.828    l-1.365-0.889c-0.889-0.57-1.774-1.171-2.642-1.766l-3.078-2.135l-2.606-1.904c-0.795-0.575-1.596-1.17-2.386-1.778l-1.667-1.3    c-1.309-1.027-2.603-2.063-3.888-3.116l-1.967-1.656c-0.585-0.486-1.166-0.994-1.741-1.506c-0.82-0.696-1.465-1.271-2.111-1.849    l-3.481-3.221l-0.388-0.205h-0.076l-0.075-0.302c-0.336-0.314-0.673-0.637-1.007-0.964l0.212-0.369l-0.682-0.512l-0.203,0.214    l-3.363-3.355c-0.927-0.964-1.839-1.925-2.737-2.894l-1.394-1.514c-0.894-0.985-1.789-1.983-2.674-2.994l-3.324-3.921    l-3.198-4.009l-2.68-3.54l-1.751-2.395c-0.948-1.317-1.873-2.655-2.785-4.001c-20.522-30.375-31.369-65.838-31.369-102.55v-34.116    l-1.751,0.361c-0.728,0.092-1.315,0.138-1.896,0.138c-0.581,0-1.158-0.046-1.875-0.143c0,0-0.96-0.167-1.204-0.226l-0.526-0.122    v34.108c0,44.417,15.67,87.713,44.123,121.909c0.941,1.128,1.891,2.24,2.85,3.334C485.418,467.056,488.354,470.36,488.815,470.855    z"/>
		<path fill="#FCFF8F" d="M446.685,303.427c3.403-1.761,5.517-5.221,5.517-9.029v-27.574c0-5.599-4.554-10.153-10.151-10.153    c-5.603,0-10.16,4.554-10.16,10.153v27.574c0,3.833,2.131,7.301,5.561,9.046c1.39,0.705,2.98,1.078,4.599,1.078    C443.686,304.521,445.288,304.145,446.685,303.427z"/>
		<path fill="#379EFF" d="M730.875,514.906H612.217c-4.911,0-9.47,2.685-11.898,7.004c-1.124,2.021-1.717,4.315-1.717,6.635    c0,0.951,0.103,1.92,0.308,2.872c1.342,6.224,6.938,10.74,13.307,10.74h118.658c6.379,0,11.978-4.517,13.315-10.74    c0.205-0.977,0.308-1.945,0.308-2.872c0-2.235-0.553-4.45-1.602-6.413C740.354,517.586,735.797,514.906,730.875,514.906z"/>
		<path fill="#FF7557" d="M745.272,519.012l0.272-0.05c0.918-0.168,1.85-0.356,2.787-0.554c0,0,4.548-0.914,5.001-1.02    c3.055-0.691,5.997-1.43,8.748-2.201c1.528-0.437,2.848-0.818,4.156-1.217l0.7-0.222c1.356-0.411,2.715-0.852,4.053-1.296    c5.693-1.925,11.286-4.123,16.622-6.534l0.254-0.113l0.151-0.23l0.264-0.004c1.267-0.533,2.361-1.049,3.452-1.586l1.232-0.595    c1.025-0.504,3.944-1.992,3.944-1.992c3.638-1.908,7.249-3.959,10.738-6.098l0.205-0.126l0.115-0.23l0.153-0.009    c0.931-0.503,1.634-0.947,2.347-1.409l2.082-1.351c0.676-0.444,2.223-1.484,2.223-1.484v-0.143l0.082-0.004l1.631-1.032    c0.802-0.558,1.604-1.128,2.407-1.707l3.937-2.923l1.746-1.363c1.227-0.956,2.439-1.933,3.643-2.931l2.011-1.657l9.143-8.337    l3.495-3.519c0.946-0.96,1.866-1.925,2.774-2.911l1.269-1.38c0.892-0.981,1.77-1.971,2.645-2.965l3.25-3.854l2.839-3.531    l1.51-1.971c0.692-0.897,1.37-1.812,2.038-2.734l0.963-1.313c0.864-1.204,1.713-2.433,2.554-3.661l23.162-191.723H457.226    l23.091,191.546c0.912,1.422,1.766,2.646,2.631,3.85l4.16,5.561l1.829,2.311c0.155,0.138,0.298,0.306,0.405,0.499l0.96,1.195    c0.654,0.792,3.254,3.837,3.254,3.837c0.788,0.91,1.591,1.799,2.393,2.688l1.363,1.501c0.958,1.027,1.931,2.059,2.911,3.053    l1.535,1.564c0.648,0.654,2.732,2.701,2.732,2.701l0.896,0.852c0.637,0.612,1.285,1.208,1.929,1.795l1.793,1.652    c0.717,0.637,1.309,1.162,1.902,1.661c0.558,0.503,1.107,0.977,1.654,1.451l2.147,1.787c1.239,1.011,2.416,1.971,3.613,2.91    l0.371,0.046l0.111,0.34l1.351,1.057l3.936,2.911l2.164,1.535l2.132,1.472c0.751,0.511,1.5,1.015,2.256,1.509l1.354,0.864    c0.944,0.612,1.89,1.221,2.852,1.815l0.411,0.248c3.46,2.126,7.115,4.202,10.86,6.169l0.854,0.428    c1.04,0.55,2.105,1.086,3.175,1.606c0,0,3.399,1.64,4.563,2.177l0.654,0.293c5.375,2.424,10.913,4.601,16.461,6.476    c1.522,0.499,2.887,0.943,4.256,1.362l0.499,0.164c1.376,0.415,2.751,0.826,4.125,1.212c3.023,0.83,5.999,1.577,8.84,2.215    c0.608,0.138,2.963,0.604,2.963,0.604c1.648,0.348,3.296,0.684,4.953,0.981l0.272,0.046l0.157-0.227    c3.231-4.688,8.549-7.49,14.224-7.49h118.658c5.689,0,11.013,2.811,14.24,7.52L745.272,519.012z"/>
		<path fill="#FCFF8F" d="M902.205,308.145l-0.47,0.046l-0.883-0.046l-0.658-0.067l-0.835-0.122    c-0.369-0.067-0.576-0.109-0.781-0.16l-1.179-0.344v34.359c0,36.708-10.846,72.167-31.363,102.542    c-0.956,1.405-1.934,2.806-2.921,4.202l-0.927,1.25v0.348l-0.195-0.059l-1.82,2.433l-1.136,1.476l-0.047,0.369l-0.335,0.113    c-0.59,0.763-1.188,1.522-1.793,2.273l-4.563,5.448c-0.837,0.977-1.699,1.929-2.564,2.885l-1.215,1.33    c-0.998,1.078-2,2.139-3.021,3.174l-3.367,3.389l-3.915,3.732l-3.707,3.309l-0.082,0.164l-0.176,0.063l-1.661,1.442l-1.808,1.501    c-1.47,1.212-2.709,2.214-3.961,3.196l-2.126,1.648l-3.659,2.722l-2.471,1.749l-1.971,1.351l-2.231,1.484l-4.281,2.743    l-0.526,0.306c-0.572,0.36-1.155,0.7-1.738,1.04l-1.424,0.835c-2.963,1.74-5.441,3.115-7.805,4.349l-1.057,0.554l-4.215,2.101    c-1.164,0.558-2.325,1.111-3.498,1.648l-0.74,0.323c-5.292,2.398-10.914,4.613-16.716,6.58c-1.313,0.444-2.491,0.826-3.646,1.187    l-0.409,0.13l0.017,0.055l-0.375,0.059l-0.396,0.113c-1.47,0.457-2.86,0.868-4.27,1.271c-2.755,0.759-5.667,1.497-8.907,2.239    l-7.368,1.51l0.165,0.47c0.64,1.829,0.965,3.741,0.965,5.688l-0.021,0.989l0.521-0.075l1.78-0.332    c1.124-0.222,1.928-0.381,2.734-0.558l4.668-1.053l1.943-0.465l2.321-0.587l2.058-0.554c1.719-0.47,3.431-0.974,5.127-1.485    l8.884-2.939c0.659-0.239,4.427-1.648,4.427-1.648l5.889-2.398l2.442-1.065l2.199-0.998l2.107-0.989l9.147-4.63l1.039-0.566    c1.608-0.881,2.86-1.59,4.104-2.319c0,0,3.535-2.109,4.122-2.475l2.021-1.267c0.665-0.419,1.327-0.847,1.998-1.296l5.666-3.82    c0.948-0.654,1.885-1.338,2.82-2.017l1.013-0.751c1.227-0.897,2.424-1.812,3.606-2.73l1.699-1.342    c0.721-0.575,1.367-1.086,2.009-1.631c0,0,2.965-2.458,3.713-3.095l3.754-3.334v-0.176l0.031-0.004l1.084-0.831    c1.135-1.04,2.269-2.113,3.389-3.195l0.587-0.579l0.055-0.31l0.086-0.004c1.084-0.893,1.862-1.661,2.63-2.458l1.153-1.178    c0.729-0.755,3.133-3.313,3.133-3.313l0.054-0.36l0.363-0.097l2.961-3.309c1.031-1.183,2.061-2.382,3.08-3.59    c28.442-34.192,44.104-77.48,44.104-121.896V307.91l-0.463,0.038C903.434,308.074,902.819,308.137,902.205,308.145z"/>
		<path fill="#FF7557" d="M932.371,225.469c0-12.091-9.834-21.925-21.923-21.925H432.64c-12.084,0-21.915,9.834-21.915,21.925    c0,12.086,9.831,21.917,21.915,21.917h477.809C922.537,247.386,932.371,237.556,932.371,225.469z"/>
		<path fill="#FCFF8F" d="M896.519,303.075c0.426,0.252,0.897,0.44,1.396,0.625c1.34,0.537,2.709,0.81,4.058,0.81    c1.314,0,2.588-0.26,3.78-0.772c3.752-1.602,6.178-5.267,6.178-9.339v-27.574c0-5.599-4.559-10.153-10.159-10.153    c-5.599,0-10.155,4.554-10.155,10.153v27.574C891.616,297.958,893.448,301.2,896.519,303.075z"/>
		<path d="M905.259,249.034c14.095,0,25.563-11.47,25.563-25.565c0-13.517-10.588-24.714-24.088-25.49l-3.971-0.084l-478.425,0.013    l-2.942,0.747c-11.485,2.814-19.505,13.017-19.505,24.814c0,14.095,11.466,25.565,25.559,25.565h20.922l0.988,8.22l-0.791,0.276    c-2.546-4.072-6.924-6.508-11.709-6.508c-7.612,0-13.804,6.194-13.804,13.801v27.574c0,4.697,2.38,9.025,6.563,11.94v35.475    c0,45.003,15.815,88.942,44.626,123.938l27.817,230.754c0.113,0.91,0.891,1.603,1.813,1.603h324.967    c0.921,0,1.696-0.692,1.806-1.611l27.92-230.979c28.717-34.754,44.531-78.688,44.531-123.704v-35.291l0.221-0.122    c4.355-2.445,7.06-7.045,7.06-12.002v-27.574c0-7.607-6.189-13.801-13.799-13.801c-5.446,0-10.398,3.225-12.617,8.22l-0.817-0.227    l1.201-9.981H905.259z M450.656,292.398v-17.245l0.855-0.05l18.88,156.621l-0.795,0.272c-16.649-27.788-25.45-59.665-25.45-92.184    l0.197-35.869C448.297,301.381,450.656,297.065,450.656,292.398z M725.686,509.262H607.027c-5.674,0-10.992,2.802-14.224,7.49    l-0.157,0.227l-0.272-0.046c-1.656-0.298-3.305-0.634-4.953-0.981c0,0-2.355-0.466-2.963-0.604    c-2.841-0.638-5.817-1.385-8.84-2.215c-1.374-0.386-2.749-0.797-4.125-1.212l-0.499-0.164c-1.369-0.419-2.734-0.863-4.256-1.362    c-5.548-1.875-11.086-4.052-16.461-6.476l-0.654-0.293c-1.164-0.537-4.563-2.177-4.563-2.177    c-1.069-0.521-2.135-1.057-3.175-1.606l-0.854-0.428c-3.745-1.967-7.4-4.043-10.86-6.169l-0.411-0.248    c-0.962-0.595-1.908-1.203-2.852-1.815l-1.354-0.864c-0.757-0.495-1.505-0.998-2.256-1.51l-2.132-1.472l-2.164-1.535l-3.936-2.911    l-1.351-1.057l-0.111-0.34l-0.371-0.046c-1.197-0.939-2.374-1.899-3.613-2.91l-2.147-1.787c-0.547-0.474-1.097-0.948-1.654-1.451    c-0.593-0.499-1.185-1.023-1.902-1.661l-1.793-1.652c-0.644-0.587-1.292-1.183-1.929-1.795l-0.896-0.852    c0,0-2.084-2.046-2.732-2.701l-1.535-1.564c-0.979-0.994-1.953-2.026-2.911-3.053l-1.363-1.501    c-0.801-0.889-1.604-1.778-2.393-2.688c0,0-2.6-3.045-3.254-3.837l-0.96-1.195c-0.107-0.193-0.25-0.361-0.405-0.499l-1.829-2.311    l-4.16-5.561c-0.866-1.204-1.719-2.428-2.631-3.85l-23.091-191.546h428.645l-23.162,191.723c-0.841,1.229-1.689,2.458-2.554,3.661    l-0.963,1.313c-0.668,0.923-1.346,1.837-2.038,2.734l-1.51,1.971l-2.839,3.531l-3.25,3.854c-0.875,0.994-1.753,1.983-2.645,2.965    l-1.269,1.38c-0.908,0.985-1.828,1.95-2.774,2.911l-3.495,3.519l-9.143,8.337l-2.011,1.657c-1.203,0.998-2.416,1.975-3.643,2.931    l-1.746,1.363l-3.937,2.923c-0.803,0.579-1.605,1.149-2.407,1.707l-1.631,1.032l-0.082,0.004v0.143c0,0-1.547,1.04-2.223,1.485    l-2.082,1.35c-0.713,0.462-1.416,0.906-2.347,1.409l-0.153,0.009l-0.115,0.23l-0.205,0.126c-3.489,2.139-7.101,4.189-10.738,6.098    c0,0-2.919,1.488-3.944,1.992l-1.232,0.595c-1.091,0.537-2.186,1.053-3.452,1.586l-0.264,0.004l-0.151,0.23l-0.254,0.113    c-5.336,2.411-10.929,4.609-16.622,6.534c-1.338,0.444-2.696,0.885-4.053,1.296l-0.7,0.222c-1.309,0.398-2.628,0.78-4.156,1.217    c-2.751,0.771-5.693,1.51-8.748,2.201c-0.453,0.105-5.001,1.02-5.001,1.02c-0.938,0.197-1.869,0.386-2.787,0.554l-0.272,0.05    l-0.157-0.23C736.698,512.072,731.375,509.262,725.686,509.262z M739.309,526.545c0,0.927-0.103,1.896-0.308,2.872    c-1.338,6.224-6.937,10.74-13.315,10.74H607.027c-6.369,0-11.965-4.517-13.307-10.74c-0.206-0.952-0.308-1.921-0.308-2.872    c0-2.319,0.593-4.613,1.717-6.635c2.428-4.319,6.987-7.004,11.898-7.004h118.658c4.922,0,9.479,2.68,12.021,7.226    C738.756,522.095,739.309,524.31,739.309,526.545z M426.701,292.398v-27.574c0-5.599,4.557-10.153,10.16-10.153    c5.597,0,10.151,4.554,10.151,10.153v27.574c0,3.808-2.114,7.268-5.517,9.029c-1.397,0.717-2.999,1.094-4.634,1.094    c-1.619,0-3.208-0.373-4.599-1.078C428.832,299.699,426.701,296.231,426.701,292.398z M433.256,339.813v-34.108l0.526,0.122    c0.243,0.059,1.204,0.226,1.204,0.226c0.717,0.097,1.293,0.143,1.875,0.143c0.581,0,1.168-0.046,1.896-0.138l1.751-0.361v34.116    c0,36.712,10.847,72.175,31.369,102.55c0.912,1.346,1.837,2.684,2.785,4.001l1.751,2.395l2.68,3.54l3.198,4.009l3.324,3.921    c0.885,1.011,1.78,2.009,2.674,2.994l1.394,1.514c0.897,0.969,1.81,1.929,2.737,2.894l3.363,3.355l0.203-0.214l0.682,0.512    l-0.212,0.369c0.333,0.327,0.671,0.65,1.007,0.964l0.075,0.302h0.076l0.388,0.205l3.481,3.221    c0.646,0.579,1.292,1.153,2.111,1.849c0.575,0.512,1.156,1.02,1.741,1.506l1.967,1.656c1.285,1.053,2.579,2.089,3.888,3.116    l1.667,1.3c0.791,0.608,1.591,1.204,2.386,1.778l2.606,1.904l3.078,2.135c0.868,0.595,1.753,1.195,2.642,1.766l1.365,0.889    c0.901,0.596,1.799,1.157,2.906,1.828l0.281-0.28l0.673,0.523l-0.155,0.261c3.334,2.042,6.804,4.013,10.321,5.858l1.244,0.658    c1.097,0.563,2.193,1.116,3.3,1.656c0,0,3.418,1.636,4.62,2.193l0.654,0.29c5.479,2.47,11.187,4.709,16.968,6.659    c1.382,0.475,2.77,0.915,4.146,1.347l0.782,0.227v0.063l0.017-0.05l0.409,0.121c1.18,0.356,2.384,0.713,3.715,1.078    c2.841,0.788,5.756,1.526,8.667,2.185l7.415,1.531l-0.166,0.465c-0.64,1.82-0.964,3.732-0.964,5.688l0.021,1.011l-2.317-0.433    c-0.895-0.176-4.722-0.973-4.722-0.973l-4.86-1.17c-0.753-0.172-1.514-0.373-2.441-0.612l-1.799-0.495    c-1.656-0.453-3.3-0.927-4.934-1.435l-11.059-3.724l-4.672-1.812c-1.145-0.466-2.288-0.939-3.435-1.435    c-0.854-0.348-1.709-0.709-2.55-1.091l-2.183-0.998c-0.705-0.31-1.428-0.649-2.145-0.998l-9.048-4.592    c-0.484-0.247-0.966-0.512-1.453-0.776c-1.3-0.721-2.581-1.43-3.833-2.168l-4.076-2.453c-0.583-0.356-1.16-0.726-1.766-1.115    c-0.753-0.475-1.505-0.944-2.252-1.435l-5.647-3.813c-0.967-0.684-3.806-2.751-3.806-2.751c-1.017-0.746-2.018-1.51-3.355-2.537    c0,0-3.085-2.453-3.813-3.044l-2.298-1.908l-2.944-2.529c-0.845-0.738-3.504-3.149-3.504-3.149    c-1.157-1.053-2.288-2.122-3.414-3.217l-0.792-0.784c-0.866-0.831-1.713-1.682-2.559-2.55c-0.386-0.39-0.757-0.768-1.143-1.191    c-0.671-0.675-1.327-1.363-1.981-2.063l-1.359-1.451c-0.461-0.495-3.397-3.799-3.397-3.799c-0.958-1.095-1.908-2.206-2.85-3.334    C448.926,427.525,433.256,384.229,433.256,339.813z M827.226,692.463H505.488l-26.981-223.851l2.25,2.495    c0,0,2.328,2.496,3.021,3.221l1.892,1.946c0.812,0.834,1.625,1.635,2.451,2.44l0.818,0.81c1.143,1.107,2.294,2.193,3.464,3.263    l1.887,1.715l3.265,2.869l3.569,2.999c0.815,0.662,1.621,1.313,2.438,1.946l1.338,1.073c1.229,0.956,2.47,1.896,3.722,2.81    l0.969,0.709c0.971,0.713,1.941,1.417,2.913,2.097l3.963,2.714l1.961,1.291l1.96,1.259l6.108,3.72    c1.298,0.75,2.596,1.501,3.898,2.206l6.364,3.363c0.719,0.364,1.437,0.726,2.319,1.148c0.684,0.332,1.361,0.663,2.036,0.969    c0.721,0.357,1.455,0.692,2.187,1.023l2.214,1.007c0.866,0.386,1.74,0.763,2.602,1.128l3.779,1.561l2.116,0.843l2.053,0.771    l11.568,3.913c1.673,0.523,3.355,1.006,5.043,1.476l1.839,0.487c0.771,0.218,1.56,0.41,2.709,0.695l2.025,0.495l3.047,0.696    c0.575,0.126,3.661,0.775,4.473,0.931l3.69,0.688l0.078,0.247c2.21,7.163,8.992,12.17,16.49,12.17h118.658    c7.496,0,14.28-5.007,16.494-12.17l0.078-0.247l3.663-0.688l2.267-0.457l2.789-0.6c0.717-0.155,1.424-0.323,2.088-0.486    l6.843-1.745c1.757-0.478,3.497-0.977,5.25-1.509l9.042-2.999l4.513-1.669l2.078-0.826c1.313-0.537,2.614-1.069,3.915-1.636    l1.991-0.847l3.28-1.485c0.543-0.251,1.084-0.499,1.623-0.763l9.647-4.902l1.073-0.579c1.296-0.717,2.581-1.438,3.835-2.177    l8.304-5.133c0.519-0.323,1.025-0.654,1.512-0.99l4.251-2.89c0.969-0.684,1.936-1.379,2.87-2.071l1.353-0.989    c1.067-0.789,2.122-1.599,3.167-2.412l0.185-0.05l0.075-0.147l5.381-4.357c0.642-0.528,1.272-1.061,1.903-1.606l1.389-1.208    l0.176-0.063l0.08-0.155l0.063-0.054c0.818-0.713,1.623-1.438,2.427-2.181l1.029-0.927l3.468-3.263c0,0,2.414-2.391,3.184-3.175    l4.806-5.032l2.445-2.73L827.226,692.463z M899.452,339.813c0,44.417-15.661,87.705-44.104,121.896    c-1.02,1.208-2.049,2.407-3.08,3.59l-2.961,3.309l-0.363,0.097l-0.054,0.36c0,0-2.403,2.559-3.133,3.313l-1.153,1.178    c-0.768,0.797-1.546,1.564-2.63,2.458l-0.086,0.004l-0.055,0.31l-0.587,0.579c-1.12,1.082-2.254,2.155-3.389,3.195l-1.084,0.831    l-0.031,0.004v0.176l-3.754,3.334c-0.748,0.638-3.713,3.095-3.713,3.095c-0.642,0.545-1.288,1.057-2.009,1.631l-1.699,1.342    c-1.183,0.919-2.38,1.833-3.606,2.73l-1.013,0.751c-0.936,0.679-1.872,1.362-2.82,2.017l-5.666,3.82    c-0.671,0.449-1.333,0.877-1.998,1.296l-2.021,1.267c-0.587,0.365-4.122,2.475-4.122,2.475c-1.244,0.729-2.496,1.438-4.104,2.319    l-1.039,0.566l-9.147,4.63l-2.107,0.989l-2.199,0.998l-2.442,1.065l-5.889,2.398c0,0-3.768,1.409-4.427,1.648l-8.884,2.939    c-1.696,0.512-3.408,1.016-5.127,1.485l-2.058,0.554l-2.321,0.587l-1.943,0.465l-4.668,1.053c-0.807,0.177-1.61,0.336-2.734,0.558    l-1.78,0.332l-0.521,0.075l0.021-0.989c0-1.946-0.325-3.858-0.965-5.688l-0.165-0.47l7.368-1.51    c3.24-0.742,6.152-1.48,8.907-2.239c1.409-0.402,2.8-0.813,4.27-1.271l0.396-0.113l0.375-0.059l-0.017-0.055l0.409-0.13    c1.155-0.36,2.334-0.742,3.646-1.187c5.802-1.967,11.424-4.182,16.716-6.58l0.74-0.323c1.173-0.537,2.334-1.091,3.498-1.648    l4.215-2.101l1.057-0.554c2.363-1.233,4.842-2.608,7.805-4.349l1.424-0.835c0.583-0.34,1.166-0.68,1.738-1.04l0.526-0.306    l4.281-2.743l2.231-1.484l1.971-1.351l2.471-1.749l3.659-2.722l2.126-1.648c1.252-0.981,2.491-1.984,3.961-3.196l1.808-1.501    l1.661-1.442l0.176-0.063l0.082-0.164l3.707-3.309l3.915-3.732l3.367-3.389c1.021-1.036,2.023-2.097,3.021-3.174l1.215-1.33    c0.865-0.956,1.728-1.908,2.564-2.885l4.563-5.448c0.605-0.75,1.203-1.51,1.793-2.273l0.335-0.113l0.047-0.369l1.136-1.476    l1.82-2.433l0.195,0.059v-0.348l0.927-1.25c0.987-1.396,1.965-2.797,2.921-4.202c20.518-30.375,31.363-65.833,31.363-102.542    v-34.359l1.179,0.344c0.205,0.051,0.412,0.092,0.781,0.16l0.835,0.122l0.658,0.067l0.883,0.046l0.47-0.046    c0.614-0.008,1.229-0.071,1.974-0.197l0.463-0.038V339.813z M886.427,264.824c0-5.599,4.557-10.153,10.155-10.153    c5.601,0,10.159,4.554,10.159,10.153v27.574c0,4.072-2.426,7.738-6.178,9.339c-1.192,0.512-2.466,0.772-3.78,0.772    c-1.349,0-2.718-0.273-4.058-0.81c-0.499-0.185-0.971-0.373-1.396-0.625c-3.07-1.875-4.902-5.116-4.902-8.677V264.824z     M888.569,303.797v36.016c0,32.502-8.796,64.375-25.438,92.175l-0.794-0.273l19.593-162.609l0.855,0.05v23.242    C882.786,296.793,884.831,300.819,888.569,303.797z M427.45,245.386c-12.084,0-21.915-9.83-21.915-21.917    c0-12.091,9.831-21.925,21.915-21.925h477.809c12.089,0,21.923,9.834,21.923,21.925c0,12.086-9.834,21.917-21.923,21.917H427.45z"/>
	</g>
	<g>
		<rect x="451.323" y="414.759" fill="#FF7557" width="12.875" height="1.799"/>
		<rect x="451.323" y="431.631" fill="#FF7557" width="12.875" height="64.646"/>
		<path fill="#FF7557" d="M468.836,416.558h24.538c2.273,0,4.123-1.841,4.123-4.114c0-2.265-1.85-4.11-4.123-4.11h-69.168    c-2.273,0-4.123,1.845-4.123,4.11c0,2.273,1.85,4.114,4.123,4.114h22.475v-6.437h22.156V416.558z"/>
		<rect x="451.323" y="422.09" fill="#FF7557" width="12.875" height="4.902"/>
		<polygon fill="#379EFF" points="446.68,500.933 434.531,500.933 439.245,586.293 446.68,586.293 468.836,586.293 476.263,586.293     480.977,500.933 468.836,500.933   "/>
		<rect x="451.323" y="590.927" fill="#FF7557" width="12.875" height="267.727"/>
		<path fill="#FF7557" d="M557.786,386.305c0-1.799-1.463-3.271-3.25-3.271H360.985c-1.791,0-3.254,1.472-3.254,3.271    c0,1.786,1.463,3.233,3.254,3.233h193.551C556.322,389.538,557.786,388.091,557.786,386.305z"/>
		<path fill="#FFFFFF" d="M620.633,334.457H294.882c-25.515,0-46.274,20.759-46.274,46.266c0,25.506,20.759,46.27,46.274,46.27    H446.68v-4.902H304.826c-6.55,0-11.885-5.351-11.885-11.889v-36.649c0-6.551,5.334-11.877,11.885-11.877h305.86    c6.546,0,11.876,5.326,11.876,11.877v36.649c0,6.538-5.33,11.889-11.876,11.889h-141.85v4.902h151.797    c25.519,0,46.27-20.763,46.27-46.27C666.903,355.216,646.152,334.457,620.633,334.457z"/>
		<path fill="#FCFF8F" d="M424.206,403.696h69.168c4.835,0,8.761,3.926,8.761,8.749c0,1.858-0.579,3.569-1.564,4.982h110.116    c3.984,0,7.23-3.25,7.23-7.226v-36.649c0-3.997-3.246-7.239-7.23-7.239h-305.86c-3.988,0-7.238,3.242-7.238,7.239v36.649    c0,3.976,3.25,7.226,7.238,7.226h112.184c-0.981-1.413-1.568-3.124-1.568-4.982C415.441,407.622,419.37,403.696,424.206,403.696z     M360.985,394.188c-4.354,0-7.897-3.535-7.897-7.884c0-4.366,3.543-7.91,7.897-7.91h193.551c4.345,0,7.888,3.543,7.888,7.91    c0,4.349-3.543,7.884-7.888,7.884H360.985z"/>
		<path d="M615.444,327.81H289.693c-28.069,0-50.925,22.831-50.925,50.913c0,28.073,22.856,50.908,50.925,50.908h151.798v64.646    h-17.056l5.217,94.649h11.839v267.727v4.034h4.643h12.875h4.639v-4.034V588.927h11.818l5.229-94.649h-17.047v-64.646h151.797    c28.078,0,50.913-22.835,50.913-50.908C666.356,350.641,643.521,327.81,615.444,327.81z M459.008,856.653h-12.875V588.927h12.875    V856.653z M475.787,498.933l-4.713,85.36h-7.427h-22.156h-7.436l-4.714-85.36h12.149h22.156H475.787z M459.008,420.09v4.902    h-12.875v-4.902H459.008z M446.133,414.558v-1.799h12.875v1.799H446.133z M459.008,429.631v64.646h-12.875v-64.646H459.008z     M441.491,408.121v6.437h-22.475c-2.273,0-4.123-1.841-4.123-4.114c0-2.265,1.85-4.11,4.123-4.11h69.168    c2.273,0,4.123,1.845,4.123,4.11c0,2.273-1.85,4.114-4.123,4.114h-24.538v-6.437H441.491z M411.82,415.426H299.636    c-3.988,0-7.238-3.25-7.238-7.226v-36.649c0-3.997,3.25-7.239,7.238-7.239h305.86c3.984,0,7.23,3.242,7.23,7.239v36.649    c0,3.976-3.246,7.226-7.23,7.226H495.381c0.985-1.413,1.564-3.124,1.564-4.982c0-4.823-3.925-8.749-8.761-8.749h-69.168    c-4.835,0-8.765,3.926-8.765,8.749C410.251,412.302,410.838,414.013,411.82,415.426z M615.444,424.992H463.646v-4.902h141.85    c6.546,0,11.876-5.351,11.876-11.889v-36.649c0-6.551-5.33-11.877-11.876-11.877h-305.86c-6.55,0-11.885,5.326-11.885,11.877    v36.649c0,6.538,5.334,11.889,11.885,11.889h141.854v4.902H289.693c-25.515,0-46.274-20.763-46.274-46.27    c0-25.507,20.759-46.266,46.274-46.266h325.751c25.519,0,46.27,20.759,46.27,46.266    C661.714,404.229,640.963,424.992,615.444,424.992z"/>
		<path d="M557.234,384.305c0-4.366-3.543-7.91-7.888-7.91H355.795c-4.354,0-7.897,3.543-7.897,7.91    c0,4.349,3.543,7.884,7.897,7.884h193.551C553.691,392.188,557.234,388.653,557.234,384.305z M352.541,384.305    c0-1.799,1.463-3.271,3.254-3.271h193.551c1.787,0,3.25,1.472,3.25,3.271c0,1.786-1.463,3.233-3.25,3.233H355.795    C354.004,387.538,352.541,386.091,352.541,384.305z"/>
	</g>
	<g>
		<path fill="#FCFF8F" d="M161.347,880.15h115.918c3.189-8.618,6.236-17.563,9.079-26.781h-59.828    c-27.178,0-49.29-22.114-49.29-49.298v-20.939c0-27.181,22.112-49.294,49.29-49.294h67.497    c-12.573-24.211-36.394-34.171-54.611-38.251h-40.189c-29.044,6.5-75.224,28.765-60.29,104.806    C139,800.838,145.609,837.63,161.347,880.15z"/>
		<path fill="#FCFF8F" d="M202.347,680.766c-0.235,0-0.47-0.008-0.709-0.021v10.547h35.354v-10.547    c-0.243,0.013-0.484,0.021-0.721,0.021H202.347z"/>
		<path fill="#FF7557" d="M199.96,676.178c0.877,0.197,1.659,0.294,2.387,0.294h33.923c0.738,0,1.501-0.093,2.403-0.294    c4.888-1.124,8.312-5.414,8.312-10.422v-15.533c0-5.905-4.806-10.711-10.715-10.711h-9.323H211.67h-9.323    c-5.905,0-10.707,4.806-10.707,10.711v15.533c0,5.004,3.42,9.29,8.318,10.422H199.96z M233.637,647.845    c0-1.187,0.96-2.147,2.147-2.147c1.187,0,2.147,0.961,2.147,2.147v20.294c0,1.187-0.96,2.146-2.147,2.146    c-1.187,0-2.147-0.96-2.147-2.146V647.845z M222.653,647.845c0-1.187,0.96-2.147,2.147-2.147c1.187,0,2.147,0.961,2.147,2.147    v20.294c0,1.187-0.96,2.146-2.147,2.146c-1.187,0-2.147-0.96-2.147-2.146V647.845z M211.67,647.845    c0-1.187,0.96-2.147,2.147-2.147s2.147,0.961,2.147,2.147v20.294c0,1.187-0.96,2.146-2.147,2.146s-2.147-0.96-2.147-2.146V647.845    z M200.686,647.845c0-1.187,0.96-2.147,2.147-2.147c1.187,0,2.147,0.961,2.147,2.147v20.294c0,1.187-0.96,2.146-2.147,2.146    c-1.187,0-2.147-0.96-2.147-2.146V647.845z"/>
		<path fill="#FFFFFF" d="M222.653,614.416c-2.271-0.008-4.504,0.185-6.689,0.616v20.185h6.689V614.416z"/>
		<path fill="#FFFFFF" d="M226.516,738.133c-24.811,0-44.995,20.185-44.995,44.999v20.939c0,24.814,20.185,45.003,44.995,45.003    h61.133c8.341-27.896,12.011-48.434,12.048-48.64c4.842-24.643,3.613-45.577-3.642-62.302H226.516z M250.084,826.521    c-18.15,0-32.917-14.767-32.917-32.917c0-18.155,14.767-32.921,32.917-32.921c18.151,0,32.917,14.766,32.917,32.921    C283.001,811.754,268.235,826.521,250.084,826.521z"/>
		<path fill="#379EFF" d="M250.084,764.977c-15.783,0-28.623,12.842-28.623,28.627c0,15.781,12.839,28.622,28.623,28.622    s28.623-12.841,28.623-28.622C278.707,777.818,265.868,764.977,250.084,764.977z"/>
		<path d="M197.644,668.285c1.187,0,2.147-0.96,2.147-2.146v-20.294c0-1.187-0.96-2.147-2.147-2.147    c-1.187,0-2.147,0.961-2.147,2.147v20.294C195.497,667.325,196.457,668.285,197.644,668.285z"/>
		<path d="M208.627,668.285c1.187,0,2.147-0.96,2.147-2.146v-20.294c0-1.187-0.96-2.147-2.147-2.147s-2.147,0.961-2.147,2.147    v20.294C206.48,667.325,207.44,668.285,208.627,668.285z"/>
		<path d="M219.611,668.285c1.187,0,2.147-0.96,2.147-2.146v-20.294c0-1.187-0.96-2.147-2.147-2.147    c-1.187,0-2.147,0.961-2.147,2.147v20.294C217.464,667.325,218.424,668.285,219.611,668.285z"/>
		<path d="M230.594,668.285c1.187,0,2.147-0.96,2.147-2.146v-20.294c0-1.187-0.96-2.147-2.147-2.147    c-1.187,0-2.147,0.961-2.147,2.147v20.294C228.447,667.325,229.408,668.285,230.594,668.285z"/>
		<path d="M151.58,878.15h4.578c-15.737-42.521-22.347-79.313-22.424-79.758c-14.934-76.041,31.246-98.306,60.29-104.806h40.189    c18.218,4.08,42.039,14.04,54.611,38.251h-67.497c-27.178,0-49.29,22.113-49.29,49.294v20.939    c0,27.184,22.112,49.298,49.29,49.298h59.828c-2.843,9.218-5.89,18.163-9.079,26.781h4.559c3.16-8.635,6.179-17.572,8.998-26.781    h0.019l0.461-1.527l0.839-2.768h-0.017c8.152-27.516,11.764-47.684,11.795-47.851c4.85-24.677,3.687-45.847-3.305-63.091h0.18    l-1.392-3.041l-0.575-1.254h-0.061c-12.835-26.655-37.998-37.681-57.48-42.215V677.83c5.951-2.104,9.994-7.645,9.994-14.074    v-15.533c0-8.274-6.733-15.006-15.009-15.006h-9.323v-20.503c3.112,0.461,6.378,1.396,9.746,3.053    c1.063,0.537,2.351,0.089,2.875-0.977c0.522-1.065,0.086-2.353-0.979-2.873c-4.039-1.987-7.941-3.062-11.642-3.548v-0.021    l-0.526-0.037c-14.051-1.623-24.949,5.624-27.665,7.646h-23.309c-1.187,0-2.147,0.96-2.147,2.146c0,1.188,0.96,2.147,2.147,2.147    h24.043l0.767-0.004l0.594-0.482c0.333-0.272,4.445-3.548,10.818-5.653v19.106h-9.323c-8.272,0-15.001,6.731-15.001,15.006v15.533    c0,6.425,4.041,11.961,9.998,14.074v11.785c-30.614,7.108-78.115,30.786-62.642,109.566    C129.581,799.584,136.092,835.873,151.58,878.15z M294.507,798.435c-0.038,0.206-3.707,20.743-12.048,48.64h-61.133    c-24.811,0-44.995-20.188-44.995-45.003v-20.939c0-24.814,20.185-44.999,44.995-44.999h69.539    C298.121,752.857,299.349,773.792,294.507,798.435z M231.802,689.292h-35.354v-10.547c0.239,0.013,0.474,0.021,0.709,0.021h33.923    c0.237,0,0.478-0.008,0.721-0.021V689.292z M210.774,613.032c2.185-0.432,4.418-0.624,6.689-0.616v20.801h-6.689V613.032z     M186.451,663.756v-15.533c0-5.905,4.802-10.711,10.707-10.711h33.923c5.909,0,10.715,4.806,10.715,10.711v15.533    c0,5.008-3.424,9.298-8.312,10.422c-0.902,0.201-1.665,0.294-2.403,0.294h-33.923c-0.728,0-1.51-0.097-2.387-0.294h-0.002    C189.871,673.046,186.451,668.76,186.451,663.756z"/>
		<path d="M244.895,758.683c-18.15,0-32.917,14.766-32.917,32.921c0,18.15,14.767,32.917,32.917,32.917    c18.151,0,32.917-14.767,32.917-32.917C277.812,773.448,263.046,758.683,244.895,758.683z M244.895,820.226    c-15.783,0-28.623-12.841-28.623-28.622c0-15.785,12.839-28.627,28.623-28.627s28.623,12.842,28.623,28.627    C273.518,807.385,260.678,820.226,244.895,820.226z"/>
	</g>
	<g>
		<path fill="#BCBEC0" d="M554.913,785.232c10.337,1.162,17.169,1.162,27.507,0c51.751-5.829,90.778-43.804,90.778-88.333v-22.445    H464.118v22.445C464.118,741.441,503.151,779.416,554.913,785.232z"/>
		<path fill="#BCBEC0" d="M682.189,670.16c13.896,0,25.2-9.541,25.2-21.271c0-11.726-11.304-21.267-25.2-21.267h-227.05    c-13.896,0-25.201,9.541-25.201,21.267c0,11.73,11.305,21.271,25.201,21.271h4.684h217.669H682.189z"/>
		<path fill="#FCFF8F" d="M580.596,880.15v-90.405c-0.162,0.017-0.298,0.021-0.457,0.038c-1.797,0.167-3.525,0.31-5.18,0.402    c-0.484,0.029-0.971,0.046-1.447,0.067c-1.313,0.059-2.604,0.101-3.869,0.108c-0.625,0.009-1.269,0.009-1.894,0    c-1.3-0.008-2.627-0.05-3.98-0.108c-0.44-0.021-0.889-0.034-1.335-0.063c-1.699-0.097-3.475-0.239-5.324-0.415    c-0.124-0.013-0.227-0.017-0.35-0.029l-0.008,90.405H580.596z"/>
		<path d="M677,621.328H449.95c-16.264,0-29.495,11.466-29.495,25.561c0,14.096,13.231,25.565,29.495,25.565h4.684v-4.294h-4.684    c-13.896,0-25.201-9.541-25.201-21.271c0-11.726,11.305-21.267,25.201-21.267H677c13.896,0,25.2,9.541,25.2,21.267    c0,11.73-11.304,21.271-25.2,21.271h-4.697v4.294H677c16.264,0,29.495-11.47,29.495-25.565    C706.495,632.794,693.264,621.328,677,621.328z"/>
		<path d="M549.724,783.232c10.337,1.17,17.171,1.17,27.507,0C566.893,784.395,560.061,784.395,549.724,783.232z"/>
		<path d="M557.245,788.189c0.446,0.029,0.896,0.042,1.335,0.063C558.136,788.231,557.696,788.215,557.245,788.189z"/>
		<path d="M568.323,788.253c0.476-0.021,0.962-0.038,1.447-0.067C569.281,788.215,568.803,788.231,568.323,788.253z"/>
		<path d="M575.406,878.15h4.294v-90.955c-0.671,0.089-1.317,0.231-1.99,0.307c-0.954,0.104-1.855,0.192-2.761,0.281    c0.159-0.018,0.295-0.021,0.457-0.038V878.15z"/>
		<path d="M551.563,878.15l0.008-90.405c0.124,0.013,0.227,0.017,0.35,0.029c-0.88-0.088-1.751-0.168-2.676-0.272    c-0.675-0.075-1.321-0.218-1.992-0.307v90.955H551.563z"/>
		<path d="M564.454,788.361c-0.327,0.004-0.661,0.017-0.983,0.017c-0.3,0-0.608-0.013-0.91-0.017    C563.186,788.37,563.829,788.37,564.454,788.361z"/>
		<path d="M547.316,785.459l0.285-2.075l2.122-0.151c-51.762-5.816-90.795-43.791-90.795-88.333v-22.445h-4.294v22.445    c0,46.148,39.688,85.485,92.62,92.296v-0.969C547.253,785.967,547.283,785.711,547.316,785.459z"/>
		<path d="M551.921,787.774c1.85,0.176,3.625,0.318,5.324,0.415C555.542,788.089,553.783,787.95,551.921,787.774z"/>
		<path d="M668.009,694.899c0,44.529-39.027,82.504-90.778,88.333l2.25-0.252l0.132,2.261c0.059,0.462,0.088,0.722,0.088,0.985    v0.969c52.919-6.823,92.603-46.16,92.603-92.296v-22.445h-4.294V694.899z"/>
		<path d="M564.454,788.361c1.265-0.008,2.556-0.05,3.869-0.108C567.015,788.315,565.729,788.354,564.454,788.361z"/>
		<path d="M558.581,788.253c1.353,0.059,2.68,0.101,3.98,0.108C561.25,788.354,559.927,788.315,558.581,788.253z"/>
		<path d="M569.77,788.186c1.655-0.093,3.382-0.235,5.18-0.402C573.142,787.955,571.428,788.089,569.77,788.186z"/>
		<polygon points="454.634,668.16 454.634,672.454 458.928,672.454 668.009,672.454 672.303,672.454 672.303,668.16   "/>
		<path d="M579.612,785.241l-0.132-2.261l-2.25,0.252c-10.335,1.17-17.169,1.17-27.507,0l-2.122,0.151l-0.285,2.075    c-0.034,0.252-0.063,0.508-0.063,0.768v0.969c0.671,0.089,1.317,0.231,1.992,0.307c0.925,0.104,1.795,0.185,2.676,0.272    c1.862,0.176,3.622,0.314,5.324,0.415c0.451,0.025,0.891,0.042,1.335,0.063c1.346,0.063,2.669,0.101,3.98,0.108    c0.302,0.004,0.61,0.017,0.91,0.017c0.323,0,0.656-0.013,0.983-0.017c1.275-0.008,2.561-0.046,3.869-0.108    c0.48-0.021,0.958-0.038,1.447-0.067c1.659-0.097,3.372-0.23,5.18-0.402c0.906-0.089,1.807-0.177,2.761-0.281    c0.673-0.075,1.319-0.218,1.99-0.307v-0.969C579.701,785.963,579.671,785.703,579.612,785.241z"/>
	</g>
	<g>
		<rect x="702.814" y="614.164" fill="#379EFF" width="118.855" height="180.45"/>
		<path fill="#FFFFFF" d="M665.131,818.016l-11.954,11.029c-2.263,2.089-4.249,6.622-4.249,9.696v41.409h52.242v-26.295    c0-1.188,0.96-2.147,2.147-2.147c1.187,0,2.146,0.96,2.146,2.147v26.295h55.048v-26.295c0-1.188,0.96-2.147,2.147-2.147    c1.187,0,2.146,0.96,2.146,2.147v26.295h55.048v-26.295c0-1.188,0.96-2.147,2.147-2.147c1.187,0,2.146,0.96,2.146,2.147v26.295    h52.246v-41.409c0-3.079-1.983-7.607-4.244-9.696l-11.956-11.029c-3.158-2.915-5.628-8.564-5.628-12.858V633.85    c0-3.925,1.137-10.098,2.535-13.76l17.037-44.55c1.019-2.659,0.176-6.803-1.804-8.87L796,487.357    c-2.145-2.231-6.735-4.189-9.826-4.189h-47.024c-3.095,0-7.686,1.958-9.824,4.186l-76.337,79.32    c-1.979,2.06-2.824,6.203-1.805,8.866l17.033,44.55c1.405,3.662,2.546,9.835,2.546,13.76v171.308    C670.762,809.447,668.29,815.097,665.131,818.016z M698.52,609.87h127.445v189.038H698.52V609.87z"/>
		<path fill="#FCFF8F" d="M736.629,420.933c1.187,0,2.147,0.96,2.147,2.147v34.8h21.736v-34.8c0-1.187,0.96-2.147,2.147-2.147    c1.187,0,2.146,0.96,2.146,2.147v34.8h21.74v-34.8c0-1.187,0.961-2.147,2.147-2.147c1.188,0,2.147,0.96,2.147,2.147v34.8h8.3    v-45.242h-73.803v45.242h9.143v-34.8C734.481,421.893,735.442,420.933,736.629,420.933z"/>
		<polygon fill="#FCFF8F" points="762.66,462.174 738.776,462.174 738.776,478.874 739.149,478.874 785.709,478.874     785.709,462.174   "/>
		<path d="M867.146,564.67c1.979,2.067,2.822,6.211,1.804,8.87l-17.037,44.55c-1.398,3.662-2.535,9.835-2.535,13.76v171.308    c0,4.294,2.47,9.943,5.628,12.858l11.956,11.029c2.261,2.089,4.244,6.617,4.244,9.696v41.409h4.295v-41.409    c0-4.295-2.473-9.939-5.628-12.851l-11.955-11.029c-2.263-2.093-4.246-6.626-4.246-9.704V631.85c0-3.43,1.032-9.028,2.252-12.225    l17.035-44.55c1.619-4.224,0.428-10.099-2.713-13.379l-76.34-79.316c-2.137-2.223-5.678-4.084-9.092-4.961v3.749h-3.829    c3.091,0,7.682,1.958,9.826,4.189L867.146,564.67z"/>
		<path d="M657.029,812.861l-11.952,11.029c-3.158,2.915-5.632,8.56-5.632,12.851v41.409h4.294v-41.409    c0-3.074,1.986-7.607,4.249-9.696l11.954-11.029c3.158-2.919,5.63-8.568,5.63-12.858V631.85c0-3.925-1.141-10.098-2.546-13.76    l-17.033-44.55c-1.019-2.663-0.174-6.807,1.805-8.866l76.337-79.32c2.139-2.227,6.729-4.186,9.824-4.186h-4.668v-3.515    c-3.147,0.952-6.295,2.684-8.253,4.727l-76.335,79.316c-3.144,3.271-4.339,9.147-2.722,13.379l17.035,44.55    c1.225,3.2,2.261,8.799,2.261,12.225v171.308C661.278,806.235,659.292,810.769,657.029,812.861z"/>
		<path d="M729.292,455.879h-9.143v-45.242h73.803v45.242h-8.3v2.147c0,0.684-0.34,1.266-0.839,1.661v0.486h13.433v-53.831h-82.391    v53.831h13.437v-2.147V455.879z"/>
		<path d="M733.587,476.874v-16.7h-2.147h-2.147v17.479c1.608-0.486,3.219-0.78,4.668-0.78H733.587z"/>
		<path d="M780.52,460.174v16.7h0.465c1.197,0,2.504,0.206,3.829,0.545v-17.245h-1.309H780.52z"/>
		<path d="M733.96,481.168h47.024h3.829v-3.749c-1.325-0.34-2.632-0.545-3.829-0.545h-0.465h-46.56c-1.449,0-3.06,0.293-4.668,0.78    v3.515H733.96z"/>
		<path d="M781.357,458.027v-2.147h-21.74v2.147c0,1.187-0.96,2.147-2.146,2.147h23.049h2.985    C782.318,460.174,781.357,459.213,781.357,458.027z"/>
		<path d="M755.323,458.027v-2.147h-21.736v2.147c0,1.187-0.961,2.147-2.147,2.147h2.147h23.884    C756.283,460.174,755.323,459.213,755.323,458.027z"/>
		<path d="M729.292,458.027v2.147h2.147C730.253,460.174,729.292,459.213,729.292,458.027z"/>
		<path d="M783.505,460.174h1.309v-0.486C784.449,459.973,784.006,460.174,783.505,460.174z"/>
		<path d="M733.587,421.08c0-1.187-0.961-2.147-2.147-2.147s-2.147,0.96-2.147,2.147v34.8h4.295V421.08z"/>
		<path d="M733.587,458.027v-2.147h-4.295v2.147c0,1.187,0.961,2.147,2.147,2.147S733.587,459.213,733.587,458.027z"/>
		<path d="M759.617,421.08c0-1.187-0.96-2.147-2.146-2.147c-1.188,0-2.147,0.96-2.147,2.147v34.8h4.294V421.08z"/>
		<path d="M759.617,458.027v-2.147h-4.294v2.147c0,1.187,0.96,2.147,2.147,2.147C758.657,460.174,759.617,459.213,759.617,458.027z"/>
		<path d="M783.505,418.933c-1.187,0-2.147,0.96-2.147,2.147v34.8h3.456h0.839v-34.8    C785.652,419.893,784.692,418.933,783.505,418.933z"/>
		<path d="M784.813,459.688c0.499-0.395,0.839-0.977,0.839-1.661v-2.147h-0.839V459.688z"/>
		<path d="M781.357,455.879v2.147c0,1.187,0.961,2.147,2.147,2.147c0.501,0,0.944-0.201,1.309-0.486v-3.808H781.357z"/>
		<path d="M693.331,796.908h127.445V607.87H693.331V796.908z M697.625,612.164H816.48v180.45H697.625V612.164z"/>
		<path d="M700.275,878.15v-26.295c0-1.188-0.96-2.147-2.147-2.147s-2.147,0.96-2.147,2.147v26.295H700.275z"/>
		<path d="M759.617,878.15v-26.295c0-1.188-0.96-2.147-2.146-2.147c-1.188,0-2.147,0.96-2.147,2.147v26.295H759.617z"/>
		<path d="M818.959,878.15v-26.295c0-1.188-0.96-2.147-2.146-2.147c-1.188,0-2.147,0.96-2.147,2.147v26.295H818.959z"/>
	</g>
	<g>
		<path d="M1285.969,878.31H94.569c-1.187,0-2.147-0.96-2.147-2.147c0-1.187,0.96-2.147,2.147-2.147h1191.399    c1.188,0,2.147,0.961,2.147,2.147C1288.116,877.35,1287.156,878.31,1285.969,878.31z"/>
	</g>
</g>
</svg>
