<?xml version="1.0" encoding="UTF-8"?>
<svg xmlns="http://www.w3.org/2000/svg" xmlns:xlink="http://www.w3.org/1999/xlink" width="2000" height="2000" viewBox="0 0 2000 2000">

<path fill-rule="evenodd" fill="rgb(95.701599%, 96.875%, 98.046875%)" fill-opacity="1" d="M 1908.238281 1915.15625 L 1889.179688 1915.15625 C 1888.300781 1915.15625 1887.589844 1915.871094 1887.589844 1916.746094 L 1887.589844 1935.800781 C 1887.589844 1936.679688 1888.300781 1937.394531 1889.179688 1937.394531 L 1908.238281 1937.394531 C 1909.109375 1937.394531 1909.828125 1936.679688 1909.828125 1935.800781 L 1909.828125 1916.746094 C 1909.828125 1915.871094 1909.109375 1915.15625 1908.238281 1915.15625 "/>
<path fill-rule="evenodd" fill="rgb(95.701599%, 96.875%, 98.046875%)" fill-opacity="1" d="M 1865.28125 1916.171875 L 1847.089844 1916.171875 C 1846.261719 1916.171875 1845.578125 1916.855469 1845.578125 1917.691406 L 1845.578125 1935.875 C 1845.578125 1936.710938 1846.261719 1937.394531 1847.089844 1937.394531 L 1865.28125 1937.394531 C 1866.109375 1937.394531 1866.800781 1936.710938 1866.800781 1935.875 L 1866.800781 1917.691406 C 1866.800781 1916.855469 1866.109375 1916.171875 1865.28125 1916.171875 "/>
<path fill-rule="evenodd" fill="rgb(95.701599%, 96.875%, 98.046875%)" fill-opacity="1" d="M 1822.320312 1917.1875 L 1805.011719 1917.1875 C 1804.210938 1917.1875 1803.558594 1917.839844 1803.558594 1918.636719 L 1803.558594 1935.949219 C 1803.558594 1936.742188 1804.210938 1937.394531 1805.011719 1937.394531 L 1822.320312 1937.394531 C 1823.121094 1937.394531 1823.769531 1936.742188 1823.769531 1935.949219 L 1823.769531 1918.636719 C 1823.769531 1917.839844 1823.121094 1917.1875 1822.320312 1917.1875 "/>
<path fill-rule="evenodd" fill="rgb(95.701599%, 96.875%, 98.046875%)" fill-opacity="1" d="M 1779.371094 1918.207031 L 1762.929688 1918.207031 C 1762.171875 1918.207031 1761.550781 1918.824219 1761.550781 1919.582031 L 1761.550781 1936.019531 C 1761.550781 1936.777344 1762.171875 1937.394531 1762.929688 1937.394531 L 1779.371094 1937.394531 C 1780.121094 1937.394531 1780.738281 1936.777344 1780.738281 1936.019531 L 1780.738281 1919.582031 C 1780.738281 1918.824219 1780.121094 1918.207031 1779.371094 1918.207031 "/>
<path fill-rule="evenodd" fill="rgb(95.701599%, 96.875%, 98.046875%)" fill-opacity="1" d="M 1736.410156 1919.222656 L 1720.839844 1919.222656 C 1720.128906 1919.222656 1719.539062 1919.808594 1719.539062 1920.523438 L 1719.539062 1936.09375 C 1719.539062 1936.808594 1720.128906 1937.394531 1720.839844 1937.394531 L 1736.410156 1937.394531 C 1737.128906 1937.394531 1737.710938 1936.808594 1737.710938 1936.09375 L 1737.710938 1920.523438 C 1737.710938 1919.808594 1737.128906 1919.222656 1736.410156 1919.222656 "/>
<path fill-rule="evenodd" fill="rgb(95.701599%, 96.875%, 98.046875%)" fill-opacity="1" d="M 1693.460938 1920.238281 L 1678.761719 1920.238281 C 1678.078125 1920.238281 1677.53125 1920.792969 1677.53125 1921.46875 L 1677.53125 1936.167969 C 1677.53125 1936.84375 1678.078125 1937.394531 1678.761719 1937.394531 L 1693.460938 1937.394531 C 1694.128906 1937.394531 1694.679688 1936.84375 1694.679688 1936.167969 L 1694.679688 1921.46875 C 1694.679688 1920.792969 1694.128906 1920.238281 1693.460938 1920.238281 "/>
<path fill-rule="evenodd" fill="rgb(95.701599%, 96.875%, 98.046875%)" fill-opacity="1" d="M 1650.5 1921.257812 L 1636.671875 1921.257812 C 1636.039062 1921.257812 1635.519531 1921.777344 1635.519531 1922.414062 L 1635.519531 1936.238281 C 1635.519531 1936.875 1636.039062 1937.394531 1636.671875 1937.394531 L 1650.5 1937.394531 C 1651.140625 1937.394531 1651.648438 1936.875 1651.648438 1936.238281 L 1651.648438 1922.414062 C 1651.648438 1921.777344 1651.140625 1921.257812 1650.5 1921.257812 "/>
<path fill-rule="evenodd" fill="rgb(95.701599%, 96.875%, 98.046875%)" fill-opacity="1" d="M 1607.539062 1922.273438 L 1594.589844 1922.273438 C 1593.988281 1922.273438 1593.511719 1922.761719 1593.511719 1923.355469 L 1593.511719 1936.3125 C 1593.511719 1936.90625 1593.988281 1937.394531 1594.589844 1937.394531 L 1607.539062 1937.394531 C 1608.140625 1937.394531 1608.628906 1936.90625 1608.628906 1936.3125 L 1608.628906 1923.355469 C 1608.628906 1922.761719 1608.140625 1922.273438 1607.539062 1922.273438 "/>
<path fill-rule="evenodd" fill="rgb(95.701599%, 96.875%, 98.046875%)" fill-opacity="1" d="M 1564.589844 1923.292969 L 1552.5 1923.292969 C 1551.949219 1923.292969 1551.488281 1923.746094 1551.488281 1924.300781 L 1551.488281 1936.386719 C 1551.488281 1936.941406 1551.949219 1937.394531 1552.5 1937.394531 L 1564.589844 1937.394531 C 1565.140625 1937.394531 1565.601562 1936.941406 1565.601562 1936.386719 L 1565.601562 1924.300781 C 1565.601562 1923.746094 1565.140625 1923.292969 1564.589844 1923.292969 "/>
<path fill-rule="evenodd" fill="rgb(78.514099%, 80.076599%, 90.234375%)" fill-opacity="1" d="M 712.585938 507.449219 L 759.648438 354.25 C 761.585938 347.761719 766.617188 342.339844 773.570312 340.199219 C 784.625 336.800781 796.339844 343.011719 799.738281 354.058594 L 844.035156 498.261719 C 909.128906 421.578125 993.785156 363.660156 1089.5 331.199219 L 1073.03125 277.578125 L 980.503906 249.160156 C 974.019531 247.21875 968.59375 242.191406 966.457031 235.238281 C 963.058594 224.179688 969.265625 212.46875 980.320312 209.070312 L 1073.03125 180.589844 L 1101.449219 88.058594 C 1103.390625 81.578125 1108.421875 76.148438 1115.371094 74.011719 C 1126.429688 70.621094 1138.140625 76.820312 1141.539062 87.878906 L 1170.019531 180.589844 L 1262.550781 209.011719 C 1269.03125 210.941406 1274.460938 215.980469 1276.589844 222.929688 C 1279.988281 233.988281 1273.789062 245.699219 1262.730469 249.101562 L 1170.019531 277.578125 L 1159.289062 312.5 C 1345.121094 275.699219 1531.78125 334.820312 1661.679688 464.71875 C 1878.96875 682 1878.960938 1034.285156 1661.679688 1251.574219 C 1573.511719 1339.746094 1455.878906 1398.460938 1324.820312 1411.695312 C 1325.730469 1414.042969 1326.230469 1416.59375 1326.230469 1419.261719 C 1326.230469 1459.332031 1307.011719 1509.152344 1277.550781 1543.027344 L 1305.230469 1543.027344 C 1316.828125 1543.027344 1326.230469 1552.429688 1326.230469 1564.027344 C 1326.230469 1630.371094 1272.269531 1729.792969 1197.511719 1729.792969 L 1022.359375 1729.792969 L 1022.359375 1789.054688 C 1022.359375 1822.753906 994.863281 1850.246094 961.164062 1850.246094 L 626.746094 1850.246094 C 593.046875 1850.246094 565.550781 1822.753906 565.550781 1789.054688 L 565.550781 1729.792969 L 390.398438 1729.792969 C 315.640625 1729.792969 261.679688 1630.378906 261.679688 1564.027344 C 261.679688 1552.429688 271.082031 1543.027344 282.679688 1543.027344 L 310.359375 1543.027344 C 280.894531 1509.160156 261.679688 1459.332031 261.679688 1419.261719 C 261.679688 1407.664062 271.082031 1398.261719 282.679688 1398.261719 L 310.359375 1398.261719 C 280.894531 1364.394531 261.679688 1314.566406 261.679688 1274.496094 C 261.679688 1262.898438 271.082031 1253.496094 282.679688 1253.496094 L 876.890625 1253.496094 C 752.085938 1130.019531 692.242188 955.148438 717.542969 778.71875 C 721.035156 754.371094 726.121094 730.480469 732.6875 707.160156 L 712.585938 641.71875 L 559.382812 594.660156 C 552.898438 592.730469 547.472656 587.691406 545.335938 580.738281 C 541.9375 569.691406 548.144531 557.96875 559.199219 554.570312 Z M 418.242188 971.980469 L 446.664062 879.460938 C 448.601562 872.980469 453.632812 867.550781 460.585938 865.410156 C 471.640625 862.011719 483.355469 868.21875 486.753906 879.269531 L 515.234375 971.980469 L 607.761719 1000.40625 C 614.242188 1002.339844 619.671875 1007.375 621.808594 1014.328125 C 625.207031 1025.382812 619 1037.097656 607.945312 1040.496094 L 515.234375 1068.976562 L 486.8125 1161.5 C 484.878906 1167.984375 479.84375 1173.414062 472.890625 1175.550781 C 461.835938 1178.945312 450.121094 1172.742188 446.722656 1161.6875 L 418.242188 1068.976562 L 325.71875 1040.554688 C 319.234375 1038.617188 313.808594 1033.585938 311.671875 1026.632812 C 308.273438 1015.578125 314.480469 1003.863281 325.53125 1000.464844 Z M 419.96875 617.851562 L 448.394531 525.328125 C 450.324219 518.839844 455.359375 513.421875 462.3125 511.28125 C 473.367188 507.878906 485.082031 514.089844 488.480469 525.140625 L 516.960938 617.851562 L 609.484375 646.28125 C 615.96875 648.210938 621.398438 653.238281 623.535156 660.199219 C 626.933594 671.25 620.726562 682.96875 609.671875 686.371094 L 516.960938 714.839844 L 488.539062 807.371094 C 486.605469 813.851562 481.570312 819.28125 474.617188 821.421875 C 463.5625 824.820312 451.847656 818.609375 448.449219 807.558594 L 419.96875 714.839844 L 327.445312 686.421875 C 320.960938 684.488281 315.53125 679.449219 313.394531 672.5 C 309.996094 661.449219 316.203125 649.730469 327.257812 646.328125 L 419.96875 617.851562 "/>
<path fill="none" stroke-width="379.999" stroke-linecap="round" stroke-linejoin="round" stroke="rgb(47.851562%, 50.976562%, 72.851562%)" stroke-opacity="1" stroke-miterlimit="2.61313" d="M 7125.195312 15581.796875 L 6621.40625 13941.914062 L 4981.484375 13438.085938 L 6621.40625 12934.296875 L 7125.195312 11294.414062 L 7628.984375 12934.296875 L 9268.90625 13438.085938 L 7628.984375 13941.914062 Z M 3995.351562 10329.6875 L 3677.96875 9296.523438 L 2644.804688 8979.140625 L 3677.96875 8661.796875 L 3995.351562 7628.632812 L 4312.734375 8661.796875 L 5345.898438 8979.140625 L 4312.734375 9296.523438 Z M 4012.617188 13871.015625 L 3695.234375 12837.8125 L 2662.070312 12520.507812 L 3695.234375 12203.085938 L 4012.617188 11169.882812 L 4330 12203.085938 L 5363.164062 12520.507812 L 4330 12837.8125 Z M 10543.203125 18243.710938 L 10225.78125 17210.507812 L 9192.695312 16893.085938 L 10225.78125 16575.78125 L 10543.203125 15542.617188 L 10860.585938 16575.78125 L 11893.789062 16893.085938 L 10860.585938 17210.507812 Z M 10543.203125 18243.710938 " transform="matrix(0.1, 0, 0, -0.1, 0, 2000)"/>
<path fill="none" stroke-width="379.999" stroke-linecap="round" stroke-linejoin="round" stroke="rgb(47.851562%, 50.976562%, 72.851562%)" stroke-opacity="1" stroke-miterlimit="2.61313" d="M 12380.3125 6438.984375 C 12380.3125 5846.5625 11895.507812 4991.328125 11303.085938 4991.328125 L 3231.992188 4991.328125 C 2639.570312 4991.328125 2154.765625 5846.523438 2154.765625 6438.984375 Z M 12380.3125 6438.984375 " transform="matrix(0.1, 0, 0, -0.1, 0, 2000)"/>
<path fill="none" stroke-width="379.999" stroke-linecap="round" stroke-linejoin="round" stroke="rgb(47.851562%, 50.976562%, 72.851562%)" stroke-opacity="1" stroke-miterlimit="2.61313" d="M 12380.3125 4991.328125 C 12380.3125 4398.945312 11895.507812 3543.671875 11303.085938 3543.671875 L 3231.992188 3543.671875 C 2639.570312 3543.671875 2154.765625 4398.867188 2154.765625 4991.328125 Z M 12380.3125 4991.328125 " transform="matrix(0.1, 0, 0, -0.1, 0, 2000)"/>
<path fill="none" stroke-width="379.999" stroke-linecap="round" stroke-linejoin="round" stroke="rgb(47.851562%, 50.976562%, 72.851562%)" stroke-opacity="1" stroke-miterlimit="2.61313" d="M 12380.3125 3543.671875 C 12380.3125 2951.289062 11895.507812 2096.054688 11303.085938 2096.054688 L 3231.992188 2096.054688 C 2639.570312 2096.054688 2154.765625 2951.210938 2154.765625 3543.671875 Z M 12380.3125 3543.671875 " transform="matrix(0.1, 0, 0, -0.1, 0, 2000)"/>
<path fill="none" stroke-width="379.999" stroke-linecap="round" stroke-linejoin="round" stroke="rgb(47.851562%, 50.976562%, 72.851562%)" stroke-opacity="1" stroke-miterlimit="2.61313" d="M 9341.5625 2096.054688 L 9341.5625 1293.4375 C 9341.5625 1072.34375 9160.703125 891.484375 8939.648438 891.484375 L 5595.429688 891.484375 C 5374.335938 891.484375 5193.476562 1072.34375 5193.476562 1293.4375 L 5193.476562 2096.054688 Z M 9341.5625 2096.054688 " transform="matrix(0.1, 0, 0, -0.1, 0, 2000)"/>
<path fill="none" stroke-width="379.999" stroke-linecap="round" stroke-linejoin="round" stroke="rgb(47.851562%, 50.976562%, 72.851562%)" stroke-opacity="1" stroke-miterlimit="2.61313" d="M 12010.507812 15956.40625 C 14967.382812 15956.40625 17364.414062 13559.414062 17364.414062 10602.5 C 17364.414062 7645.625 14967.382812 5248.59375 12010.507812 5248.59375 C 11960.898438 5248.59375 11911.40625 5249.375 11862.1875 5250.703125 C 12172.1875 5550.078125 12380.3125 6050.898438 12380.3125 6438.984375 L 8644.84375 6438.984375 C 7432.148438 7420.507812 6656.5625 8920.820312 6656.5625 10602.5 C 6656.5625 11127.5 6732.5 11634.804688 6873.359375 12114.21875 L 7125.195312 11294.414062 L 7628.984375 12934.296875 L 9268.90625 13438.085938 L 7787.226562 13893.28125 C 8464.101562 14760.78125 9402.617188 15414.101562 10483.984375 15735.3125 L 10543.203125 15542.617188 L 10613.710938 15771.992188 C 11058.984375 15892.109375 11527.1875 15956.40625 12010.507812 15956.40625 Z M 12010.507812 15956.40625 " transform="matrix(0.1, 0, 0, -0.1, 0, 2000)"/>
<path fill="none" stroke-width="379.998" stroke-linecap="round" stroke-linejoin="round" stroke="rgb(47.851562%, 50.976562%, 72.851562%)" stroke-opacity="1" stroke-miterlimit="2.61313" d="M 12010.507812 13448.28125 C 13582.1875 13448.28125 14856.289062 12174.21875 14856.289062 10602.5 C 14856.289062 9030.820312 13582.1875 7756.71875 12010.507812 7756.71875 C 10438.789062 7756.71875 9164.726562 9030.820312 9164.726562 10602.5 C 9164.726562 12174.21875 10438.789062 13448.28125 12010.507812 13448.28125 Z M 12010.507812 13448.28125 " transform="matrix(0.1, 0, 0, -0.1, 0, 2000)"/>
</svg>
