<?xml version="1.0" encoding="UTF-8"?>
<svg xmlns="http://www.w3.org/2000/svg" xmlns:xlink="http://www.w3.org/1999/xlink" width="4861" height="3384" viewBox="0 0 4861 3384">
<defs>
<clipPath id="clip-0">

</clipPath>
<clipPath id="clip-1">
<path clip-rule="nonzero" d="M 3134.289062 1109.691406 C 3120.808594 1109.691406 3111.550781 1101.289062 3099.300781 1097.449219 C 3084.878906 1092.941406 3064.96875 1095.191406 3051.210938 1088.75 C 3022.058594 1075.109375 3023.210938 1046.238281 3039.058594 1025.511719 C 3073.820312 980.078125 3115.558594 944.269531 3131.128906 893.910156 C 3137.179688 874.320312 3139.53125 850.5 3139.53125 830.019531 L 3139.53125 833.390625 C 3146.140625 860.269531 3140.308594 886.109375 3132.578125 913.621094 C 3125.191406 939.921875 3101.378906 965.960938 3084.488281 988.738281 C 3068.160156 1010.769531 3051.871094 1021.390625 3045.140625 1046.390625 C 3035.21875 1083.210938 3073.480469 1087.109375 3106.890625 1096.628906 C 3117.851562 1099.761719 3132.960938 1106.328125 3139.460938 1109.28125 C 3137.671875 1109.558594 3135.949219 1109.691406 3134.289062 1109.691406 "/>
</clipPath>
<clipPath id="clip-2">
<path clip-rule="nonzero" d="M 724 1982 L 1960 1982 L 1960 2971 L 724 2971 Z M 724 1982 "/>
</clipPath>
<clipPath id="clip-3">
<path clip-rule="nonzero" d="M 724.027344 2970.769531 L 724.027344 1982.019531 L 1437.320312 2174.058594 C 1486.460938 2306.429688 1553.25 2479.628906 1627.339844 2618.410156 L 724.027344 2970.769531 M 1850.988281 2436.519531 C 1844.53125 2436.519531 1837.050781 2432.261719 1825.429688 2421.839844 C 1805.480469 2403.960938 1747.71875 2328.488281 1685.539062 2240.890625 L 1945.769531 2310.949219 C 1946.238281 2321.140625 1951.46875 2331.71875 1959.5 2342.21875 C 1925.960938 2375.519531 1897.339844 2403.328125 1886.738281 2411.691406 C 1869.019531 2425.671875 1861.308594 2436.519531 1850.988281 2436.519531 "/>
</clipPath>
<clipPath id="clip-4">
<path clip-rule="nonzero" d="M 724.027344 2970.769531 L 724.027344 1982.019531 L 1437.320312 2174.058594 C 1486.460938 2306.429688 1553.25 2479.628906 1627.339844 2618.410156 L 724.027344 2970.769531 M 1850.988281 2436.519531 C 1844.53125 2436.519531 1837.050781 2432.261719 1825.429688 2421.839844 C 1805.480469 2403.960938 1747.71875 2328.488281 1685.539062 2240.890625 L 1945.769531 2310.949219 C 1946.238281 2321.140625 1951.46875 2331.71875 1959.5 2342.21875 C 1925.960938 2375.519531 1897.339844 2403.328125 1886.738281 2411.691406 C 1869.019531 2425.671875 1861.308594 2436.519531 1850.988281 2436.519531 "/>
</clipPath>
<linearGradient id="linear-pattern-0" gradientUnits="userSpaceOnUse" x1="-0.000000000000000056" y1="0" x2="0.849805" y2="0" gradientTransform="matrix(1453.83, 0, 0, 1453.83, 724.028, 2476.4)">
<stop offset="0" stop-color="rgb(100%, 100%, 100%)" stop-opacity="1"/>
<stop offset="0.015625" stop-color="rgb(99.90387%, 99.971008%, 100%)" stop-opacity="1"/>
<stop offset="0.03125" stop-color="rgb(99.668884%, 99.900818%, 100%)" stop-opacity="1"/>
<stop offset="0.046875" stop-color="rgb(99.36676%, 99.810791%, 100%)" stop-opacity="1"/>
<stop offset="0.0625" stop-color="rgb(99.021912%, 99.707031%, 100%)" stop-opacity="1"/>
<stop offset="0.078125" stop-color="rgb(98.646545%, 99.595642%, 100%)" stop-opacity="1"/>
<stop offset="0.0859375" stop-color="rgb(98.350525%, 99.507141%, 100%)" stop-opacity="1"/>
<stop offset="0.09375" stop-color="rgb(98.143005%, 99.44458%, 100%)" stop-opacity="1"/>
<stop offset="0.101563" stop-color="rgb(97.930908%, 99.382019%, 100%)" stop-opacity="1"/>
<stop offset="0.109375" stop-color="rgb(97.714233%, 99.316406%, 100%)" stop-opacity="1"/>
<stop offset="0.117188" stop-color="rgb(97.491455%, 99.250793%, 100%)" stop-opacity="1"/>
<stop offset="0.125" stop-color="rgb(97.265625%, 99.182129%, 100%)" stop-opacity="1"/>
<stop offset="0.132812" stop-color="rgb(97.033691%, 99.113464%, 100%)" stop-opacity="1"/>
<stop offset="0.140625" stop-color="rgb(96.798706%, 99.043274%, 100%)" stop-opacity="1"/>
<stop offset="0.148438" stop-color="rgb(96.557617%, 98.971558%, 100%)" stop-opacity="1"/>
<stop offset="0.15625" stop-color="rgb(96.313477%, 98.899841%, 100%)" stop-opacity="1"/>
<stop offset="0.164063" stop-color="rgb(96.066284%, 98.825073%, 100%)" stop-opacity="1"/>
<stop offset="0.171875" stop-color="rgb(95.81604%, 98.750305%, 100%)" stop-opacity="1"/>
<stop offset="0.179688" stop-color="rgb(95.561218%, 98.674011%, 100%)" stop-opacity="1"/>
<stop offset="0.1875" stop-color="rgb(95.303345%, 98.596191%, 100%)" stop-opacity="1"/>
<stop offset="0.195312" stop-color="rgb(95.042419%, 98.518372%, 100%)" stop-opacity="1"/>
<stop offset="0.203125" stop-color="rgb(94.776917%, 98.440552%, 100%)" stop-opacity="1"/>
<stop offset="0.210938" stop-color="rgb(94.509888%, 98.35968%, 100%)" stop-opacity="1"/>
<stop offset="0.21875" stop-color="rgb(94.238281%, 98.278809%, 100%)" stop-opacity="1"/>
<stop offset="0.226563" stop-color="rgb(93.965149%, 98.197937%, 100%)" stop-opacity="1"/>
<stop offset="0.234375" stop-color="rgb(93.688965%, 98.11554%, 100%)" stop-opacity="1"/>
<stop offset="0.242188" stop-color="rgb(93.408203%, 98.031616%, 100%)" stop-opacity="1"/>
<stop offset="0.25" stop-color="rgb(93.125916%, 97.947693%, 100%)" stop-opacity="1"/>
<stop offset="0.257812" stop-color="rgb(92.842102%, 97.862244%, 100%)" stop-opacity="1"/>
<stop offset="0.265625" stop-color="rgb(92.553711%, 97.776794%, 100%)" stop-opacity="1"/>
<stop offset="0.273438" stop-color="rgb(92.263794%, 97.689819%, 100%)" stop-opacity="1"/>
<stop offset="0.28125" stop-color="rgb(91.970825%, 97.602844%, 100%)" stop-opacity="1"/>
<stop offset="0.289063" stop-color="rgb(91.676331%, 97.514343%, 100%)" stop-opacity="1"/>
<stop offset="0.296875" stop-color="rgb(91.378784%, 97.425842%, 100%)" stop-opacity="1"/>
<stop offset="0.304688" stop-color="rgb(91.078186%, 97.335815%, 100%)" stop-opacity="1"/>
<stop offset="0.3125" stop-color="rgb(90.774536%, 97.245789%, 100%)" stop-opacity="1"/>
<stop offset="0.320313" stop-color="rgb(90.470886%, 97.154236%, 100%)" stop-opacity="1"/>
<stop offset="0.328125" stop-color="rgb(90.164185%, 97.062683%, 100%)" stop-opacity="1"/>
<stop offset="0.335938" stop-color="rgb(89.854431%, 96.97113%, 100%)" stop-opacity="1"/>
<stop offset="0.34375" stop-color="rgb(89.543152%, 96.878052%, 100%)" stop-opacity="1"/>
<stop offset="0.351563" stop-color="rgb(89.230347%, 96.784973%, 100%)" stop-opacity="1"/>
<stop offset="0.359375" stop-color="rgb(88.91449%, 96.690369%, 100%)" stop-opacity="1"/>
<stop offset="0.367188" stop-color="rgb(88.595581%, 96.595764%, 100%)" stop-opacity="1"/>
<stop offset="0.375" stop-color="rgb(88.276672%, 96.499634%, 100%)" stop-opacity="1"/>
<stop offset="0.382813" stop-color="rgb(87.954712%, 96.403503%, 100%)" stop-opacity="1"/>
<stop offset="0.390625" stop-color="rgb(87.631226%, 96.307373%, 100%)" stop-opacity="1"/>
<stop offset="0.398438" stop-color="rgb(87.306213%, 96.209717%, 100%)" stop-opacity="1"/>
<stop offset="0.40625" stop-color="rgb(86.978149%, 96.112061%, 100%)" stop-opacity="1"/>
<stop offset="0.414063" stop-color="rgb(86.647034%, 96.012878%, 100%)" stop-opacity="1"/>
<stop offset="0.421875" stop-color="rgb(86.315918%, 95.913696%, 100%)" stop-opacity="1"/>
<stop offset="0.429688" stop-color="rgb(85.983276%, 95.814514%, 100%)" stop-opacity="1"/>
<stop offset="0.4375" stop-color="rgb(85.647583%, 95.715332%, 100%)" stop-opacity="1"/>
<stop offset="0.445313" stop-color="rgb(85.310364%, 95.614624%, 100%)" stop-opacity="1"/>
<stop offset="0.453125" stop-color="rgb(84.971619%, 95.513916%, 100%)" stop-opacity="1"/>
<stop offset="0.460938" stop-color="rgb(84.631348%, 95.411682%, 100%)" stop-opacity="1"/>
<stop offset="0.46875" stop-color="rgb(84.288025%, 95.309448%, 100%)" stop-opacity="1"/>
<stop offset="0.476563" stop-color="rgb(83.944702%, 95.207214%, 100%)" stop-opacity="1"/>
<stop offset="0.484375" stop-color="rgb(83.598328%, 95.103455%, 100%)" stop-opacity="1"/>
<stop offset="0.492188" stop-color="rgb(83.251953%, 94.999695%, 100%)" stop-opacity="1"/>
<stop offset="0.5" stop-color="rgb(82.902527%, 94.895935%, 100%)" stop-opacity="1"/>
<stop offset="0.507813" stop-color="rgb(82.551575%, 94.790649%, 100%)" stop-opacity="1"/>
<stop offset="0.515625" stop-color="rgb(82.199097%, 94.685364%, 100%)" stop-opacity="1"/>
<stop offset="0.523438" stop-color="rgb(81.845093%, 94.580078%, 100%)" stop-opacity="1"/>
<stop offset="0.53125" stop-color="rgb(81.489563%, 94.473267%, 100%)" stop-opacity="1"/>
<stop offset="0.539063" stop-color="rgb(81.132507%, 94.367981%, 100%)" stop-opacity="1"/>
<stop offset="0.546875" stop-color="rgb(80.773926%, 94.259644%, 100%)" stop-opacity="1"/>
<stop offset="0.554688" stop-color="rgb(80.412292%, 94.152832%, 100%)" stop-opacity="1"/>
<stop offset="0.5625" stop-color="rgb(80.050659%, 94.044495%, 100%)" stop-opacity="1"/>
<stop offset="0.570313" stop-color="rgb(79.6875%, 93.936157%, 100%)" stop-opacity="1"/>
<stop offset="0.578125" stop-color="rgb(79.322815%, 93.826294%, 100%)" stop-opacity="1"/>
<stop offset="0.585938" stop-color="rgb(78.955078%, 93.717957%, 100%)" stop-opacity="1"/>
<stop offset="0.59375" stop-color="rgb(78.587341%, 93.608093%, 100%)" stop-opacity="1"/>
<stop offset="0.601562" stop-color="rgb(78.218079%, 93.496704%, 100%)" stop-opacity="1"/>
<stop offset="0.609375" stop-color="rgb(77.84729%, 93.386841%, 100%)" stop-opacity="1"/>
<stop offset="0.617187" stop-color="rgb(77.474976%, 93.275452%, 100%)" stop-opacity="1"/>
<stop offset="0.625" stop-color="rgb(77.101135%, 93.164062%, 100%)" stop-opacity="1"/>
<stop offset="0.632813" stop-color="rgb(76.727295%, 93.051147%, 100%)" stop-opacity="1"/>
<stop offset="0.640625" stop-color="rgb(76.350403%, 92.939758%, 100%)" stop-opacity="1"/>
<stop offset="0.648438" stop-color="rgb(75.971985%, 92.826843%, 100%)" stop-opacity="1"/>
<stop offset="0.65625" stop-color="rgb(75.592041%, 92.713928%, 100%)" stop-opacity="1"/>
<stop offset="0.664062" stop-color="rgb(75.212097%, 92.599487%, 100%)" stop-opacity="1"/>
<stop offset="0.671875" stop-color="rgb(74.830627%, 92.485046%, 100%)" stop-opacity="1"/>
<stop offset="0.679688" stop-color="rgb(74.447632%, 92.370605%, 100%)" stop-opacity="1"/>
<stop offset="0.6875" stop-color="rgb(74.061584%, 92.256165%, 100%)" stop-opacity="1"/>
<stop offset="0.695312" stop-color="rgb(73.675537%, 92.141724%, 100%)" stop-opacity="1"/>
<stop offset="0.703125" stop-color="rgb(73.28949%, 92.025757%, 100%)" stop-opacity="1"/>
<stop offset="0.710938" stop-color="rgb(72.900391%, 91.90979%, 100%)" stop-opacity="1"/>
<stop offset="0.71875" stop-color="rgb(72.511292%, 91.793823%, 100%)" stop-opacity="1"/>
<stop offset="0.722656" stop-color="rgb(72.119141%, 91.676331%, 100%)" stop-opacity="1"/>
<stop offset="0.726562" stop-color="rgb(71.923828%, 91.618347%, 100%)" stop-opacity="1"/>
<stop offset="0.730469" stop-color="rgb(71.72699%, 91.558838%, 100%)" stop-opacity="1"/>
<stop offset="0.734375" stop-color="rgb(71.530151%, 91.500854%, 100%)" stop-opacity="1"/>
<stop offset="0.738281" stop-color="rgb(71.333313%, 91.441345%, 100%)" stop-opacity="1"/>
<stop offset="0.742188" stop-color="rgb(71.136475%, 91.383362%, 100%)" stop-opacity="1"/>
<stop offset="0.746094" stop-color="rgb(70.93811%, 91.323853%, 100%)" stop-opacity="1"/>
<stop offset="0.75" stop-color="rgb(70.741272%, 91.265869%, 100%)" stop-opacity="1"/>
<stop offset="0.753906" stop-color="rgb(70.541382%, 91.20636%, 100%)" stop-opacity="1"/>
<stop offset="0.757812" stop-color="rgb(70.343018%, 91.146851%, 100%)" stop-opacity="1"/>
<stop offset="0.761719" stop-color="rgb(70.144653%, 91.087341%, 100%)" stop-opacity="1"/>
<stop offset="0.765625" stop-color="rgb(69.946289%, 91.027832%, 100%)" stop-opacity="1"/>
<stop offset="0.769531" stop-color="rgb(69.746399%, 90.968323%, 100%)" stop-opacity="1"/>
<stop offset="0.773438" stop-color="rgb(69.546509%, 90.908813%, 100%)" stop-opacity="1"/>
<stop offset="0.777344" stop-color="rgb(69.345093%, 90.849304%, 100%)" stop-opacity="1"/>
<stop offset="0.78125" stop-color="rgb(69.145203%, 90.789795%, 100%)" stop-opacity="1"/>
<stop offset="0.785156" stop-color="rgb(68.943787%, 90.72876%, 100%)" stop-opacity="1"/>
<stop offset="0.789062" stop-color="rgb(68.743896%, 90.66925%, 100%)" stop-opacity="1"/>
<stop offset="0.792969" stop-color="rgb(68.54248%, 90.608215%, 100%)" stop-opacity="1"/>
<stop offset="0.796875" stop-color="rgb(68.341064%, 90.548706%, 100%)" stop-opacity="1"/>
<stop offset="0.800781" stop-color="rgb(68.138123%, 90.487671%, 100%)" stop-opacity="1"/>
<stop offset="0.804688" stop-color="rgb(67.936707%, 90.428162%, 100%)" stop-opacity="1"/>
<stop offset="0.808594" stop-color="rgb(67.733765%, 90.367126%, 100%)" stop-opacity="1"/>
<stop offset="0.8125" stop-color="rgb(67.532349%, 90.307617%, 100%)" stop-opacity="1"/>
<stop offset="0.816406" stop-color="rgb(67.327881%, 90.246582%, 100%)" stop-opacity="1"/>
<stop offset="0.820312" stop-color="rgb(67.124939%, 90.185547%, 100%)" stop-opacity="1"/>
<stop offset="0.824219" stop-color="rgb(66.920471%, 90.124512%, 100%)" stop-opacity="1"/>
<stop offset="0.828125" stop-color="rgb(66.717529%, 90.065002%, 100%)" stop-opacity="1"/>
<stop offset="0.832031" stop-color="rgb(66.513062%, 90.003967%, 100%)" stop-opacity="1"/>
<stop offset="0.835938" stop-color="rgb(66.308594%, 89.942932%, 100%)" stop-opacity="1"/>
<stop offset="0.839844" stop-color="rgb(66.104126%, 89.881897%, 100%)" stop-opacity="1"/>
<stop offset="0.84375" stop-color="rgb(65.899658%, 89.820862%, 100%)" stop-opacity="1"/>
<stop offset="0.847656" stop-color="rgb(65.693665%, 89.758301%, 100%)" stop-opacity="1"/>
<stop offset="0.851562" stop-color="rgb(65.487671%, 89.697266%, 100%)" stop-opacity="1"/>
<stop offset="0.855469" stop-color="rgb(65.281677%, 89.634705%, 100%)" stop-opacity="1"/>
<stop offset="0.859375" stop-color="rgb(65.075684%, 89.573669%, 100%)" stop-opacity="1"/>
<stop offset="0.863281" stop-color="rgb(64.868164%, 89.512634%, 100%)" stop-opacity="1"/>
<stop offset="0.867187" stop-color="rgb(64.66217%, 89.451599%, 100%)" stop-opacity="1"/>
<stop offset="0.871094" stop-color="rgb(64.454651%, 89.389038%, 100%)" stop-opacity="1"/>
<stop offset="0.875" stop-color="rgb(64.248657%, 89.328003%, 100%)" stop-opacity="1"/>
<stop offset="0.878906" stop-color="rgb(64.039612%, 89.265442%, 100%)" stop-opacity="1"/>
<stop offset="0.882813" stop-color="rgb(63.832092%, 89.202881%, 100%)" stop-opacity="1"/>
<stop offset="0.886719" stop-color="rgb(63.623047%, 89.14032%, 100%)" stop-opacity="1"/>
<stop offset="0.890625" stop-color="rgb(63.415527%, 89.079285%, 100%)" stop-opacity="1"/>
<stop offset="0.894531" stop-color="rgb(63.206482%, 89.016724%, 100%)" stop-opacity="1"/>
<stop offset="0.898438" stop-color="rgb(62.998962%, 88.954163%, 100%)" stop-opacity="1"/>
<stop offset="0.902344" stop-color="rgb(62.788391%, 88.891602%, 100%)" stop-opacity="1"/>
<stop offset="0.90625" stop-color="rgb(62.579346%, 88.829041%, 100%)" stop-opacity="1"/>
<stop offset="0.910156" stop-color="rgb(62.368774%, 88.766479%, 100%)" stop-opacity="1"/>
<stop offset="0.914062" stop-color="rgb(62.159729%, 88.703918%, 100%)" stop-opacity="1"/>
<stop offset="0.917969" stop-color="rgb(61.949158%, 88.641357%, 100%)" stop-opacity="1"/>
<stop offset="0.921875" stop-color="rgb(61.738586%, 88.578796%, 100%)" stop-opacity="1"/>
<stop offset="0.925781" stop-color="rgb(61.526489%, 88.514709%, 100%)" stop-opacity="1"/>
<stop offset="0.929688" stop-color="rgb(61.315918%, 88.452148%, 100%)" stop-opacity="1"/>
<stop offset="0.933594" stop-color="rgb(61.103821%, 88.388062%, 100%)" stop-opacity="1"/>
<stop offset="0.9375" stop-color="rgb(60.89325%, 88.3255%, 100%)" stop-opacity="1"/>
<stop offset="0.941406" stop-color="rgb(60.681152%, 88.261414%, 100%)" stop-opacity="1"/>
<stop offset="0.945312" stop-color="rgb(60.469055%, 88.198853%, 100%)" stop-opacity="1"/>
<stop offset="0.949219" stop-color="rgb(60.256958%, 88.134766%, 100%)" stop-opacity="1"/>
<stop offset="0.953125" stop-color="rgb(60.044861%, 88.072205%, 100%)" stop-opacity="1"/>
<stop offset="0.957031" stop-color="rgb(59.831238%, 88.008118%, 100%)" stop-opacity="1"/>
<stop offset="0.960938" stop-color="rgb(59.617615%, 87.945557%, 100%)" stop-opacity="1"/>
<stop offset="0.964844" stop-color="rgb(59.403992%, 87.88147%, 100%)" stop-opacity="1"/>
<stop offset="0.96875" stop-color="rgb(59.190369%, 87.817383%, 100%)" stop-opacity="1"/>
<stop offset="0.972656" stop-color="rgb(58.97522%, 87.753296%, 100%)" stop-opacity="1"/>
<stop offset="0.976562" stop-color="rgb(58.761597%, 87.689209%, 100%)" stop-opacity="1"/>
<stop offset="0.980469" stop-color="rgb(58.546448%, 87.625122%, 100%)" stop-opacity="1"/>
<stop offset="0.984375" stop-color="rgb(58.332825%, 87.561035%, 100%)" stop-opacity="1"/>
<stop offset="0.988281" stop-color="rgb(58.117676%, 87.496948%, 100%)" stop-opacity="1"/>
<stop offset="0.992188" stop-color="rgb(57.902527%, 87.432861%, 100%)" stop-opacity="1"/>
<stop offset="0.996094" stop-color="rgb(57.685852%, 87.368774%, 100%)" stop-opacity="1"/>
<stop offset="1" stop-color="rgb(57.470703%, 87.304688%, 100%)" stop-opacity="1"/>
</linearGradient>
<clipPath id="clip-5">
<path clip-rule="nonzero" d="M 1437 2174 L 2074 2174 L 2074 2619 L 1437 2619 Z M 1437 2174 "/>
</clipPath>
<clipPath id="clip-6">
<path clip-rule="nonzero" d="M 1627.339844 2618.410156 C 1553.25 2479.628906 1486.460938 2306.429688 1437.320312 2174.058594 L 1685.539062 2240.890625 C 1747.71875 2328.488281 1805.480469 2403.960938 1825.429688 2421.839844 C 1837.050781 2432.261719 1844.53125 2436.519531 1850.988281 2436.519531 C 1861.308594 2436.519531 1869.019531 2425.671875 1886.738281 2411.691406 C 1897.339844 2403.328125 1925.960938 2375.519531 1959.5 2342.21875 C 1987.429688 2378.789062 2049.171875 2414.5 2061.550781 2430.050781 C 2065.019531 2434.398438 2069.101562 2439.210938 2073.660156 2444.300781 L 1627.339844 2618.410156 "/>
</clipPath>
<clipPath id="clip-7">
<path clip-rule="nonzero" d="M 1627.339844 2618.410156 C 1553.25 2479.628906 1486.460938 2306.429688 1437.320312 2174.058594 L 1685.539062 2240.890625 C 1747.71875 2328.488281 1805.480469 2403.960938 1825.429688 2421.839844 C 1837.050781 2432.261719 1844.53125 2436.519531 1850.988281 2436.519531 C 1861.308594 2436.519531 1869.019531 2425.671875 1886.738281 2411.691406 C 1897.339844 2403.328125 1925.960938 2375.519531 1959.5 2342.21875 C 1987.429688 2378.789062 2049.171875 2414.5 2061.550781 2430.050781 C 2065.019531 2434.398438 2069.101562 2439.210938 2073.660156 2444.300781 L 1627.339844 2618.410156 "/>
</clipPath>
<linearGradient id="linear-pattern-1" gradientUnits="userSpaceOnUse" x1="0.49063" y1="0" x2="0.928329" y2="0" gradientTransform="matrix(1453.83, 0, 0, 1453.83, 724.028, 2476.4)">
<stop offset="0" stop-color="rgb(78.392029%, 87.117004%, 89.802551%)" stop-opacity="1"/>
<stop offset="0.015625" stop-color="rgb(78.20282%, 87.060547%, 89.802551%)" stop-opacity="1"/>
<stop offset="0.03125" stop-color="rgb(77.822876%, 86.947632%, 89.802551%)" stop-opacity="1"/>
<stop offset="0.046875" stop-color="rgb(77.442932%, 86.833191%, 89.802551%)" stop-opacity="1"/>
<stop offset="0.0625" stop-color="rgb(77.061462%, 86.71875%, 89.802551%)" stop-opacity="1"/>
<stop offset="0.078125" stop-color="rgb(76.678467%, 86.604309%, 89.802551%)" stop-opacity="1"/>
<stop offset="0.09375" stop-color="rgb(76.292419%, 86.489868%, 89.802551%)" stop-opacity="1"/>
<stop offset="0.109375" stop-color="rgb(75.906372%, 86.375427%, 89.802551%)" stop-opacity="1"/>
<stop offset="0.125" stop-color="rgb(75.517273%, 86.25946%, 89.802551%)" stop-opacity="1"/>
<stop offset="0.140625" stop-color="rgb(75.128174%, 86.141968%, 89.802551%)" stop-opacity="1"/>
<stop offset="0.148438" stop-color="rgb(74.836731%, 86.054993%, 89.802551%)" stop-opacity="1"/>
<stop offset="0.15625" stop-color="rgb(74.639893%, 85.997009%, 89.802551%)" stop-opacity="1"/>
<stop offset="0.164062" stop-color="rgb(74.443054%, 85.9375%, 89.802551%)" stop-opacity="1"/>
<stop offset="0.171875" stop-color="rgb(74.246216%, 85.879517%, 89.802551%)" stop-opacity="1"/>
<stop offset="0.179687" stop-color="rgb(74.049377%, 85.820007%, 89.802551%)" stop-opacity="1"/>
<stop offset="0.1875" stop-color="rgb(73.852539%, 85.762024%, 89.802551%)" stop-opacity="1"/>
<stop offset="0.195312" stop-color="rgb(73.655701%, 85.702515%, 89.802551%)" stop-opacity="1"/>
<stop offset="0.203125" stop-color="rgb(73.457336%, 85.643005%, 89.802551%)" stop-opacity="1"/>
<stop offset="0.210937" stop-color="rgb(73.258972%, 85.583496%, 89.802551%)" stop-opacity="1"/>
<stop offset="0.21875" stop-color="rgb(73.060608%, 85.523987%, 89.802551%)" stop-opacity="1"/>
<stop offset="0.226562" stop-color="rgb(72.860718%, 85.464478%, 89.802551%)" stop-opacity="1"/>
<stop offset="0.234375" stop-color="rgb(72.662354%, 85.404968%, 89.802551%)" stop-opacity="1"/>
<stop offset="0.242188" stop-color="rgb(72.462463%, 85.345459%, 89.802551%)" stop-opacity="1"/>
<stop offset="0.25" stop-color="rgb(72.262573%, 85.28595%, 89.802551%)" stop-opacity="1"/>
<stop offset="0.257812" stop-color="rgb(72.061157%, 85.22644%, 89.802551%)" stop-opacity="1"/>
<stop offset="0.265625" stop-color="rgb(71.861267%, 85.166931%, 89.802551%)" stop-opacity="1"/>
<stop offset="0.273438" stop-color="rgb(71.659851%, 85.107422%, 89.802551%)" stop-opacity="1"/>
<stop offset="0.28125" stop-color="rgb(71.458435%, 85.046387%, 89.802551%)" stop-opacity="1"/>
<stop offset="0.289063" stop-color="rgb(71.257019%, 84.986877%, 89.802551%)" stop-opacity="1"/>
<stop offset="0.296875" stop-color="rgb(71.054077%, 84.925842%, 89.802551%)" stop-opacity="1"/>
<stop offset="0.304688" stop-color="rgb(70.851135%, 84.866333%, 89.802551%)" stop-opacity="1"/>
<stop offset="0.3125" stop-color="rgb(70.648193%, 84.805298%, 89.802551%)" stop-opacity="1"/>
<stop offset="0.320313" stop-color="rgb(70.445251%, 84.744263%, 89.802551%)" stop-opacity="1"/>
<stop offset="0.328125" stop-color="rgb(70.24231%, 84.684753%, 89.802551%)" stop-opacity="1"/>
<stop offset="0.335938" stop-color="rgb(70.039368%, 84.623718%, 89.802551%)" stop-opacity="1"/>
<stop offset="0.34375" stop-color="rgb(69.8349%, 84.562683%, 89.802551%)" stop-opacity="1"/>
<stop offset="0.351563" stop-color="rgb(69.630432%, 84.501648%, 89.802551%)" stop-opacity="1"/>
<stop offset="0.359375" stop-color="rgb(69.425964%, 84.440613%, 89.802551%)" stop-opacity="1"/>
<stop offset="0.367188" stop-color="rgb(69.219971%, 84.379578%, 89.802551%)" stop-opacity="1"/>
<stop offset="0.375" stop-color="rgb(69.015503%, 84.317017%, 89.802551%)" stop-opacity="1"/>
<stop offset="0.382812" stop-color="rgb(68.809509%, 84.255981%, 89.802551%)" stop-opacity="1"/>
<stop offset="0.390625" stop-color="rgb(68.603516%, 84.194946%, 89.802551%)" stop-opacity="1"/>
<stop offset="0.398437" stop-color="rgb(68.397522%, 84.132385%, 89.802551%)" stop-opacity="1"/>
<stop offset="0.40625" stop-color="rgb(68.190002%, 84.07135%, 89.802551%)" stop-opacity="1"/>
<stop offset="0.414062" stop-color="rgb(67.984009%, 84.008789%, 89.802551%)" stop-opacity="1"/>
<stop offset="0.421875" stop-color="rgb(67.776489%, 83.947754%, 89.802551%)" stop-opacity="1"/>
<stop offset="0.429687" stop-color="rgb(67.56897%, 83.885193%, 89.802551%)" stop-opacity="1"/>
<stop offset="0.4375" stop-color="rgb(67.359924%, 83.822632%, 89.802551%)" stop-opacity="1"/>
<stop offset="0.445312" stop-color="rgb(67.152405%, 83.761597%, 89.802551%)" stop-opacity="1"/>
<stop offset="0.453125" stop-color="rgb(66.943359%, 83.699036%, 89.802551%)" stop-opacity="1"/>
<stop offset="0.460937" stop-color="rgb(66.734314%, 83.636475%, 89.802551%)" stop-opacity="1"/>
<stop offset="0.46875" stop-color="rgb(66.525269%, 83.573914%, 89.802551%)" stop-opacity="1"/>
<stop offset="0.476562" stop-color="rgb(66.316223%, 83.511353%, 89.802551%)" stop-opacity="1"/>
<stop offset="0.484375" stop-color="rgb(66.105652%, 83.448792%, 89.802551%)" stop-opacity="1"/>
<stop offset="0.492187" stop-color="rgb(65.896606%, 83.38623%, 89.802551%)" stop-opacity="1"/>
<stop offset="0.5" stop-color="rgb(65.686035%, 83.323669%, 89.802551%)" stop-opacity="1"/>
<stop offset="0.507812" stop-color="rgb(65.475464%, 83.261108%, 89.802551%)" stop-opacity="1"/>
<stop offset="0.515625" stop-color="rgb(65.263367%, 83.197021%, 89.802551%)" stop-opacity="1"/>
<stop offset="0.523438" stop-color="rgb(65.052795%, 83.13446%, 89.802551%)" stop-opacity="1"/>
<stop offset="0.53125" stop-color="rgb(64.840698%, 83.071899%, 89.802551%)" stop-opacity="1"/>
<stop offset="0.539063" stop-color="rgb(64.628601%, 83.007812%, 89.802551%)" stop-opacity="1"/>
<stop offset="0.546875" stop-color="rgb(64.416504%, 82.945251%, 89.802551%)" stop-opacity="1"/>
<stop offset="0.554688" stop-color="rgb(64.204407%, 82.881165%, 89.802551%)" stop-opacity="1"/>
<stop offset="0.5625" stop-color="rgb(63.990784%, 82.818604%, 89.802551%)" stop-opacity="1"/>
<stop offset="0.570312" stop-color="rgb(63.778687%, 82.754517%, 89.802551%)" stop-opacity="1"/>
<stop offset="0.578125" stop-color="rgb(63.565063%, 82.69043%, 89.802551%)" stop-opacity="1"/>
<stop offset="0.585938" stop-color="rgb(63.35144%, 82.626343%, 89.802551%)" stop-opacity="1"/>
<stop offset="0.59375" stop-color="rgb(63.136292%, 82.562256%, 89.802551%)" stop-opacity="1"/>
<stop offset="0.601562" stop-color="rgb(62.922668%, 82.499695%, 89.802551%)" stop-opacity="1"/>
<stop offset="0.609375" stop-color="rgb(62.70752%, 82.435608%, 89.802551%)" stop-opacity="1"/>
<stop offset="0.617187" stop-color="rgb(62.492371%, 82.371521%, 89.802551%)" stop-opacity="1"/>
<stop offset="0.625" stop-color="rgb(62.277222%, 82.305908%, 89.802551%)" stop-opacity="1"/>
<stop offset="0.632812" stop-color="rgb(62.062073%, 82.241821%, 89.802551%)" stop-opacity="1"/>
<stop offset="0.640625" stop-color="rgb(61.846924%, 82.177734%, 89.802551%)" stop-opacity="1"/>
<stop offset="0.648437" stop-color="rgb(61.630249%, 82.113647%, 89.802551%)" stop-opacity="1"/>
<stop offset="0.65625" stop-color="rgb(61.413574%, 82.048035%, 89.802551%)" stop-opacity="1"/>
<stop offset="0.664062" stop-color="rgb(61.196899%, 81.983948%, 89.802551%)" stop-opacity="1"/>
<stop offset="0.671875" stop-color="rgb(60.980225%, 81.918335%, 89.802551%)" stop-opacity="1"/>
<stop offset="0.679688" stop-color="rgb(60.76355%, 81.854248%, 89.802551%)" stop-opacity="1"/>
<stop offset="0.6875" stop-color="rgb(60.545349%, 81.788635%, 89.802551%)" stop-opacity="1"/>
<stop offset="0.695312" stop-color="rgb(60.327148%, 81.724548%, 89.802551%)" stop-opacity="1"/>
<stop offset="0.703125" stop-color="rgb(60.108948%, 81.658936%, 89.802551%)" stop-opacity="1"/>
<stop offset="0.710938" stop-color="rgb(59.890747%, 81.593323%, 89.802551%)" stop-opacity="1"/>
<stop offset="0.71875" stop-color="rgb(59.672546%, 81.529236%, 89.802551%)" stop-opacity="1"/>
<stop offset="0.726563" stop-color="rgb(59.454346%, 81.463623%, 89.802551%)" stop-opacity="1"/>
<stop offset="0.734375" stop-color="rgb(59.234619%, 81.39801%, 89.802551%)" stop-opacity="1"/>
<stop offset="0.742188" stop-color="rgb(59.014893%, 81.332397%, 89.802551%)" stop-opacity="1"/>
<stop offset="0.75" stop-color="rgb(58.795166%, 81.266785%, 89.802551%)" stop-opacity="1"/>
<stop offset="0.757813" stop-color="rgb(58.575439%, 81.201172%, 89.802551%)" stop-opacity="1"/>
<stop offset="0.765625" stop-color="rgb(58.355713%, 81.135559%, 89.802551%)" stop-opacity="1"/>
<stop offset="0.773438" stop-color="rgb(58.13446%, 81.069946%, 89.802551%)" stop-opacity="1"/>
<stop offset="0.78125" stop-color="rgb(57.913208%, 81.002808%, 89.802551%)" stop-opacity="1"/>
<stop offset="0.789062" stop-color="rgb(57.691956%, 80.937195%, 89.802551%)" stop-opacity="1"/>
<stop offset="0.796875" stop-color="rgb(57.470703%, 80.871582%, 89.802551%)" stop-opacity="1"/>
<stop offset="0.804688" stop-color="rgb(57.249451%, 80.805969%, 89.802551%)" stop-opacity="1"/>
<stop offset="0.8125" stop-color="rgb(57.028198%, 80.738831%, 89.802551%)" stop-opacity="1"/>
<stop offset="0.820312" stop-color="rgb(56.80542%, 80.673218%, 89.802551%)" stop-opacity="1"/>
<stop offset="0.828125" stop-color="rgb(56.582642%, 80.606079%, 89.802551%)" stop-opacity="1"/>
<stop offset="0.835937" stop-color="rgb(56.361389%, 80.540466%, 89.802551%)" stop-opacity="1"/>
<stop offset="0.84375" stop-color="rgb(56.137085%, 80.473328%, 89.802551%)" stop-opacity="1"/>
<stop offset="0.851562" stop-color="rgb(55.914307%, 80.406189%, 89.802551%)" stop-opacity="1"/>
<stop offset="0.859375" stop-color="rgb(55.690002%, 80.340576%, 89.802551%)" stop-opacity="1"/>
<stop offset="0.867188" stop-color="rgb(55.467224%, 80.273438%, 89.802551%)" stop-opacity="1"/>
<stop offset="0.875" stop-color="rgb(55.24292%, 80.206299%, 89.802551%)" stop-opacity="1"/>
<stop offset="0.882812" stop-color="rgb(55.018616%, 80.13916%, 89.802551%)" stop-opacity="1"/>
<stop offset="0.890625" stop-color="rgb(54.794312%, 80.072021%, 89.802551%)" stop-opacity="1"/>
<stop offset="0.898438" stop-color="rgb(54.568481%, 80.004883%, 89.802551%)" stop-opacity="1"/>
<stop offset="0.90625" stop-color="rgb(54.344177%, 79.937744%, 89.802551%)" stop-opacity="1"/>
<stop offset="0.914063" stop-color="rgb(54.118347%, 79.870605%, 89.802551%)" stop-opacity="1"/>
<stop offset="0.921875" stop-color="rgb(53.892517%, 79.803467%, 89.802551%)" stop-opacity="1"/>
<stop offset="0.929688" stop-color="rgb(53.666687%, 79.736328%, 89.802551%)" stop-opacity="1"/>
<stop offset="0.9375" stop-color="rgb(53.440857%, 79.669189%, 89.802551%)" stop-opacity="1"/>
<stop offset="0.945313" stop-color="rgb(53.215027%, 79.600525%, 89.802551%)" stop-opacity="1"/>
<stop offset="0.953125" stop-color="rgb(52.987671%, 79.533386%, 89.802551%)" stop-opacity="1"/>
<stop offset="0.960938" stop-color="rgb(52.760315%, 79.466248%, 89.802551%)" stop-opacity="1"/>
<stop offset="0.96875" stop-color="rgb(52.532959%, 79.397583%, 89.802551%)" stop-opacity="1"/>
<stop offset="0.976563" stop-color="rgb(52.305603%, 79.330444%, 89.802551%)" stop-opacity="1"/>
<stop offset="0.984375" stop-color="rgb(52.078247%, 79.26178%, 89.802551%)" stop-opacity="1"/>
<stop offset="0.992188" stop-color="rgb(51.850891%, 79.193115%, 89.802551%)" stop-opacity="1"/>
<stop offset="1" stop-color="rgb(51.622009%, 79.125977%, 89.802551%)" stop-opacity="1"/>
</linearGradient>
</defs>

<path fill-rule="nonzero" fill="rgb(96.875%, 77.734375%, 66.601562%)" fill-opacity="1" d="M 2099 2203.078125 C 2051.558594 2249.109375 1913.160156 2390.851562 1886.738281 2411.691406 C 1857.910156 2434.421875 1855.589844 2448.898438 1825.429688 2421.839844 C 1775.898438 2377.429688 1493.210938 1977.941406 1488.519531 1919.300781 C 1483.71875 1859.238281 1505.800781 1783.28125 1477.761719 1719.890625 C 1456.171875 1671.109375 1422.648438 1641.339844 1409.628906 1587.121094 C 1404.621094 1566.210938 1407.160156 1503.921875 1389.171875 1492.910156 C 1355.25 1472.128906 1339.410156 1541.480469 1337.769531 1558.960938 C 1333.648438 1602.851562 1332.960938 1599.039062 1298.320312 1622.089844 C 1273.308594 1638.738281 1260.429688 1660.25 1249.019531 1687.050781 C 1227.191406 1738.261719 1217.671875 1815.03125 1230.828125 1870.039062 C 1246.691406 1936.300781 1315.539062 1931.648438 1357.070312 1971.519531 C 1394.671875 2007.621094 1664.609375 2961.488281 1895.171875 2847.128906 C 1968.511719 2810.738281 2213.019531 2493.070312 2246.75 2483.789062 L 2099 2203.078125 "/>
<path fill-rule="nonzero" fill="rgb(98.826599%, 96.484375%, 94.921875%)" fill-opacity="1" d="M 3319.148438 398.191406 C 3424.960938 331.589844 3515.230469 283.390625 3589.988281 254.28125 L 3589.628906 253.351562 C 3514.769531 282.488281 3424.460938 330.71875 3318.621094 397.351562 L 3319.148438 398.191406 "/>
<path fill-rule="nonzero" fill="rgb(96.875%, 77.734375%, 66.601562%)" fill-opacity="1" d="M 3103.03125 1356.230469 C 3076.441406 1457.621094 3195.140625 1524.828125 3045.660156 1612.03125 C 3008.820312 1633.519531 2906.691406 1801.699219 2944.789062 1744.550781 C 2955.738281 1728.140625 2955.039062 1733.480469 2942.441406 1755.929688 C 2929.738281 1778.570312 2929.441406 1837.851562 2926.980469 1863.03125 C 2922.691406 1907.011719 2926.671875 1954.511719 2932.320312 1997.550781 C 2946.109375 2102.601562 2883.269531 2350.378906 2906.5 2450.351562 C 2934.25 2402.601562 3057.710938 2307.601562 3103.460938 2269.800781 C 3156.53125 2225.949219 3263.53125 2150.691406 3322.320312 2111.128906 C 3386.128906 2068.179688 3416.070312 1962.589844 3456.609375 1899.410156 C 3488.75 1849.339844 3572.5 1752.371094 3520.328125 1730.828125 C 3513.808594 1728.140625 3551.289062 1744.140625 3508.339844 1722.660156 C 3497.398438 1717.191406 3527.699219 1703.519531 3480.980469 1662.480469 C 3418.980469 1608.019531 3444.03125 1415 3461.578125 1348.109375 C 3521.019531 1121.488281 3586.089844 1024.839844 3497.78125 1131.789062 C 3497.480469 1130.410156 3497.191406 1129.019531 3496.890625 1127.640625 C 3433.621094 1122.378906 3365.519531 1211.679688 3316.539062 1246.878906 C 3244.589844 1298.601562 3180.558594 1329.25 3092.359375 1329.550781 "/>
<path fill-rule="nonzero" fill="rgb(22.75238%, 20.384216%, 20.384216%)" fill-opacity="1" d="M 3699.429688 1040.25 C 3905.988281 1056.890625 3854.628906 1390.550781 3627.550781 1381.75 C 3480.660156 1376.058594 3497.878906 1285.410156 3508.761719 1196.941406 C 3519.28125 1111.390625 3582.808594 1060.351562 3675.601562 1047.371094 "/>
<path fill-rule="nonzero" fill="rgb(96.875%, 77.734375%, 66.601562%)" fill-opacity="1" d="M 3240.980469 362.78125 C 3289.628906 356.480469 3240.980469 362.78125 3240.980469 362.78125 C 3240.980469 362.78125 3226.898438 363.839844 3149.058594 406.410156 C 3096.429688 435.191406 3043.851562 464.179688 3008.140625 520.550781 C 2965.089844 588.53125 3008.140625 520.550781 2965.089844 588.53125 C 2951.300781 610.289062 2951.410156 640.621094 2942.339844 663.679688 C 2932.820312 687.921875 2927.148438 713.589844 2921 739.140625 C 2914.371094 766.660156 2926.039062 796.070312 2922.488281 822.960938 C 2918.988281 849.378906 2894.859375 904.710938 2887.558594 929.339844 C 2872.949219 978.628906 2891.308594 1050.140625 2903.878906 1099.238281 C 2924.710938 1180.621094 2935.871094 1213.140625 2955.46875 1280.289062 C 2973.949219 1343.621094 2979.550781 1368.828125 3031.671875 1414.738281 C 3052.75 1433.300781 3082.148438 1443.511719 3120.679688 1444.730469 C 3203.371094 1447.339844 3281.789062 1405.960938 3292 1401.128906 C 3367.410156 1365.410156 3396.230469 1338.929688 3429.78125 1312.851562 C 3476.269531 1276.730469 3488.898438 1263.019531 3527.410156 1212.039062 C 3598.980469 1117.328125 3614.621094 1096.621094 3614.621094 1096.621094 C 3614.621094 1096.621094 3623.710938 1077.898438 3622.03125 1082.890625 L 3614.621094 1096.621094 L 3642.460938 1049.628906 C 3648.128906 1035.78125 3655.671875 1015.308594 3682.480469 933.171875 C 3681.78125 937.988281 3682.320312 934.058594 3681.78125 937.988281 C 3681.5 941.699219 3681.960938 928.410156 3682.238281 924.699219 C 3682.511719 921.058594 3682.050781 918.179688 3682.238281 924.699219 C 3682.480469 933.171875 3682.238281 924.699219 3682.238281 924.699219 C 3682.238281 924.699219 3683.019531 909.800781 3682.238281 924.699219 L 3681.460938 939.609375 C 3682.480469 933.171875 3682.480469 933.171875 3682.480469 933.171875 C 3665.640625 916.621094 3650.980469 744.449219 3650.980469 744.449219 C 3640.890625 697.78125 3628.421875 648.179688 3603.949219 605.859375 C 3582.449219 568.660156 3555.648438 543.21875 3525.058594 512.378906 C 3467.921875 454.78125 3416.140625 413.640625 3340.339844 381.730469 C 3287.359375 359.429688 3274.101562 360.050781 3274.101562 360.050781 C 3261.648438 357.300781 3275.601562 354.679688 3261.648438 357.300781 C 3255.679688 358.421875 3240.980469 362.78125 3240.980469 362.78125 "/>
<path fill-rule="nonzero" fill="rgb(25.87738%, 24.31488%, 24.31488%)" fill-opacity="1" d="M 3225.851562 775.480469 C 3251.03125 769.011719 3268.199219 769.179688 3294.820312 764.101562 C 3328.578125 757.660156 3350.960938 756.089844 3374.488281 754.960938 C 3397.371094 753.851562 3412.070312 753.949219 3436.25 760.621094 C 3477.261719 771.929688 3488.058594 809.839844 3506.070312 829.578125 C 3488.820312 823.519531 3464.628906 802.039062 3448.238281 790.929688 C 3426.410156 776.121094 3392.789062 776.839844 3368.070312 781.03125 C 3336.808594 786.339844 3303.46875 797.671875 3272.691406 802.269531 C 3261.78125 803.898438 3210.679688 805.238281 3216.519531 783.300781 "/>
<path fill-rule="nonzero" fill="rgb(25.87738%, 24.31488%, 24.31488%)" fill-opacity="1" d="M 3083.410156 738.390625 C 3058.179688 714.21875 2937.128906 636.308594 2925 688.878906 C 2953.671875 694.289062 2982.28125 713.429688 3007.390625 727.910156 C 3027.679688 739.621094 3062.070312 764.929688 3085.699219 765.480469 C 3099.761719 757.441406 3096.398438 750.328125 3089.371094 743.671875 "/>
<path fill-rule="nonzero" fill="rgb(0%, 0%, 0%)" fill-opacity="1" d="M 3019.609375 795.980469 C 3012.03125 791.871094 3006.878906 790.601562 3000.839844 783.859375 C 2996.28125 778.761719 2990.761719 767.101562 2991.03125 760.238281 C 2988.25 768.890625 2994.199219 778.109375 2996.210938 785.859375 "/>
<path fill-rule="nonzero" fill="rgb(0%, 0%, 0%)" fill-opacity="1" d="M 3030.820312 794.089844 C 3022.871094 790.671875 3017.621094 789.859375 3010.941406 783.671875 C 3005.890625 778.988281 2999.238281 767.871094 2998.820312 761 C 2996.921875 769.871094 3003.761719 778.53125 3006.539062 786.070312 "/>
<path fill-rule="nonzero" fill="rgb(0%, 0%, 0%)" fill-opacity="1" d="M 3041.03125 790.699219 C 3032.78125 788.101562 3027.46875 787.820312 3020.199219 782.328125 C 3014.710938 778.191406 3006.96875 767.789062 3005.859375 761 C 3004.871094 770.011719 3012.539062 777.949219 3016.070312 785.171875 "/>
<path fill-rule="nonzero" fill="rgb(0%, 0%, 0%)" fill-opacity="1" d="M 3047.230469 798.121094 C 3038.96875 795.519531 3038.058594 791.308594 3030.789062 785.820312 C 3025.300781 781.671875 3017.558594 771.269531 3016.449219 764.480469 C 3015.449219 773.5 3023.128906 781.429688 3026.648438 788.648438 "/>
<path fill-rule="nonzero" fill="rgb(0%, 0%, 0%)" fill-opacity="1" d="M 3014.578125 796.019531 C 3006.609375 792.679688 3001.359375 791.921875 2994.660156 785.800781 C 2989.601562 781.179688 2982.910156 770.121094 2982.46875 763.261719 C 2980.589844 772.148438 2987.460938 780.738281 2990.261719 788.238281 "/>
<path fill-rule="nonzero" fill="rgb(0%, 0%, 0%)" fill-opacity="1" d="M 3005.378906 794.390625 C 2997.480469 790.910156 2992.238281 790.050781 2985.660156 783.808594 C 2980.691406 779.089844 2974.199219 767.910156 2973.890625 761.050781 C 2971.851562 769.898438 2978.550781 778.609375 2981.210938 786.171875 "/>
<path fill-rule="nonzero" fill="rgb(0%, 0%, 0%)" fill-opacity="1" d="M 2998.359375 790.128906 C 2990 787.890625 2984.679688 787.851562 2977.191406 782.679688 C 2971.519531 778.78125 2963.328125 768.730469 2961.929688 762 C 2961.328125 771.050781 2969.339844 778.640625 2973.179688 785.699219 "/>
<path fill-rule="nonzero" fill="rgb(0%, 0%, 0%)" fill-opacity="1" d="M 2994.828125 789.941406 C 2984.941406 788.269531 2978.828125 788.910156 2969.578125 783.5 C 2962.589844 779.410156 2951.960938 768.03125 2949.53125 759.871094 C 2949.929688 771.160156 2960.058594 779.511719 2965.328125 787.761719 "/>
<path fill-rule="nonzero" fill="rgb(0%, 0%, 0%)" fill-opacity="1" d="M 2984.640625 797.589844 C 2974.980469 795.648438 2969.050781 796.628906 2959.921875 789.800781 C 2953.03125 784.648438 2942.421875 770.089844 2939.859375 759.519531 C 2940.519531 774.210938 2950.570312 784.839844 2955.890625 795.449219 "/>
<path fill-rule="nonzero" fill="rgb(0%, 0%, 0%)" fill-opacity="1" d="M 2972.601562 794.058594 C 2963.75 793.171875 2958.519531 794.648438 2949.660156 789.179688 C 2942.960938 785.050781 2932 772.550781 2928.671875 762.988281 C 2930.710938 776.558594 2940.78125 785.46875 2946.589844 794.808594 "/>
<path fill-rule="nonzero" fill="rgb(0%, 0%, 0%)" fill-opacity="1" d="M 2957.179688 792.671875 C 2948.660156 791.03125 2943.371094 791.359375 2935.46875 786.738281 C 2929.5 783.25 2920.5 773.789062 2918.53125 767.171875 C 2918.699219 776.25 2927.320312 783.261719 2931.738281 790.03125 "/>
<path fill-rule="nonzero" fill="rgb(100%, 100%, 100%)" fill-opacity="1" d="M 2950.398438 798.019531 C 2985.851562 776.070312 3025.941406 776.171875 3047.230469 798.121094 C 3073.71875 825.441406 3074.738281 837.691406 3082.449219 862.289062 C 3051.640625 856.898438 3046.71875 860.589844 3016.148438 852.769531 C 2982.351562 844.140625 2950.640625 826.351562 2950.398438 798.019531 "/>
<path fill-rule="nonzero" fill="rgb(0%, 0%, 0%)" fill-opacity="1" d="M 2950.660156 798.441406 C 2968.269531 787.539062 2987.03125 782.109375 3004 782.109375 C 3021.058594 782.109375 3036.308594 787.578125 3046.871094 798.46875 C 3060.089844 812.109375 3066.929688 821.941406 3071.429688 831.441406 C 3075.929688 840.929688 3078.109375 850.121094 3081.96875 862.441406 L 3082.449219 862.289062 L 3082.539062 861.800781 C 3067.109375 859.101562 3058.140625 858.671875 3049.25 857.941406 C 3040.359375 857.210938 3031.53125 856.191406 3016.269531 852.289062 C 2999.421875 847.980469 2983.089844 841.390625 2970.988281 832.378906 C 2958.878906 823.359375 2951.019531 811.980469 2950.898438 798.011719 L 2949.898438 798.019531 C 2950.019531 812.390625 2958.140625 824.070312 2970.390625 833.179688 C 2982.648438 842.308594 2999.078125 848.929688 3016.019531 853.261719 C 3031.328125 857.171875 3040.25 858.210938 3049.171875 858.941406 C 3058.078125 859.671875 3066.980469 860.089844 3082.359375 862.789062 L 3083.171875 862.929688 L 3082.929688 862.140625 C 3079.078125 849.859375 3076.890625 840.621094 3072.328125 831.011719 C 3067.769531 821.398438 3060.851562 811.449219 3047.578125 797.769531 C 3036.800781 786.660156 3021.269531 781.109375 3004 781.109375 C 2986.808594 781.109375 2967.890625 786.601562 2950.128906 797.589844 L 2950.660156 798.441406 "/>
<path fill-rule="nonzero" fill="rgb(0%, 0%, 0%)" fill-opacity="1" d="M 3081.679688 861.390625 C 3075.539062 837.011719 3065.46875 814.5 3045.371094 797.339844 C 3033.238281 786.988281 3016.078125 781.929688 2998.839844 781.929688 C 2987.230469 781.929688 2975.578125 784.21875 2965.410156 788.761719 C 2962.558594 790.03125 2960 791.851562 2957.351562 793.339844 C 2954.710938 794.828125 2951.980469 795.988281 2948.789062 795.988281 C 2945.269531 795.988281 2941.128906 794.578125 2935.871094 790.550781 L 2935.558594 790.941406 C 2940.878906 795.019531 2945.128906 796.488281 2948.789062 796.488281 C 2952.109375 796.488281 2954.921875 795.28125 2957.601562 793.78125 C 2960.269531 792.269531 2962.820312 790.460938 2965.609375 789.210938 C 2975.71875 784.710938 2987.300781 782.429688 2998.839844 782.429688 C 3015.988281 782.429688 3033.039062 787.46875 3045.039062 797.71875 C 3065.039062 814.789062 3075.070312 837.179688 3081.191406 861.511719 L 3081.679688 861.390625 "/>
<path fill-rule="nonzero" fill="rgb(15.696716%, 12.156677%, 14.892578%)" fill-opacity="1" d="M 2933.179688 789.390625 C 2945.25 792.171875 2948.699219 791.859375 2959.789062 786.96875 C 2967.488281 783.578125 2976.671875 783.441406 2984.929688 781.960938 C 3009.378906 777.601562 3030.351562 784.5 3048.511719 800.339844 C 3044.761719 798.230469 3043.480469 793.269531 3039.289062 790.589844 C 3034.679688 787.640625 3029.699219 786.800781 3024.03125 785.488281 C 3012.71875 782.890625 3001.949219 781.871094 2990.800781 784.050781 C 2971.03125 787.910156 2947.179688 808.53125 2930 789.441406 "/>
<path fill-rule="nonzero" fill="rgb(18.431091%, 16.868591%, 18.041992%)" fill-opacity="1" d="M 3019.75 784.78125 C 3004.261719 782.621094 2973.570312 794.199219 2960.328125 798.269531 C 2945.609375 802.789062 2932.328125 799.199219 2924.359375 786.28125 C 2935.609375 794.058594 2945.910156 792.53125 2958.558594 788.121094 C 2974.078125 782.710938 2984.050781 778.839844 3000.851562 782.410156 "/>
<path fill-rule="nonzero" fill="rgb(2.745056%, 2.745056%, 2.745056%)" fill-opacity="1" d="M 2929.898438 779.101562 C 2932.78125 781.269531 2937.070312 782.058594 2941.921875 782.058594 C 2953.050781 782.058594 2967.191406 777.859375 2973.730469 775.558594 C 2980.230469 773.261719 2986.941406 772.28125 2993.640625 772.28125 C 3003.890625 772.28125 3014.109375 774.558594 3023.46875 777.871094 C 3038.140625 783.058594 3047.960938 787.710938 3059.269531 798.871094 C 3070.140625 809.609375 3077.230469 824.210938 3082.25 839.128906 L 3082.960938 838.890625 C 3077.921875 823.910156 3070.789062 809.210938 3059.789062 798.339844 C 3048.410156 787.078125 3038.421875 782.351562 3023.71875 777.171875 C 3014.300781 773.839844 3004 771.53125 2993.640625 771.53125 C 2986.871094 771.53125 2980.070312 772.519531 2973.480469 774.851562 C 2966.988281 777.140625 2952.878906 781.320312 2941.921875 781.308594 C 2937.148438 781.308594 2933 780.511719 2930.359375 778.511719 L 2929.898438 779.101562 "/>
<path fill-rule="nonzero" fill="rgb(96.875%, 77.734375%, 66.601562%)" fill-opacity="1" d="M 3598.601562 839.480469 C 3602.910156 741.21875 3592.769531 639.058594 3532.96875 556.078125 C 3496.101562 504.910156 3439.378906 460.359375 3385.769531 427.789062 C 3330.949219 394.5 3267.078125 379.28125 3203.828125 372.839844 C 3147.210938 367.070312 3106.230469 363.019531 3099.851562 431.851562 C 3097.140625 461.121094 3101.039062 486.800781 3117.910156 510.949219 C 3153.890625 562.421875 3229.371094 587.679688 3287.019531 604.351562 C 3352.089844 623.171875 3410.148438 652.398438 3462.878906 693.320312 C 3488.808594 713.449219 3514.640625 734.351562 3535.128906 760.671875 C 3552.53125 783.039062 3563.28125 810.589844 3576.710938 833.609375 "/>
<path fill-rule="nonzero" fill="rgb(100%, 100%, 100%)" fill-opacity="1" d="M 3005.128906 1159.058594 C 3004.070312 1183.230469 3008.558594 1196.828125 3023.101562 1216.238281 C 3042.011719 1241.5 3061.390625 1263.660156 3092.421875 1273.769531 C 3156.28125 1294.589844 3209.609375 1235.449219 3265.488281 1220.570312 C 3271.488281 1218.980469 3284.851562 1216.75 3283.761719 1209.011719 C 3261.988281 1207.171875 3241.339844 1208.269531 3219.46875 1204.191406 C 3185.910156 1197.941406 3153.929688 1190.601562 3120.011719 1193.980469 C 3098.710938 1196.101562 3077.699219 1190.269531 3058.878906 1181.160156 C 3048.371094 1176.078125 3037.601562 1170.890625 3026.378906 1166.789062 C 3019.019531 1164.101562 3009.351562 1165.539062 3003.089844 1162.730469 "/>
<path fill-rule="nonzero" fill="rgb(91.014099%, 21.972656%, 21.972656%)" fill-opacity="1" d="M 3012 1172.980469 C 3013.328125 1184.671875 3026.699219 1200.78125 3033.621094 1210.199219 C 3042.800781 1222.699219 3056.628906 1235.160156 3069.980469 1242.371094 C 3094.960938 1255.839844 3132.640625 1252.390625 3160.761719 1248 C 3173.679688 1245.988281 3187.660156 1245.269531 3200.488281 1240.269531 C 3217.328125 1233.691406 3200.488281 1240.269531 3212.261719 1235.691406 C 3240.328125 1224.769531 3269.21875 1211.988281 3300.621094 1196.339844 C 3280 1229.078125 3253.171875 1247.078125 3229.398438 1263.550781 C 3197.410156 1285.710938 3155.96875 1304.171875 3115.441406 1303.800781 C 3096.21875 1303.628906 3053.539062 1297.46875 3030.769531 1272.011719 C 3009.96875 1248.761719 2999.988281 1213.441406 2996.46875 1183.859375 C 2995.359375 1174.519531 2995.5 1161.558594 2990.679688 1153.539062 C 2997.570312 1161.429688 3004.128906 1169.269531 3012.679688 1176.308594 "/>
<path fill-rule="nonzero" fill="rgb(91.014099%, 21.972656%, 21.972656%)" fill-opacity="1" d="M 2985.078125 1147.050781 C 3022.699219 1154.949219 3051.089844 1159.441406 3072.671875 1168.011719 C 3086.710938 1173.578125 3086.019531 1176.640625 3096.648438 1185.769531 C 3105 1192.949219 3116.980469 1178.289062 3132.328125 1176.609375 C 3161.191406 1173.449219 3173.769531 1179.800781 3210.980469 1189.550781 C 3266.738281 1204.160156 3283 1201.621094 3300.621094 1196.339844 C 3258.289062 1225.671875 3196.769531 1212.199219 3141.179688 1209.761719 C 3113.21875 1208.53125 3079.261719 1201.410156 3054.421875 1192.628906 C 3027.679688 1183.191406 3005.160156 1178.460938 2988.308594 1148.839844 "/>
<path fill-rule="nonzero" fill="rgb(18.431091%, 16.868591%, 18.041992%)" fill-opacity="1" d="M 3012.648438 803.949219 C 3007.058594 810.800781 3005.519531 816.828125 3006.621094 826.5 C 3007.539062 834.539062 3012.671875 843.46875 3019.019531 849.109375 C 3024.660156 854.121094 3038.261719 858.28125 3046.011719 857.628906 C 3056.988281 856.691406 3067.210938 846.261719 3074.230469 838.96875 C 3070.640625 832.820312 3070.109375 827.609375 3066.308594 821.28125 C 3063.039062 815.820312 3055.039062 807.851562 3050.941406 802.878906 C 3043.898438 794.320312 3038.269531 790 3022.570312 796.140625 "/>
<path fill-rule="nonzero" fill="rgb(100%, 100%, 100%)" fill-opacity="1" d="M 3016.359375 816.648438 C 3013.820312 820.960938 3015.308594 826.441406 3019.679688 828.890625 C 3024.058594 831.339844 3029.671875 829.839844 3032.199219 825.53125 C 3034.738281 821.21875 3033.25 815.738281 3028.878906 813.289062 C 3024.5 810.839844 3018.890625 812.339844 3016.359375 816.648438 "/>
<path fill-rule="nonzero" fill="rgb(100%, 100%, 100%)" fill-opacity="1" d="M 3051.050781 834.011719 C 3052.320312 827.730469 3054.570312 822.320312 3050.511719 816.019531 C 3048.621094 813.101562 3045.96875 810.601562 3042.890625 809.25 C 3041.78125 808.761719 3039.230469 808.328125 3039.121094 810.070312 C 3039.050781 810.988281 3040.949219 813.671875 3041.488281 814.421875 C 3042.699219 816.070312 3044.371094 817.320312 3045.660156 818.941406 C 3047.601562 821.378906 3048.609375 823.269531 3048.941406 826.339844 C 3049.160156 828.359375 3048.660156 830.378906 3048.871094 832.410156 C 3048.949219 833.230469 3049.078125 834.691406 3050.199219 834.789062 C 3051.070312 834.871094 3051.71875 833.808594 3051.558594 833.03125 "/>
<path fill-rule="nonzero" fill="rgb(100%, 100%, 100%)" fill-opacity="1" d="M 3181.179688 417.730469 C 3216.648438 397.449219 3236.628906 384.03125 3250.921875 374.429688 C 3265.199219 364.828125 3273.761719 359.078125 3286.421875 354.058594 C 3318.410156 341.398438 3350.398438 320.628906 3382.839844 306.480469 L 3382.441406 305.558594 C 3349.898438 319.761719 3317.910156 340.53125 3286.058594 353.128906 C 3273.28125 358.191406 3264.640625 364.011719 3250.359375 373.609375 C 3236.078125 383.199219 3216.128906 396.589844 3180.679688 416.859375 L 3181.179688 417.730469 "/>
<path fill-rule="nonzero" fill="rgb(22.75238%, 20.384216%, 20.384216%)" fill-opacity="1" d="M 3213 403.210938 C 3202.21875 393.929688 3331.71875 495.199219 3348.078125 516.828125 C 3385.121094 565.839844 3408.890625 603.660156 3426.671875 628.109375 C 3467.488281 684.261719 3519.539062 792.328125 3543.398438 860.78125 C 3569.761719 936.449219 3540.148438 1001.160156 3564.109375 1077.800781 C 3575.601562 1114.53125 3547.550781 1072.121094 3563.050781 1044.21875 C 3577.148438 1018.851562 3607.109375 1026.738281 3626.179688 997.898438 C 3631.761719 989.449219 3787.890625 885.078125 3722.191406 1050.75 C 3719.289062 1058.050781 3719.289062 1058.050781 3719.289062 1058.050781 C 3719.289062 1058.050781 3925.621094 905.660156 3848.730469 620.210938 C 3801.46875 444.769531 3626.898438 289.699219 3448.789062 265.75 C 3395.46875 258.578125 3420.679688 258.898438 3363.03125 284.011719 C 3319.050781 303.160156 3218.320312 348.488281 3192.199219 390.289062 "/>
<path fill-rule="nonzero" fill="rgb(22.75238%, 20.384216%, 20.384216%)" fill-opacity="1" d="M 3192.199219 390.289062 C 3083.359375 437.160156 3021.039062 499.449219 2954.410156 616.148438 C 2960.839844 557.929688 2969.558594 513.449219 2999.789062 467.960938 C 3039.730469 407.871094 3111.460938 341.808594 3172.621094 312.601562 C 3223.691406 288.210938 3366.089844 241.300781 3424.148438 265.851562 C 3485.121094 291.621094 3316.671875 373.398438 3338.179688 341 C 3341.460938 336.058594 3390.320312 294.78125 3294.96875 375.390625 "/>
<path fill-rule="nonzero" fill="rgb(0%, 0%, 0%)" fill-opacity="1" d="M 3311.691406 846.089844 C 3319.550781 844.890625 3327 845.261719 3334.449219 840.851562 C 3340.078125 837.511719 3346.160156 828.351562 3348.300781 821.410156 C 3347.679688 831.089844 3339.441406 838 3335.058594 844.941406 "/>
<path fill-rule="nonzero" fill="rgb(0%, 0%, 0%)" fill-opacity="1" d="M 3305.761719 841.558594 C 3313.28125 840.839844 3320.46875 841.480469 3327.480469 837.890625 C 3332.789062 835.171875 3338.320312 827.328125 3340.128906 821.28125 C 3339.871094 829.808594 3332.191406 835.578125 3328.21875 841.539062 "/>
<path fill-rule="nonzero" fill="rgb(0%, 0%, 0%)" fill-opacity="1" d="M 3294.839844 841.980469 C 3302.480469 841.191406 3309.828125 841.75 3316.828125 838.148438 C 3322.121094 835.421875 3327.410156 827.648438 3329 821.679688 C 3329.101562 830.078125 3321.519531 835.828125 3317.730469 841.730469 "/>
<path fill-rule="nonzero" fill="rgb(0%, 0%, 0%)" fill-opacity="1" d="M 3286.738281 844.25 C 3294.53125 842.808594 3302.269531 842.628906 3308.910156 838.660156 C 3313.921875 835.671875 3318.050781 828.039062 3318.640625 822.410156 C 3320.238281 830.109375 3313.378906 836.101562 3310.480469 841.859375 "/>
<path fill-rule="nonzero" fill="rgb(0%, 0%, 0%)" fill-opacity="1" d="M 3334.570312 851.238281 C 3342.488281 850.71875 3349.890625 851.71875 3357.609375 847.960938 C 3363.441406 845.109375 3370.101562 836.488281 3372.691406 829.75 C 3371.429688 839.351562 3362.769531 845.539062 3357.949219 852.089844 "/>
<path fill-rule="nonzero" fill="rgb(0%, 0%, 0%)" fill-opacity="1" d="M 3345.25 850.078125 C 3353.171875 850.351562 3360.460938 852.078125 3368.441406 849.101562 C 3374.460938 846.839844 3381.75 838.921875 3384.839844 832.460938 C 3382.859375 841.898438 3373.769531 847.210938 3368.460938 853.25 "/>
<path fill-rule="nonzero" fill="rgb(0%, 0%, 0%)" fill-opacity="1" d="M 3318.570312 850.371094 C 3326.429688 849.171875 3331.25 849.878906 3338.699219 845.460938 C 3344.328125 842.128906 3353.039062 832.628906 3355.179688 825.699219 C 3354.558594 835.371094 3346.320312 842.28125 3341.941406 849.21875 "/>
<path fill-rule="nonzero" fill="rgb(0%, 0%, 0%)" fill-opacity="1" d="M 3356.628906 854.910156 C 3364.539062 855.378906 3369.160156 857.078125 3377.191406 854.300781 C 3383.261719 852.199219 3393.339844 844.679688 3396.550781 838.300781 C 3394.390625 847.691406 3385.191406 852.761719 3379.769531 858.671875 "/>
<path fill-rule="nonzero" fill="rgb(0%, 0%, 0%)" fill-opacity="1" d="M 3364.941406 863.929688 C 3372.851562 864.398438 3377.46875 866.101562 3385.5 863.320312 C 3391.570312 861.21875 3401.648438 853.699219 3404.871094 847.320312 C 3403.101562 855.019531 3390.851562 864.679688 3388.089844 867.691406 "/>
<path fill-rule="nonzero" fill="rgb(0%, 0%, 0%)" fill-opacity="1" d="M 3371.441406 867.199219 C 3380.019531 868.921875 3384.519531 871.578125 3394.378906 869.539062 C 3401.839844 868 3415.648438 860.761719 3421.460938 853.820312 C 3415.738281 864.410156 3403.769531 868.941406 3395.679688 875.011719 "/>
<path fill-rule="nonzero" fill="rgb(0%, 0%, 0%)" fill-opacity="1" d="M 3382.710938 870.730469 C 3392 873.269531 3396.980469 876.488281 3407.429688 875.078125 C 3415.320312 874.019531 3429.699219 867.320312 3435.53125 860.308594 C 3430.011719 871.261719 3415.171875 877.828125 3406.859375 883.71875 "/>
<path fill-rule="nonzero" fill="rgb(0%, 0%, 0%)" fill-opacity="1" d="M 3394.851562 878.261719 C 3403.199219 880.230469 3407.628906 882.96875 3417.140625 881.328125 C 3424.320312 880.089844 3437.519531 873.53125 3442.980469 867 C 3437.699219 877.089844 3424.078125 883.539062 3416.398438 889.148438 "/>
<path fill-rule="nonzero" fill="rgb(0%, 0%, 0%)" fill-opacity="1" d="M 3406.648438 885.308594 C 3415 887.28125 3419.429688 890.019531 3428.929688 888.371094 C 3436.121094 887.128906 3449.308594 880.578125 3454.769531 874.039062 C 3449.5 884.128906 3432.339844 889.421875 3424.660156 895.03125 "/>
<path fill-rule="nonzero" fill="rgb(0%, 0%, 0%)" fill-opacity="1" d="M 3325.890625 849.941406 C 3333.808594 849.421875 3338.558594 850.519531 3346.28125 846.75 C 3352.109375 843.898438 3361.410156 835.171875 3363.988281 828.429688 C 3362.75 838.03125 3354.089844 844.21875 3349.269531 850.769531 "/>
<path fill-rule="nonzero" fill="rgb(100%, 100%, 100%)" fill-opacity="1" d="M 3240.441406 888.398438 C 3248.949219 849.859375 3301.320312 836.410156 3329.5 843.980469 C 3344.941406 848.128906 3362.710938 855.910156 3376.21875 865.671875 C 3389.5 875.261719 3402.109375 887.429688 3417.441406 894.191406 C 3408.769531 899.320312 3396.890625 904.128906 3378.410156 908.351562 C 3373.871094 909.378906 3352.449219 916.511719 3325.160156 911.96875 C 3282.398438 904.839844 3256.980469 896.121094 3240.441406 888.398438 "/>
<path fill-rule="nonzero" fill="rgb(0%, 0%, 0%)" fill-opacity="1" d="M 3240.929688 888.511719 C 3244.390625 872.820312 3255.191406 861.320312 3268.71875 853.71875 C 3282.238281 846.121094 3298.46875 842.460938 3312.621094 842.460938 C 3318.71875 842.460938 3324.429688 843.140625 3329.371094 844.46875 C 3344.75 848.601562 3362.488281 856.359375 3375.929688 866.070312 C 3389.171875 875.628906 3401.800781 887.828125 3417.238281 894.648438 L 3417.441406 894.191406 L 3417.179688 893.761719 C 3408.570312 898.851562 3396.738281 903.660156 3378.300781 907.859375 C 3376.53125 908.261719 3372.378906 909.53125 3366.371094 910.710938 C 3360.371094 911.890625 3352.539062 912.96875 3343.46875 912.96875 C 3337.820312 912.96875 3331.699219 912.550781 3325.238281 911.46875 C 3282.511719 904.359375 3257.140625 895.648438 3240.648438 887.949219 L 3240.230469 888.851562 C 3256.808594 896.601562 3282.28125 905.328125 3325.078125 912.460938 C 3331.589844 913.550781 3337.769531 913.96875 3343.46875 913.96875 C 3352.621094 913.96875 3360.519531 912.878906 3366.570312 911.691406 C 3372.609375 910.511719 3376.828125 909.21875 3378.519531 908.828125 C 3397.03125 904.609375 3408.96875 899.78125 3417.691406 894.621094 L 3418.53125 894.121094 L 3417.640625 893.730469 C 3402.421875 887.019531 3389.828125 874.890625 3376.519531 865.261719 C 3362.941406 855.460938 3345.128906 847.671875 3329.628906 843.5 C 3324.578125 842.140625 3318.789062 841.460938 3312.621094 841.460938 C 3298.300781 841.460938 3281.929688 845.160156 3268.230469 852.851562 C 3254.53125 860.539062 3243.488281 872.261719 3239.949219 888.289062 L 3240.929688 888.511719 "/>
<path fill-rule="nonzero" fill="rgb(15.696716%, 12.156677%, 14.892578%)" fill-opacity="1" d="M 3317.300781 841.851562 C 3318.621094 839.429688 3344.160156 839.03125 3353.511719 843.410156 C 3363.648438 848.160156 3373.699219 852.339844 3381.578125 860.851562 C 3398.710938 879.351562 3415.839844 888.050781 3439.679688 888.519531 C 3434.191406 889.890625 3429.871094 894.460938 3424.378906 894.96875 C 3419.328125 895.441406 3414.28125 892.949219 3409.921875 890.140625 C 3400.460938 884.039062 3390.351562 875.628906 3381.679688 868.25 C 3372.871094 860.738281 3362.78125 856.390625 3352.46875 851.558594 C 3342.261719 846.78125 3327.308594 840.941406 3317.300781 841.851562 C 3319.988281 842.480469 3328.28125 847.378906 3329.5 843.980469 "/>
<path fill-rule="nonzero" fill="rgb(15.696716%, 12.156677%, 14.892578%)" fill-opacity="1" d="M 3332.519531 839.828125 C 3341.109375 843.839844 3349.96875 847.621094 3357.621094 853.289062 C 3364.570312 858.441406 3370.300781 865.539062 3376.929688 871.058594 C 3384.03125 876.96875 3391.191406 883.820312 3399.109375 888.421875 C 3406.441406 892.679688 3421.03125 897.488281 3428.570312 894.480469 C 3420.539062 890.949219 3413.640625 888.730469 3406.21875 883.050781 C 3398.839844 877.398438 3391.261719 870.078125 3383.859375 864.679688 C 3375.808594 858.808594 3367.851562 854.628906 3358.691406 850.308594 C 3348.898438 845.710938 3338.550781 845.421875 3328.828125 841.589844 "/>
<path fill-rule="nonzero" fill="rgb(2.745056%, 2.745056%, 2.745056%)" fill-opacity="1" d="M 3240.820312 864.070312 C 3266.238281 837.601562 3293.539062 828.109375 3319.78125 828.109375 C 3328.921875 828.109375 3337.929688 829.261719 3346.679688 831.261719 C 3364.128906 835.21875 3383.558594 844.800781 3398.480469 854.640625 C 3411.980469 863.539062 3429.488281 874.53125 3446.859375 874.539062 C 3450.601562 874.539062 3454.328125 874.03125 3458.011719 872.871094 L 3457.78125 872.160156 C 3454.179688 873.289062 3450.53125 873.789062 3446.859375 873.789062 C 3429.808594 873.800781 3412.371094 862.921875 3398.890625 854.019531 C 3383.910156 844.128906 3364.429688 834.53125 3346.851562 830.519531 C 3338.050781 828.519531 3328.980469 827.359375 3319.78125 827.359375 C 3293.359375 827.359375 3265.808594 836.941406 3240.28125 863.558594 L 3240.820312 864.070312 "/>
<path fill-rule="nonzero" fill="rgb(100%, 100%, 100%)" fill-opacity="1" d="M 3297.929688 865.679688 C 3291.660156 880.75 3300.730469 898.378906 3318.199219 905.058594 C 3335.671875 911.75 3354.949219 908.03125 3362.589844 893.539062 C 3374.441406 871.058594 3358.390625 857.191406 3340.921875 850.5 C 3323.449219 843.820312 3304.210938 850.609375 3297.929688 865.679688 "/>
<path fill-rule="nonzero" fill="rgb(13.719177%, 12.156677%, 12.547302%)" fill-opacity="1" d="M 3297.929688 865.679688 L 3297.699219 865.578125 C 3296.339844 868.851562 3295.699219 872.238281 3295.699219 875.609375 C 3295.699219 887.941406 3304.308594 900.019531 3318.109375 905.300781 C 3323.71875 907.441406 3329.511719 908.519531 3335.050781 908.519531 C 3346.859375 908.53125 3357.558594 903.621094 3362.808594 893.660156 C 3365.660156 888.238281 3366.921875 883.308594 3366.921875 878.839844 C 3366.921875 871.761719 3363.761719 865.871094 3358.949219 861.140625 C 3354.140625 856.410156 3347.671875 852.820312 3341.011719 850.269531 C 3336.421875 848.511719 3331.710938 847.679688 3327.128906 847.679688 C 3314.199219 847.679688 3302.390625 854.339844 3297.699219 865.578125 L 3297.929688 865.679688 L 3298.171875 865.78125 C 3302.75 854.75 3314.371094 848.179688 3327.128906 848.179688 C 3331.648438 848.179688 3336.300781 849 3340.828125 850.738281 C 3347.449219 853.269531 3353.859375 856.839844 3358.601562 861.5 C 3363.339844 866.171875 3366.410156 871.910156 3366.421875 878.839844 C 3366.421875 883.210938 3365.191406 888.070312 3362.359375 893.429688 C 3357.21875 903.179688 3346.730469 908.019531 3335.050781 908.019531 C 3329.578125 908.019531 3323.839844 906.960938 3318.289062 904.828125 C 3304.660156 899.621094 3296.191406 887.699219 3296.199219 875.609375 C 3296.199219 872.308594 3296.828125 868.980469 3298.171875 865.78125 L 3297.929688 865.679688 "/>
<path fill-rule="nonzero" fill="rgb(22.75238%, 20.384216%, 20.384216%)" fill-opacity="1" d="M 3301.660156 864.949219 C 3294.960938 881.039062 3303.621094 899.488281 3321 906.148438 C 3338.390625 912.808594 3357.921875 905.160156 3364.628906 889.058594 C 3371.328125 872.960938 3362.671875 854.511719 3345.289062 847.851562 C 3327.898438 841.199219 3308.371094 848.851562 3301.660156 864.949219 "/>
<path fill-rule="nonzero" fill="rgb(100%, 100%, 100%)" fill-opacity="1" d="M 3354.679688 879.910156 C 3352.820312 883.691406 3348.179688 885.269531 3344.300781 883.429688 C 3340.421875 881.589844 3338.789062 877.03125 3340.648438 873.25 C 3342.511719 869.46875 3347.160156 867.890625 3351.039062 869.730469 C 3354.910156 871.558594 3356.539062 876.121094 3354.679688 879.910156 "/>
<path fill-rule="nonzero" fill="rgb(100%, 100%, 100%)" fill-opacity="1" d="M 3319.761719 854.730469 C 3324.75 852.339844 3328.78125 849.339844 3334.941406 851.238281 C 3337.789062 852.121094 3340.46875 853.710938 3342.261719 855.890625 C 3342.910156 856.679688 3343.820312 858.640625 3342.390625 859.109375 C 3341.640625 859.359375 3338.980469 858.421875 3338.230469 858.148438 C 3336.589844 857.539062 3335.179688 856.46875 3333.539062 855.78125 C 3331.078125 854.75 3329.28125 854.351562 3326.640625 854.761719 C 3324.898438 855.019531 3323.308594 855.859375 3321.570312 856.140625 C 3320.871094 856.25 3319.609375 856.460938 3319.289062 855.578125 C 3319.03125 854.898438 3319.78125 854.148438 3320.46875 854.101562 "/>
<path fill-rule="nonzero" fill="rgb(96.875%, 77.734375%, 66.601562%)" fill-opacity="1" d="M 3588.980469 1039.910156 C 3590.359375 998.191406 3645.929688 922.699219 3694.121094 922.238281 C 3743.921875 921.75 3745.820312 1012.179688 3733.089844 1048.671875 C 3717.058594 1094.621094 3671.699219 1089.96875 3634.269531 1146.449219 C 3608.398438 1185.488281 3552.820312 1135.539062 3546.640625 1093.460938 C 3541.410156 1061.359375 3551.558594 1094.570312 3563.050781 1066.109375 C 3572.988281 1041.511719 3582.238281 1066.160156 3588.980469 1039.910156 "/>
<g clip-path="url(#clip-0)">
<g clip-path="url(#clip-1)">
<path fill-rule="nonzero" fill="rgb(97.65625%, 83.59375%, 78.514099%)" fill-opacity="1" d="M 3022.058594 1109.691406 L 3146.140625 1109.691406 L 3146.140625 830.023438 L 3022.058594 830.023438 Z M 3022.058594 1109.691406 "/>
</g>
</g>
<path fill-rule="nonzero" fill="rgb(97.65625%, 83.59375%, 78.514099%)" fill-opacity="1" d="M 3182.25 1102.160156 C 3180.058594 1102.160156 3177.710938 1101.980469 3175.199219 1101.589844 C 3149.308594 1097.570312 3124.941406 1076.910156 3098.339844 1075.441406 C 3105.371094 1070.421875 3111.679688 1068.449219 3117.539062 1068.449219 C 3128.199219 1068.449219 3137.371094 1074.980469 3146.628906 1081.511719 C 3155.890625 1088.039062 3165.25 1094.570312 3176.320312 1094.570312 C 3176.980469 1094.570312 3177.648438 1094.550781 3178.320312 1094.5 C 3217.21875 1091.730469 3200.441406 1049.351562 3194.960938 1024.289062 L 3201.691406 1037.691406 C 3213.179688 1061.878906 3214.511719 1102.171875 3182.25 1102.160156 "/>
<path fill-rule="nonzero" fill="rgb(16.479492%, 54.101562%, 85.9375%)" fill-opacity="1" d="M 3081.578125 371.25 C 3125.351562 316.539062 3167.519531 293.359375 3223.988281 272.921875 C 3287.019531 250.109375 3371.300781 241.070312 3442.679688 250.898438 C 3530.140625 262.949219 3608.429688 296.238281 3677.949219 349.371094 C 3761.191406 412.980469 3823.429688 488.871094 3918.25 523.101562 C 3772.109375 591.140625 3875.269531 772.589844 3792.851562 885.550781 C 3757.691406 933.738281 3710.46875 933.679688 3667.058594 979.210938 C 3626.5 1021.75 3594.03125 1052.898438 3552.109375 1098.941406 C 3546.78125 1027.140625 3559.550781 881.371094 3552.109375 814.429688 C 3535.699219 666.699219 3524.660156 645.828125 3464.570312 557.28125 C 3360.609375 404.078125 3266.398438 326.921875 3092.519531 371.25 "/>
<path fill-rule="nonzero" fill="rgb(88.28125%, 94.53125%, 95.701599%)" fill-opacity="1" d="M 2879.378906 961.171875 C 2972.109375 969.789062 3071.539062 916.28125 3161.980469 937.140625 C 3234.261719 953.808594 3245.910156 978.648438 3318.320312 1009.269531 C 3382.660156 1036.480469 3510.730469 1051.359375 3552.820312 1105.480469 C 3600.019531 1166.171875 3472.820312 1287.808594 3414.519531 1333.96875 C 3308.96875 1417.53125 3131.800781 1539.75 3016.339844 1416.808594 C 2960.761719 1357.628906 2926.890625 1279.519531 2915.460938 1201.679688 C 2904.460938 1126.820312 2874.960938 1037.589844 2885.390625 961.171875 "/>
<path fill-rule="nonzero" fill="rgb(100%, 82.8125%, 71.289062%)" fill-opacity="1" d="M 1197.648438 1652.089844 C 1252.519531 1601.921875 1305.46875 1615.050781 1356.929688 1663.539062 C 1379.140625 1684.460938 1505.128906 1794.730469 1382.390625 1789.929688 C 1398.878906 1807.800781 1445.480469 1886.128906 1382.390625 1868.449219 C 1415.320312 1889.890625 1403.460938 1942.578125 1361.550781 1918.210938 C 1382.289062 1924.738281 1405.679688 1953.800781 1397.550781 1976.910156 C 1386.699219 2007.730469 1320.621094 1988.859375 1297.511719 1981.589844 C 1260.179688 1969.851562 1238.511719 1980.128906 1209.21875 1953.089844 C 1155.328125 1903.339844 1164.328125 1727.039062 1201.820312 1656.25 "/>
<g clip-path="url(#clip-2)">
<g clip-path="url(#clip-3)">
<g clip-path="url(#clip-4)">
<path fill-rule="nonzero" fill="url(#linear-pattern-0)" d="M 724.027344 1982.019531 L 724.027344 2970.769531 L 1959.5 2970.769531 L 1959.5 1982.019531 Z M 724.027344 1982.019531 "/>
</g>
</g>
</g>
<g clip-path="url(#clip-5)">
<g clip-path="url(#clip-6)">
<g clip-path="url(#clip-7)">
<path fill-rule="nonzero" fill="url(#linear-pattern-1)" d="M 1437.320312 2174.058594 L 1437.320312 2618.410156 L 2073.660156 2618.410156 L 2073.660156 2174.058594 Z M 1437.320312 2174.058594 "/>
</g>
</g>
</g>
<path fill-rule="nonzero" fill="rgb(97.65625%, 86.326599%, 38.426208%)" fill-opacity="1" d="M 1492.679688 2351.171875 C 1467.769531 2263.960938 1435.949219 2160.558594 1405.480469 2085.421875 C 1388.640625 2043.890625 1363.25 2011.070312 1316.179688 1993.410156 C 1265.121094 1974.25 1223.589844 1994.960938 1186.429688 1936.28125 C 1145.421875 1871.519531 1146.25 1713.21875 1192.679688 1651.148438 C 1220.539062 1613.910156 1276.101562 1616.648438 1304.761719 1584.289062 C 1331.859375 1553.699219 1319.011719 1445.691406 1371.921875 1433.101562 C 1418.601562 1422 1404.21875 1480.371094 1409.300781 1526.539062 C 1414.890625 1577.5 1454.429688 1631.648438 1496.5 1663.578125 C 1509.378906 1714.78125 1507.03125 1808.199219 1508.960938 1862.921875 C 1511.339844 1930.28125 1509.710938 1919.300781 1532.488281 1976.429688 C 1549.441406 2018.929688 1593.46875 2079.148438 1621.410156 2118.640625 C 1650.921875 2160.351562 1650.46875 2172.621094 1687.839844 2226.601562 C 1625.28125 2268.539062 1545.96875 2307.679688 1490.269531 2355.019531 "/>
<path fill-rule="nonzero" fill="rgb(88.28125%, 94.53125%, 95.701599%)" fill-opacity="1" d="M 3066.421875 1587.121094 C 2964.449219 1639.449219 2857.71875 1626.25 2724.410156 1645.429688 C 2618.960938 1660.601562 2454.820312 1664.050781 2374.820312 1738.328125 C 2295.460938 1812.019531 2270.609375 1850.410156 2215.039062 1930.058594 C 2171.050781 1993.109375 2036.628906 2189.210938 1953.589844 2288.871094 C 1912.839844 2337.761719 2042.949219 2406.691406 2061.550781 2430.050781 C 2094.261719 2471.128906 2181.621094 2552.039062 2206.878906 2538.011719 C 2262.941406 2506.859375 2351.160156 2406.589844 2424.648438 2323.878906 C 2445.71875 2300.160156 2434.390625 2296.140625 2458 2274.589844 C 2474.390625 2336.789062 2435.679688 2402.230469 2418.328125 2467.308594 C 2395.648438 2552.328125 2407.851562 2739.628906 2410.988281 2810.761719 C 2418.859375 2989.121094 2441.949219 3182.460938 2351.519531 3335.910156 C 2507.960938 3422.601562 2712.460938 3401.28125 2891.480469 3416.558594 C 2946.539062 3421.25 3007.429688 3423.839844 3060.289062 3434.949219 C 3116.199219 3446.710938 3243.460938 3452.28125 3303.339844 3447.761719 C 3294.441406 3230.730469 3289.148438 3038.5 3374.179688 2874.128906 C 3453.121094 2721.511719 3494.078125 2725.910156 3568.960938 2563.671875 C 3536.140625 2688.160156 3535.21875 2632.351562 3506.148438 2790.140625 C 3568.550781 2806.980469 3633.789062 2828.070312 3676.820312 2845.28125 C 3842.910156 2911.71875 3863.671875 2928.730469 3863.671875 2911.71875 C 3863.671875 2910.800781 3864.089844 2912.28125 3865.128906 2913.761719 C 3868.769531 2918.941406 3880.070312 2924.128906 3908.070312 2826.140625 C 3970.941406 2606.109375 3973.46875 2617.519531 4004.050781 2430.210938 C 4037.269531 2226.75 4046.039062 2270.289062 4046.039062 2112.28125 C 4046.039062 2012.621094 3967.480469 1948.371094 3788.929688 1823.800781 C 3671.96875 1742.199219 3537.089844 1731.980469 3451.871094 1621.410156 C 3427.261719 1730.449219 3371.339844 1973.058594 3274.21875 2064.871094 C 3204.28125 2130.988281 3045.601562 2227.460938 2985.140625 2302.941406 C 2961.941406 2331.910156 2966.109375 2320.378906 2971.691406 2308.851562 C 2976.269531 2299.371094 2981.789062 2289.898438 2973.808594 2302.941406 C 2990.808594 2240.589844 2960.128906 2058.960938 2960.128906 1954.960938 C 2960.128906 1843.121094 3000.710938 1682.160156 3070.570312 1591.269531 L 3066.421875 1587.121094 "/>
<path fill-rule="nonzero" fill="rgb(11.376953%, 53.709412%, 89.451599%)" fill-opacity="1" d="M 2753.960938 1652.289062 C 2753.960938 1854.351562 2706.828125 2385.589844 2991.691406 2405.148438 C 3230.730469 2421.558594 3408.179688 2196.660156 3527.210938 1981.269531 C 3546.921875 1945.609375 3623.808594 1796.078125 3622.039062 1755.179688 C 3632.519531 1737.488281 3609.128906 1729.449219 3618.691406 1732.449219 C 3631.21875 1756.371094 3705.980469 1780.339844 3728.878906 1794.171875 C 3639.339844 2062.25 3473.160156 2258.460938 3473.820312 2519.519531 C 3473.941406 2567.011719 3476.890625 2611.921875 3484.839844 2655.871094 C 3494.480469 2709.160156 3486.988281 2717 3461.21875 2767.789062 C 3412.710938 2863.410156 3361.679688 2952.5 3337.628906 3058 C 3319.011719 3139.660156 3328.511719 3077.089844 3323.871094 3160.878906 C 3320.648438 3219.148438 3390.769531 3492.839844 3390.308594 3551.199219 C 3390.058594 3584.210938 3355.960938 3571 3318.398438 3557.78125 C 3293.171875 3548.910156 3266.378906 3540.039062 3247.21875 3545.160156 C 3150.46875 3571.050781 3022.230469 3551.269531 2923.859375 3546.71875 C 2696.011719 3536.179688 2462.839844 3542.140625 2234.539062 3545.75 C 2254.070312 3536.988281 2256.21875 3539.980469 2253.300781 3542.980469 C 2249.378906 3547.019531 2236.28125 3551.058594 2244.261719 3526.289062 C 2262.160156 3470.710938 2349.601562 3312.71875 2372.769531 3257.21875 C 2410.601562 3166.621094 2419.539062 3051.53125 2419.539062 2950.300781 C 2419.539062 2844.589844 2396.871094 2744.429688 2396.871094 2638.71875 C 2396.871094 2534.390625 2402.980469 2450.398438 2459.21875 2360.808594 C 2484.210938 2321 2512.320312 2326.539062 2534.929688 2280.578125 C 2560.289062 2229 2609.679688 2098.800781 2617.96875 2039.71875 C 2636.410156 1908.230469 2641.871094 1784.421875 2630.210938 1638.671875 C 2717.421875 1638.671875 2712.890625 1640.839844 2752.558594 1626.25 L 2753.960938 1652.289062 "/>
<path fill-rule="nonzero" fill="rgb(96.875%, 77.734375%, 66.601562%)" fill-opacity="1" d="M 3020.738281 2778.839844 C 3073.761719 2814.828125 3170.230469 2842.75 3278.199219 2880.121094 C 3346.710938 2903.839844 3406.191406 2909.398438 3476.160156 2922.121094 C 3542.140625 2934.109375 3530.238281 2884.550781 3560.550781 2799.609375 C 3566.71875 2782.320312 3539.140625 2781.148438 3556.398438 2791.300781 C 3626.988281 2832.820312 3680.558594 2837.03125 3697.578125 2845.28125 C 3735.371094 2863.601562 3811.199219 2894.121094 3854.078125 2898.121094 C 3787.640625 3068.371094 3810.960938 3015.351562 3746.101562 3156.070312 C 3710.738281 3232.800781 3636.898438 3313.832031 3551.789062 3294.238281 C 3482.648438 3278.328125 3415.011719 3245.441406 3348.78125 3218.988281 C 3301.671875 3200.179688 3223.621094 3159.089844 3090.429688 3080.71875 C 3041.96875 3052.21875 2994.789062 3023.949219 2947.769531 2991.78125 C 2935.011719 2983.058594 2861.671875 2925.089844 2858.800781 2915.871094 C 2855.601562 2905.601562 2877.921875 2911.96875 2882.789062 2903.5 C 2894.96875 2882.351562 2900.789062 2855.929688 2909.769531 2832.730469 C 2920.199219 2805.761719 2926.371094 2782.671875 2934.269531 2754.558594 C 2972.261719 2749.800781 3014.800781 2765.539062 3041.511719 2791.300781 "/>
<path fill-rule="nonzero" fill="rgb(0.392151%, 44.700623%, 74.414062%)" fill-opacity="1" d="M 2245.121094 2421.820312 C 2245.121094 2421.820312 2272.890625 2484.261719 2235.671875 2554.039062 C 2235.671875 2554.039062 2298.96875 2507.050781 2287.78125 2405.601562 C 2287.78125 2405.601562 2258.929688 2406.03125 2245.121094 2421.820312 "/>
<path fill-rule="nonzero" fill="rgb(58.006287%, 92.1875%, 96.875%)" fill-opacity="1" d="M 2270.289062 2399.230469 L 2280.53125 2436.828125 C 2282.019531 2442.828125 2289.328125 2446.238281 2296.808594 2444.390625 L 2349.03125 2431.519531 L 2362.710938 2487.019531 L 2477.199219 2458.800781 L 2463.53125 2403.308594 L 2560.480469 2379.410156 C 2567.988281 2377.578125 2571.070312 2371.871094 2567.328125 2366.738281 L 2504.300781 2279.660156 C 2500.570312 2274.53125 2503.539062 2273.261719 2496.050781 2275.109375 L 2254.261719 2330.261719 L 2157.550781 2359.878906 L 2171.410156 2416.089844 L 2270.289062 2399.230469 "/>
<path fill-rule="nonzero" fill="rgb(2.745056%, 29.026794%, 46.655273%)" fill-opacity="1" d="M 2508.171875 2471.691406 C 2508.171875 2471.691406 2369.269531 2503.808594 2357.570312 2506.71875 C 2345.839844 2509.628906 2331.171875 2518.859375 2338.480469 2548.171875 C 2353.621094 2608.898438 2350.421875 2650.429688 2331.871094 2687.058594 C 2317.320312 2715.839844 2269.519531 2791.910156 2254.710938 2821.488281 C 2239.5 2851.871094 2248.601562 2912.828125 2259.421875 2956.308594 L 2327.71875 3229.640625 C 2334.96875 3258.800781 2341.628906 3328.230469 2388.328125 3322.910156 L 2748.289062 3231.488281 C 2777.410156 3224.21875 2795.148438 3194.691406 2787.890625 3165.519531 L 2727.578125 2923.679688 C 2666.230469 2677.570312 2508.171875 2471.691406 2508.171875 2471.691406 "/>
<path fill-rule="nonzero" fill="rgb(36.083984%, 66.992188%, 76.951599%)" fill-opacity="1" d="M 2433.808594 3155.019531 C 2411.300781 3155.019531 2407.871094 3120.101562 2404.140625 3105.121094 L 2367.710938 2959.339844 C 2361.949219 2936.148438 2357.089844 2903.640625 2365.199219 2887.441406 C 2373.101562 2871.660156 2398.601562 2831.089844 2406.359375 2815.738281 C 2416.25 2796.199219 2417.960938 2774.050781 2409.878906 2741.660156 C 2405.980469 2726.03125 2413.808594 2721.109375 2420.058594 2719.558594 C 2426.308594 2718 2500.378906 2700.871094 2500.378906 2700.871094 C 2500.378906 2700.871094 2584.679688 2810.679688 2617.410156 2941.941406 L 2649.570312 3070.921875 C 2653.449219 3086.480469 2643.980469 3102.230469 2628.449219 3106.109375 L 2436.46875 3154.859375 C 2435.550781 3154.96875 2434.671875 3155.019531 2433.808594 3155.019531 "/>
<path fill-rule="nonzero" fill="rgb(0.784302%, 44.700623%, 74.804688%)" fill-opacity="1" d="M 2477.550781 2436.789062 L 2357.441406 2466.03125 C 2352.070312 2467.339844 2348.648438 2472.441406 2349.871094 2477.410156 L 2356.140625 2503.21875 C 2357.320312 2508.160156 2362.71875 2511.171875 2368.109375 2509.851562 L 2488.199219 2480.609375 C 2493.589844 2479.289062 2496.96875 2474.191406 2495.761719 2469.230469 L 2489.5 2443.421875 C 2488.300781 2438.46875 2482.910156 2435.511719 2477.550781 2436.789062 "/>
<path fill-rule="nonzero" fill="rgb(2.745056%, 29.026794%, 46.655273%)" fill-opacity="1" d="M 2253.351562 2330.488281 L 2157.820312 2360.941406 L 2172.710938 2417.519531 L 2274.488281 2416.28125 L 2253.351562 2330.488281 "/>
<path fill-rule="nonzero" fill="rgb(91.796875%, 78.90625%, 14.892578%)" fill-opacity="1" d="M 3120.53125 2803.710938 C 3122.269531 2809.019531 3123.570312 2804.410156 3107.691406 2795 C 3029.148438 2748.480469 2820.730469 2662.710938 2749.761719 2609.730469 C 2678.988281 2556.898438 2588.980469 2462.371094 2486.320312 2466.109375 C 2419.921875 2468.53125 2206.289062 2471.871094 2226.609375 2553.089844 C 2223.480469 2577.75 2227.570312 2590.019531 2257.539062 2599.339844 C 2227.851562 2614.238281 2176.839844 2673.710938 2247.960938 2704.75 C 2185.679688 2741.941406 2103.058594 2767.671875 2195.488281 2805.191406 C 2364.871094 2834.390625 2579.109375 2678.351562 2701.011719 2787.148438 C 2833.890625 2905.738281 2850.210938 2936.910156 2991.679688 3044.601562 C 3031.710938 2971.179688 3072.699219 2895.890625 3119.488281 2807.5 "/>
<path fill-rule="nonzero" fill="rgb(48.242188%, 82.03125%, 93.75%)" fill-opacity="1" d="M 1244.171875 1537.058594 C 1142.050781 1550.03125 1077.929688 1462.351562 1016.859375 1408.191406 C 977.984375 1373.71875 950.054688 1380.78125 904.730469 1364.578125 C 762.703125 1313.820312 667.050781 1352.308594 536.398438 1413.96875 C 528.433594 1321.5 483.050781 1261.648438 537.195312 1165.570312 C 522.316406 1158.648438 517.558594 1143.621094 495.40625 1140.289062 C 479.351562 1047.53125 499.226562 878.449219 610.757812 888.160156 C 605.828125 863.949219 537.210938 860.019531 580.816406 810.191406 C 761.480469 716.121094 888.820312 551.328125 923.421875 779.039062 C 917.191406 754.121094 940.378906 679.28125 939.371094 649.441406 C 1011.859375 610.679688 1259.378906 607.488281 1232.339844 738.550781 C 1334.539062 704.289062 1294.03125 660.761719 1378.148438 716.75 C 1432.730469 753.078125 1525.089844 831.179688 1558.800781 884.941406 C 1432.128906 953.191406 1415.519531 965.921875 1322.089844 1127.871094 C 1284.441406 1193.128906 1272.929688 1316.859375 1290.941406 1395.730469 C 1307.609375 1468.710938 1310.050781 1518.410156 1216.191406 1551.460938 "/>
<path fill-rule="nonzero" fill="rgb(4.315186%, 31.37207%, 41.967773%)" fill-opacity="1" d="M 1985.019531 2836.589844 L 1934.03125 2864.5 L 1148.5 1429.390625 L 1199.488281 1401.480469 L 1985.019531 2836.589844 "/>
<path fill-rule="nonzero" fill="rgb(24.31488%, 54.881287%, 71.679688%)" fill-opacity="1" d="M 1141.441406 1520.308594 C 1048.660156 1444.929688 965.480469 1399.089844 904.730469 1364.578125 C 867.734375 1343.570312 868.804688 1346.78125 823.753906 1339.671875 C 770.246094 1331.21875 728.796875 1321.660156 680.480469 1320.980469 C 678.757812 1312.140625 658.570312 1326.640625 636.878906 1327.210938 C 662.816406 1323.03125 815.460938 1278.46875 828.894531 1270.421875 C 786.78125 1273.839844 692.4375 1225.109375 659.050781 1207.089844 C 714.519531 1185.980469 801.074219 1203.75 860.945312 1200.390625 C 810.285156 1180.300781 702.199219 1112.621094 667.65625 1074.699219 C 764.453125 1055.460938 823.792969 1149.019531 898.800781 1183.519531 C 898.640625 1116.96875 832.109375 1010.710938 795.480469 953.550781 C 843.222656 986.179688 922.117188 1096.199219 945.9375 1149.078125 C 957.191406 1079.839844 899.542969 1009.898438 877.832031 895.011719 C 936.796875 933.441406 951.734375 1015.699219 998.242188 1078.21875 C 1023.171875 1111.738281 1018.449219 1112.851562 1035.539062 1152.789062 C 1016.859375 1053.121094 1021.96875 978.339844 1021.320312 889.328125 C 1016.160156 946.191406 1025.910156 883.5 1038.71875 934.511719 C 1047.050781 967.691406 1084.011719 1109.238281 1086.398438 1143.089844 C 1097.421875 1085.230469 1096.710938 1020.449219 1096.710938 958.519531 C 1094.851562 1013.410156 1103.191406 1065.988281 1115.121094 1119.390625 C 1156.039062 1110.101562 1151.949219 978.378906 1161.691406 934.339844 C 1184.539062 993.878906 1211.96875 1064.371094 1218.488281 1129.460938 C 1218.679688 1068.148438 1222.769531 1010 1246.171875 957.628906 C 1246.230469 1021.910156 1250.921875 1089.800781 1254.140625 1154.53125 C 1292.519531 1122.429688 1281.308594 1056.058594 1333.429688 1028.03125 C 1307.011719 1124.230469 1297.171875 1165.25 1278.480469 1308.519531 C 1270.679688 1368.351562 1330.550781 1464.371094 1297.171875 1514.078125 C 1274.28125 1548.160156 1187.808594 1562.25 1147.671875 1520.308594 "/>
<path fill-rule="nonzero" fill="rgb(97.65625%, 86.326599%, 38.426208%)" fill-opacity="1" d="M 1216.191406 1657.351562 C 1296.109375 1656.78125 1390.699219 1596.761719 1385.460938 1712.328125 C 1423.390625 1728.679688 1408.121094 1756.921875 1426.128906 1783.789062 C 1441.328125 1806.46875 1472.121094 1804.429688 1477.941406 1837.828125 C 1487.160156 1890.789062 1434.089844 1956.398438 1378.148438 1962.910156 C 1320.738281 1969.578125 1257.28125 1906.808594 1227.109375 1863.21875 C 1189.96875 1809.558594 1199.488281 1717.710938 1209.960938 1657.351562 "/>
</svg>
