<?xml version="1.0" encoding="UTF-8" standalone="no"?>
<svg
   xmlns:dc="http://purl.org/dc/elements/1.1/"
   xmlns:cc="http://creativecommons.org/ns#"
   xmlns:rdf="http://www.w3.org/1999/02/22-rdf-syntax-ns#"
   xmlns:svg="http://www.w3.org/2000/svg"
   xmlns="http://www.w3.org/2000/svg"
   viewBox="0 0 2829.3333 2829.3333"
   height="2829.3333"
   width="2829.3333"
   xml:space="preserve"
   id="svg2"
   version="1.1"><metadata
     id="metadata8"><rdf:RDF><cc:Work
         rdf:about=""><dc:format>image/svg+xml</dc:format><dc:type
           rdf:resource="http://purl.org/dc/dcmitype/StillImage" /></cc:Work></rdf:RDF></metadata><defs
     id="defs6" /><g
     transform="matrix(1.3333333,0,0,-1.3333333,0,2829.3333)"
     id="g10"><g
       transform="scale(0.1)"
       id="g12"><path
         id="path14"
         style="fill:#e2926c;fill-opacity:1;fill-rule:nonzero;stroke:none"
         d="M 4260.19,13764.8 8532.97,3755 l 547.56,233.8 -4272.77,10009.7 -547.57,-233.7" /><path
         id="path16"
         style="fill:#36407a;fill-opacity:1;fill-rule:nonzero;stroke:none"
         d="M 9080.53,3988.8 8532.97,3755 7802.06,5467.3 8349.63,5701 9080.53,3988.8" /><path
         id="path18"
         style="fill:#36407a;fill-opacity:1;fill-rule:nonzero;stroke:none"
         d="m 9152.84,3326.1 c 22.5,-52.8 -2.12,-113.9 -54.89,-136.4 -52.88,-22.6 -113.93,1.9 -136.44,54.7 l -120.02,281.2 c -22.58,52.9 1.87,114 54.76,136.6 52.76,22.5 113.98,-2.1 136.54,-55 z m -531.59,980.3 c -151.14,-64.5 -221.41,-239.5 -156.86,-390.8 l 343.77,-805.3 c 64.51,-151.1 239.52,-221.4 390.67,-156.9 151.25,64.5 221.41,239.5 156.91,390.6 l -343.78,805.4 c -64.55,151.2 -239.46,221.6 -390.71,157" /><path
         id="path20"
         style="fill:#5574ba;fill-opacity:1;fill-rule:nonzero;stroke:none"
         d="m 3818.95,14501.4 762.09,325.3 513.88,-1203.9 -762.09,-325.3 -513.88,1203.9" /><g
         transform="scale(1.0599)"
         id="g22"><path
           id="path24"
           style="fill:#5574ba;fill-opacity:1;fill-rule:nonzero;stroke:none"
           d="m 1257.21,14573.9 c 9.12,-23.6 18.11,-47.3 28.13,-70.8 477.07,-1117.6 1769.74,-1636.9 2887.34,-1159.8 1117.61,477 1636.9,1769.8 1159.83,2887.4 -10.02,23.5 -20.87,46.4 -31.63,69.3 L 1257.21,14573.9" /></g><g
         transform="scale(1.0599)"
         id="g26"><path
           id="path28"
           style="fill:#4c66a4;fill-opacity:1;fill-rule:nonzero;stroke:none"
           d="m 2024.08,13580.4 c -15.4,30.6 -30.13,61.3 -43.6,92.8 -79.61,186.5 -102.69,393.3 27.69,564.6 173.32,227.5 456.97,365.1 710.47,483.8 250.94,117.5 524.31,250.9 799.26,300.9 973.58,177 925.14,-1067.6 625.94,-1690.6 9.58,4 19.3,7.3 28.84,11.4 1117.61,477 1636.9,1769.8 1159.83,2887.4 -10.02,23.5 -20.87,46.4 -31.63,69.3 L 1257.21,14573.9 c 9.12,-23.6 18.11,-47.3 28.13,-70.8 163.6,-383.2 423.15,-696.2 738.74,-922.7" /></g><g
         transform="scale(1.09409)"
         id="g30"><path
           id="path32"
           style="fill:#5f80c0;fill-opacity:1;fill-rule:nonzero;stroke:none"
           d="m 813.407,14190.5 c -48.806,114.4 4.256,246.6 118.632,295.4 L 5067.6,16251.2 c 114.38,48.8 246.64,-4.2 295.46,-118.6 48.81,-114.4 -4.38,-246.6 -118.74,-295.4 L 1108.73,14071.9 c -114.346,-48.8 -246.495,4.3 -295.323,118.6" /></g><path
         id="path34"
         style="fill:#e2926c;fill-opacity:1;fill-rule:nonzero;stroke:none"
         d="m 11531.8,4730.9 -595.6,257.4 4354.9,10080.2 595.6,-257.4 -4354.9,-10080.2" /><path
         id="path36"
         style="fill:#36407a;fill-opacity:1;fill-rule:nonzero;stroke:none"
         d="m 15107.6,12701.6 -818.7,353.7 890.5,2061.4 818.8,-353.7 -890.6,-2061.4" /><g
         transform="scale(1.22013)"
         id="g38"><path
           id="path40"
           style="fill:#36407a;fill-opacity:1;fill-rule:nonzero;stroke:none"
           d="m 10278.1,13323.7 4996.4,-2158.6 c 380.1,-164.2 839.3,52 1025.5,482.9 l -6373.15,2753.3 c -186.2,-430.9 -28.85,-913.4 351.25,-1077.6" /></g><path
         id="path42"
         style="fill:#36407a;fill-opacity:1;fill-rule:nonzero;stroke:none"
         d="m 11531.8,4730.9 -595.6,257.4 804.4,1861.9 595.6,-257.3 -804.4,-1862" /><path
         id="path44"
         style="fill:#36407a;fill-opacity:1;fill-rule:nonzero;stroke:none"
         d="m 11062.3,4176.6 c -24.8,-57.3 -91.6,-83.9 -149,-59.1 -57.3,24.8 -83.8,91.6 -59,149 l 132.1,305.8 c 24.8,57.5 91.6,83.9 148.9,59.1 57.4,-24.8 83.9,-91.5 59.1,-149 z M 11438,5332 c -164.3,71 -355.3,-4.6 -426.4,-169.1 l -378.3,-875.8 c -71.1,-164.5 4.8,-355.4 169.1,-426.4 164.4,-71 355.4,4.6 426.5,169.1 l 378.3,875.8 c 71.1,164.5 -4.8,355.4 -169.2,426.4" /><g
         transform="scale(1.22925)"
         id="g46"><path
           id="path48"
           style="fill:#89b3c7;fill-opacity:1;fill-rule:nonzero;stroke:none"
           d="m 16300,11841.5 -6325.8,2732.9 -120.97,-279.9 6325.87,-2732.9 120.9,279.9" /></g><g
         transform="scale(1.00118)"
         id="g50"><path
           id="path52"
           style="fill:#fddc78;fill-opacity:1;fill-rule:nonzero;stroke:none"
           d="M 9559.63,13130.8 6223.97,16300 5214.8,15556.4 l 3683.94,-3500.1 660.89,1074.5" /></g><g
         transform="scale(1.00118)"
         id="g54"><path
           id="path56"
           style="fill:#f9a760;fill-opacity:1;fill-rule:nonzero;stroke:none"
           d="m 9420.23,12904.3 139.4,226.5 -3335.66,3169.2 -212.65,-156.8 3408.91,-3238.9" /></g><path
         id="path58"
         style="fill:#f9a760;fill-opacity:1;fill-rule:nonzero;stroke:none"
         d="m 8719.93,12250.5 -141.34,134.2 696.88,733.5 z" /><path
         id="path60"
         style="fill:#f9a760;fill-opacity:1;fill-rule:nonzero;stroke:none"
         d="m 5380.25,15423.6 141.24,-134.3 696.93,733.4 z" /><path
         id="path62"
         style="fill:#f9a760;fill-opacity:1;fill-rule:nonzero;stroke:none"
         d="m 7881.28,13047.3 -141.24,134.2 767.44,666.3 z" /><path
         id="path64"
         style="fill:#f9a760;fill-opacity:1;fill-rule:nonzero;stroke:none"
         d="m 8456.16,12501.1 -150.53,143 841.41,778.2 z" /><path
         id="path66"
         style="fill:#f9a760;fill-opacity:1;fill-rule:nonzero;stroke:none"
         d="m 5665.05,15153 150.52,-143 734.12,880.1 z" /><path
         id="path68"
         style="fill:#f9a760;fill-opacity:1;fill-rule:nonzero;stroke:none"
         d="m 6844.7,14032.2 150.52,-143 557.7,737.5 z" /><path
         id="path70"
         style="fill:#f9a760;fill-opacity:1;fill-rule:nonzero;stroke:none"
         d="m 8144.98,12796.8 -160.83,152.7 611.25,482.4 z" /><path
         id="path72"
         style="fill:#f9a760;fill-opacity:1;fill-rule:nonzero;stroke:none"
         d="m 7250.78,13646.3 -141.16,134.2 496.07,380.8 z" /><path
         id="path74"
         style="fill:#f9a760;fill-opacity:1;fill-rule:nonzero;stroke:none"
         d="m 7541.4,13370.3 -160.66,152.5 777.12,657.2 z" /><path
         id="path76"
         style="fill:#f9a760;fill-opacity:1;fill-rule:nonzero;stroke:none"
         d="m 5926.48,14904.6 160.83,-152.8 450.35,635.2 z" /><path
         id="path78"
         style="fill:#f9a760;fill-opacity:1;fill-rule:nonzero;stroke:none"
         d="m 6249.57,14597.6 150.53,-143 734.36,880.1 z" /><path
         id="path80"
         style="fill:#f9a760;fill-opacity:1;fill-rule:nonzero;stroke:none"
         d="m 6511.11,14349.2 160.75,-152.8 450.49,635.1 z" /><g
         transform="scale(1.0391)"
         id="g82"><path
           id="path84"
           style="fill:#36407a;fill-opacity:1;fill-rule:nonzero;stroke:none"
           d="m 9210.91,12645.6 422.13,444.3 c 142.82,150.3 136.76,388.1 -13.6,530.9 L 6950.04,16157 c -150.39,143 -388.15,136.7 -530.95,-13.5 l -422.13,-444.3 3213.95,-3053.6" /></g><g
         transform="scale(1.04154)"
         id="g86"><path
           id="path88"
           style="fill:#36407a;fill-opacity:1;fill-rule:nonzero;stroke:none"
           d="m 7660.77,14967.7 c -126.98,-133.5 -338.32,-138.9 -472.02,-11.9 -133.61,127 -139.16,338.3 -12.15,471.9 l 696.7,733.2 c 126.97,133.8 338.39,139.1 472.01,12.1 133.68,-127 139.15,-338.4 12.16,-472.1 l -696.7,-733.2" /></g><g
         transform="scale(1.04154)"
         id="g90"><path
           id="path92"
           style="fill:#36407a;fill-opacity:1;fill-rule:nonzero;stroke:none"
           d="m 9893.6,13780.9 -2008.24,1908 c -133.62,127.1 -139.06,338.3 -12.06,472 126.9,133.6 338.31,139.1 472.01,12.1 l 1612.52,-1532 c 0,0 353.87,-419.9 -64.23,-860.1" /></g><g
         transform="scale(1.02444)"
         id="g94"><path
           id="path96"
           style="fill:#29305c;fill-opacity:1;fill-rule:nonzero;stroke:none"
           d="m 6440.11,16300 -357.31,-376.1 3259.95,-3097.3 357.29,376.1 -3259.93,3097.3" /></g><g
         transform="scale(1.07865)"
         id="g98"><path
           id="path100"
           style="fill:#f147ac;fill-opacity:1;fill-rule:nonzero;stroke:none"
           d="m 9896.28,16300 c 0,0 146.02,-600.7 -202.01,-941.5 l 125.8,-96.2 c 0,0 502.73,466.6 459.33,985.2 l -383.12,52.5" /></g><g
         transform="scale(1.14277)"
         id="g102"><path
           id="path104"
           style="fill:#d9f3fd;fill-opacity:1;fill-rule:nonzero;stroke:none"
           d="m 11238.4,16300 575.2,-549 c 0,0 -675.5,-546.6 -714.5,-898.5 l -12.9,-299.7 H 9795.87 l 12.86,469.2 c 0,0 52.24,130.3 -143.24,201.9 l -1199.09,280.3 v 391 l 2772,404.8" /></g><g
         transform="scale(1.11959)"
         id="g106"><path
           id="path108"
           style="fill:#f147ac;fill-opacity:1;fill-rule:nonzero;stroke:none"
           d="m 9160.49,16300 -518.83,-75.8 v -399.1 l 518.83,-121.2 v 596.1" /></g><g
         transform="scale(1.02028)"
         id="g110"><path
           id="path112"
           style="fill:#a1e1f9;fill-opacity:1;fill-rule:nonzero;stroke:none"
           d="M 12527.1,15673.4 H 10873 v 626.6 h 1654.1 v -626.6" /></g><g
         transform="scale(1.01422)"
         id="g114"><path
           id="path116"
           style="fill:#73d2f6;fill-opacity:1;fill-rule:nonzero;stroke:none"
           d="m 11141,15887.8 c 0,-13.1 -9.8,-23.7 -22.1,-23.7 -12,0 -21.9,10.6 -21.9,23.7 v 388.6 c 0,13.1 9.9,23.6 21.9,23.6 12.3,0 22.1,-10.5 22.1,-23.6 v -388.6" /></g><g
         transform="scale(1.01422)"
         id="g118"><path
           id="path120"
           style="fill:#73d2f6;fill-opacity:1;fill-rule:nonzero;stroke:none"
           d="m 11327,15887.8 c 0,-13.1 -9.9,-23.7 -22,-23.7 -12.1,0 -22.1,10.6 -22.1,23.7 v 388.6 c 0,13.1 10,23.6 22.1,23.6 12.1,0 22,-10.5 22,-23.6 v -388.6" /></g><g
         transform="scale(1.01422)"
         id="g122"><path
           id="path124"
           style="fill:#73d2f6;fill-opacity:1;fill-rule:nonzero;stroke:none"
           d="m 11513,15887.8 c 0,-13.1 -9.9,-23.7 -22.2,-23.7 -12,0 -21.8,10.6 -21.8,23.7 v 388.6 c 0,13.1 9.8,23.6 21.8,23.6 12.3,0 22.2,-10.5 22.2,-23.6 v -388.6" /></g><g
         transform="scale(1.01422)"
         id="g126"><path
           id="path128"
           style="fill:#73d2f6;fill-opacity:1;fill-rule:nonzero;stroke:none"
           d="m 11698.9,15887.8 c 0,-13.1 -9.8,-23.7 -21.9,-23.7 -12.2,0 -22.1,10.6 -22.1,23.7 v 388.6 c 0,13.1 9.9,23.6 22.1,23.6 12.1,0 21.9,-10.5 21.9,-23.6 v -388.6" /></g><g
         transform="scale(1.01422)"
         id="g130"><path
           id="path132"
           style="fill:#73d2f6;fill-opacity:1;fill-rule:nonzero;stroke:none"
           d="m 11884.8,15887.8 c 0,-13.1 -9.8,-23.7 -21.8,-23.7 -12.2,0 -22,10.6 -22,23.7 v 388.6 c 0,13.1 9.8,23.6 22,23.6 12,0 21.8,-10.5 21.8,-23.6 v -388.6" /></g><g
         transform="scale(1.01422)"
         id="g134"><path
           id="path136"
           style="fill:#73d2f6;fill-opacity:1;fill-rule:nonzero;stroke:none"
           d="m 12071,15887.8 c 0,-13.1 -9.9,-23.7 -22.1,-23.7 -12.1,0 -22,10.6 -22,23.7 v 388.6 c 0,13.1 9.9,23.6 22,23.6 12.2,0 22.1,-10.5 22.1,-23.6 v -388.6" /></g><g
         transform="scale(1.01422)"
         id="g138"><path
           id="path140"
           style="fill:#73d2f6;fill-opacity:1;fill-rule:nonzero;stroke:none"
           d="m 12257,15887.8 c 0,-13.1 -9.9,-23.7 -22.1,-23.7 -12.1,0 -22,10.6 -22,23.7 v 388.6 c 0,13.1 9.9,23.6 22,23.6 12.2,0 22.1,-10.5 22.1,-23.6 v -388.6" /></g><g
         transform="scale(1.01422)"
         id="g142"><path
           id="path144"
           style="fill:#73d2f6;fill-opacity:1;fill-rule:nonzero;stroke:none"
           d="m 12442.9,15887.8 c 0,-13.1 -9.9,-23.7 -22,-23.7 -12.2,0 -22,10.6 -22,23.7 v 388.6 c 0,13.1 9.8,23.6 22,23.6 12.1,0 22,-10.5 22,-23.6 v -388.6" /></g><path
         id="path146"
         style="fill:#f147ac;fill-opacity:1;fill-rule:nonzero;stroke:none"
         d="m 11304.2,15991.2 h 1315.7 c 419.4,-775.1 1036.8,-1494.2 1036.8,-1494.2 316.9,-387.1 36.1,-876.2 36.1,-876.2 -273.8,-1131.2 119,-3786.8 119,-3786.8 238.2,-440.5 143,-750.1 143,-750.1 -23.9,-250.1 -309.6,-274 -309.6,-274 h -3310.5 c -369.13,23.9 -369.13,321.6 -369.13,321.6 0,327.6 238.13,690.7 238.13,690.7 762.2,1369.4 -107.2,3358.1 -107.2,3358.1 -130.93,597.7 251.3,929.6 251.3,929.6 l 571.6,571.4 c 0,0 302.2,258.1 335.4,479.4 l 49.4,830.5" /><path
         id="path148"
         style="fill:#f364b9;fill-opacity:1;fill-rule:nonzero;stroke:none"
         d="m 12913.4,14755.1 c 142,-219.7 271.5,-459 319,-719.1 57.1,-312.8 -33.8,-620 -76.5,-929.4 -59.8,-431.4 -92.6,-868.4 -65.3,-1303.9 25.3,-404.2 87.2,-821.1 232.3,-1201.3 105.6,-276.5 262.4,-527.5 472.5,-736.6 4.6,-4.4 9.4,-8.6 13.9,-13.1 -33.4,232 -377.3,2691.7 -116.5,3769.1 0,0 280.8,489.1 -36.1,876.2 0,0 -617.4,719.1 -1036.8,1494.2 h -541.8 c 209.1,-449.9 568,-822.2 835.3,-1236.1" /><path
         id="path150"
         style="fill:#f033a3;fill-opacity:1;fill-rule:nonzero;stroke:none"
         d="m 13830.7,9797.9 c -45.9,-130.3 -112.2,-252.8 -211.7,-350.2 -522.3,-510.8 -1606.8,-429.3 -2256.6,-258.6 -222.2,58.4 -419.4,181.6 -478.7,415.9 -65.1,257.1 -15.2,536.9 37.6,791.7 57.1,275.3 141.1,546.7 182.7,825 110,736.2 -348.8,1400 -408.3,2118 -21.7,262 60.9,499.5 241.7,690.4 179.8,189.6 405.6,325.6 599,499.8 104.6,94.4 211.1,201.3 276.5,327.4 75.9,147.1 110.6,311.7 123.6,475.9 17.7,219.6 3.6,438.7 -7.3,658 h -625 l -49.4,-830.5 c -33.2,-221.3 -335.4,-479.4 -335.4,-479.4 l -571.6,-571.4 c 0,0 -382.23,-331.9 -251.3,-929.6 0,0 869.4,-1988.7 107.2,-3358.1 0,0 -238.13,-363.1 -238.13,-690.7 0,0 0,-297.7 369.13,-321.6 h 3310.5 c 0,0 285.7,23.9 309.6,274 0,0 90,292.8 -124.1,714" /><path
         id="path152"
         style="fill:#fbc308;fill-opacity:1;fill-rule:nonzero;stroke:none"
         d="m 13500.2,10386.1 c 0,147.4 -228,1524.2 -80.5,2464.3 0,0 -1114.8,728.3 -2869,-67.8 0,0 534.5,-1124.5 147.3,-2396.5 0,0 1119.9,-585.2 2802.2,0" /><g
         transform="scale(1.04144)"
         id="g154"><path
           id="path156"
           style="fill:#fbbf32;fill-opacity:1;fill-rule:nonzero;stroke:none"
           d="m 10164,9995.07 c 55,756.33 110.1,1515.13 259.4,2260.03 148.9,742.7 479.8,1425.3 641,2161.1 64.6,294.5 2.1,692.7 -238.2,317.7 -129.4,-201.9 -268,-652.9 -348.8,-853.2 69.8,342.4 606,1923.7 133.4,1833.9 -190.8,-238.4 -240.8,-482.4 -599.2,-1622.8 46.1,217.8 438.8,1853 200.5,2023.5 -258.22,184.7 -565.49,-1679.5 -602.36,-1883.4 39.18,452 39.75,1448.4 -55.42,1637.5 -401.77,236.4 -537.84,-1323.4 -537.84,-1323.4 -167.01,-1428.4 -429.83,-647.9 -693.87,-405 -232.19,213.7 -497.92,131.7 -349.11,-296.7 65.57,-188.7 231.73,-434.7 315.01,-615.5 114.54,-248.2 294.23,-515 328.47,-735.7 69.76,-448.9 -48.18,-896.7 -223.07,-1304.1 -154.27,-359.2 -332.45,-753.2 -312.13,-767.4 -0.07,-0.1 934.49,-653.91 2082.22,-426.53" /></g><g
         transform="scale(1.02243)"
         id="g158"><path
           id="path160"
           style="fill:#f9a932;fill-opacity:1;fill-rule:nonzero;stroke:none"
           d="m 9056.14,13081.2 c 91.23,749.6 166.26,1116.9 239.94,1671.9 27.03,203.8 61.03,406.5 88.85,610.3 24.24,177.2 49.99,354 101.31,525.9 33.09,110.6 76.98,261.4 205.21,293.3 -377.88,117.4 -507.31,-1366.1 -507.31,-1366.1 -170.13,-1454.9 -437.83,-659.9 -706.63,-412.6 -106.42,97.8 -194.95,125 -260.47,106.4 352.67,-373.6 660.12,-949.7 839.1,-1429.1" /></g><path
         id="path162"
         style="fill:#f9a932;fill-opacity:1;fill-rule:nonzero;stroke:none"
         d="m 11438,15007.5 c -70.6,-290.5 -205.4,-558.6 -322.6,-832.1 -97.8,-228.6 -162.8,-468.6 -252.7,-700.2 -78.6,-202.7 -177.2,-411.6 -340.8,-560.4 -170.8,-155.1 -385.9,-219.1 -613.65,-219.5 127.35,-461.5 55.86,-948.1 -69.42,-1402.1 -82.64,-299.8 -189.58,-591.5 -292.55,-884.6 308.67,-57.5 662.92,-73.9 1038.92,0.7 57.3,787.7 114.7,1578 270.2,2353.7 155.1,773.5 499.7,1484.3 667.6,2250.7 47.1,214.9 29.1,482.6 -71.9,489.2 39.7,-162.6 26.3,-333.1 -13.1,-495.4" /><path
         id="path164"
         style="fill:#fbbf32;fill-opacity:1;fill-rule:nonzero;stroke:none"
         d="m 5637.18,8948.2 c 102.12,783.2 204.38,1568.9 207.7,2360.1 3.36,788.9 -191.58,1554.4 -202.24,2338.9 -4.31,313.9 142.7,707.2 309.39,274.2 89.85,-232.9 136.96,-722.1 177.62,-943.3 0.31,364 -216.27,2089.2 247.21,1899 144.77,-283.2 144.77,-542.6 272.05,-1781 -1.38,231.9 -60.21,1982.3 218.49,2106.5 302.07,134.4 225.8,-1831.9 220.83,-2047.5 54.54,469.3 262.21,1486 398.92,1659 459.2,157.3 272.08,-1462.5 272.08,-1462.5 -128.21,-1492.4 303.12,-751 623.28,-558.3 281.56,169.4 535.52,30.3 294.08,-375.7 -106.28,-178.8 -327.23,-395.1 -450.05,-562.1 -168.55,-229.3 -407.87,-463.9 -488.87,-682 -164.97,-443.4 -138.26,-924.9 -44.96,-1377.2 82.23,-398.6 181.67,-837.8 157.97,-848.1 0,0 -1090.07,-471.8 -2213.5,0" /><path
         id="path166"
         style="fill:#f9a932;fill-opacity:1;fill-rule:nonzero;stroke:none"
         d="m 7531.27,11587.2 c 62.38,769.5 62.6,1152.8 102.72,1723.7 14.74,209.8 22.42,419.9 36.23,629.6 12.13,182.6 22.77,364.9 6.53,547.6 -10.28,117.7 -23.49,277.6 -145.48,335.8 402.72,40.2 227.96,-1472.3 227.96,-1472.3 -128.21,-1492.4 303.04,-751 623.19,-558.3 126.52,76.1 220.83,85.2 282.72,53.2 -430.03,-301.8 -856.29,-816 -1133.87,-1259.3" /><path
         id="path168"
         style="fill:#f9a932;fill-opacity:1;fill-rule:nonzero;stroke:none"
         d="m 5724.66,13624.1 c 10.89,-298.7 89.06,-588.5 148.99,-879.9 50.01,-243.7 65.43,-491.7 106.94,-736.7 36.44,-214.4 90.98,-438.8 221.48,-617.3 136.27,-186.4 334.3,-292.2 557.07,-338.3 -217.27,-426.4 -244.94,-917.6 -213.44,-1387.5 20.9,-310.3 66.99,-617.5 109.11,-925.4 -313.86,5.8 -664.09,60.7 -1017.63,209.2 102.12,783.2 204.38,1568.9 207.7,2360.1 3.36,788.9 -191.58,1554.4 -202.24,2338.9 -3.07,220.1 68.28,478.5 168.69,464.9 -71.57,-151.4 -92.74,-321.2 -86.67,-488" /><g
         transform="scale(1.01598)"
         id="g170"><path
           id="path172"
           style="fill:#f8a533;fill-opacity:1;fill-rule:nonzero;stroke:none"
           d="m 14710.3,2558.82 c 805.6,0 804.7,961.54 804.7,961.54 l 785,8280.94 H 5810.75 l 785.09,-8280.94 c 0,0 -0.99,-961.54 804.72,-961.54 h 7309.74" /></g><path
         id="path174"
         style="fill:#fbbf32;fill-opacity:1;fill-rule:nonzero;stroke:none"
         d="m 12245.9,2599.7 c 818.4,0 817.6,976.9 817.6,976.9 l 797.5,8413.2 H 3204.19 L 4001.8,3576.6 c 0,0 -1,-976.9 817.58,-976.9 h 7426.52" /><path
         id="path176"
         style="fill:#f9a932;fill-opacity:1;fill-rule:nonzero;stroke:none"
         d="m 13719.9,10752.7 141.1,1237.1 H 3204.19 l 141.1,-1237.1 H 13719.9" /><g
         transform="scale(1.08179)"
         id="g178"><path
           id="path180"
           style="fill:#fab932;fill-opacity:1;fill-rule:nonzero;stroke:none"
           d="m 16300,10637.7 c 0,-246.1 -199.4,-445.6 -445.6,-445.6 H 5898.77 c -246.12,0 -445.59,199.5 -445.59,445.6 0,246.1 199.47,445.6 445.59,445.6 h 9955.63 c 246.2,0 445.6,-199.5 445.6,-445.6" /></g><path
         id="path182"
         style="fill:#fccf31;fill-opacity:1;fill-rule:nonzero;stroke:none"
         d="m 14353.8,11507.8 c 0,-266.3 -215.7,-482.1 -482,-482.1 H 3101.88 c -266.26,0 -482.04,215.8 -482.04,482.1 0,266.2 215.78,482 482.04,482 H 13871.8 c 266.3,0 482,-215.8 482,-482" /><path
         id="path184"
         style="fill:#fccf31;fill-opacity:1;fill-rule:nonzero;stroke:none"
         d="m 9193.74,12214.8 c 0,-390.5 -316.47,-707 -706.99,-707 -390.4,0 -706.98,316.5 -706.98,707 0,390.4 316.58,707 706.98,707 390.52,0 706.99,-316.6 706.99,-707" /><g
         transform="scale(1.10872)"
         id="g186"><path
           id="path188"
           style="fill:#1d1e32;fill-opacity:1;fill-rule:nonzero;stroke:none"
           d="m 7654.61,11156 4122.69,-4182.54 -0.2,0.27 c 2.8,-2.89 108.7,-110.85 302,-218.99 193.2,-108.05 474.6,-216.29 825.9,-216.29 14.2,0 28.4,0.18 42.6,0.55 l -1.3,57.9 v -58 l 2997.2,-0.45 8.3,0.55 c 4,0.81 84.2,11.99 169.6,60.61 42.7,24.35 87,58.71 121.3,107.6 34.4,48.7 57.3,112.38 57.1,187.51 0,61.78 -14.9,130.87 -47.6,208.26 -32.8,77.48 -83.6,163.61 -156.9,260.66 l -46.3,-34.99 46.7,34.36 -1277.8,1740.21 c -18.9,25.79 -55.2,31.38 -81,12.44 -25.9,-18.94 -31.4,-55.28 -12.4,-81.08 l 1277.8,-1740.21 0.5,-0.63 c 68.9,-91.28 114.6,-169.75 142.6,-235.95 28.1,-66.29 38.5,-120.05 38.4,-163.07 -0.2,-52.49 -14.5,-89.83 -36,-121.04 -32.2,-46.36 -85.1,-77.93 -131.5,-96.33 -23.1,-9.29 -44.1,-15.33 -59,-18.94 -7.4,-1.8 -13.3,-3.06 -17.2,-3.79 l -4.1,-0.72 -0.8,-0.09 1.2,-8.48 -1.2,8.48 v 0 l 1.2,-8.48 -1.2,8.48 8.3,-57.45 v 57.99 l -2997.2,0.54 h -1.3 c -13.6,-0.27 -26.9,-0.54 -40,-0.54 -327.1,0 -588.9,100.75 -769.3,201.59 -90.2,50.33 -159.8,100.74 -206.4,138.17 -23.4,18.77 -41.1,34.28 -52.7,44.92 -5.8,5.32 -10.1,9.38 -12.9,12.09 l -3,2.88 -0.6,0.64 v 0.08 l -0.2,0.18 -4122.75,4182.5 c -22.49,22.8 -59.18,23 -81.96,0.5 -22.81,-22.4 -23.06,-59.1 -0.55,-81.9 h -0.03" /></g></g></g></svg>