<?xml version="1.0" encoding="UTF-8"?>
<svg xmlns="http://www.w3.org/2000/svg" xmlns:xlink="http://www.w3.org/1999/xlink" width="2000" height="2000" viewBox="0 0 2000 2000">
<defs>
<clipPath id="clip-0">

</clipPath>
<linearGradient id="linear-pattern-0" gradientUnits="userSpaceOnUse" x1="-0.000000000000000111" y1="0" x2="1.000005" y2="0" gradientTransform="matrix(1161.79, 0, 0, 1161.79, 419.104, 1297.82)">
<stop offset="0" stop-color="rgb(68.626404%, 58.822632%, 77.645874%)" stop-opacity="1"/>
<stop offset="0.015625" stop-color="rgb(68.763733%, 58.990479%, 77.737427%)" stop-opacity="1"/>
<stop offset="0.03125" stop-color="rgb(69.039917%, 59.327698%, 77.922058%)" stop-opacity="1"/>
<stop offset="0.046875" stop-color="rgb(69.316101%, 59.664917%, 78.105164%)" stop-opacity="1"/>
<stop offset="0.0625" stop-color="rgb(69.590759%, 60.002136%, 78.289795%)" stop-opacity="1"/>
<stop offset="0.078125" stop-color="rgb(69.866943%, 60.339355%, 78.4729%)" stop-opacity="1"/>
<stop offset="0.09375" stop-color="rgb(70.143127%, 60.675049%, 78.657532%)" stop-opacity="1"/>
<stop offset="0.109375" stop-color="rgb(70.417786%, 61.012268%, 78.840637%)" stop-opacity="1"/>
<stop offset="0.125" stop-color="rgb(70.69397%, 61.349487%, 79.025269%)" stop-opacity="1"/>
<stop offset="0.140625" stop-color="rgb(70.970154%, 61.686707%, 79.208374%)" stop-opacity="1"/>
<stop offset="0.15625" stop-color="rgb(71.246338%, 62.023926%, 79.393005%)" stop-opacity="1"/>
<stop offset="0.171875" stop-color="rgb(71.520996%, 62.361145%, 79.576111%)" stop-opacity="1"/>
<stop offset="0.1875" stop-color="rgb(71.79718%, 62.698364%, 79.759216%)" stop-opacity="1"/>
<stop offset="0.203125" stop-color="rgb(72.073364%, 63.034058%, 79.943848%)" stop-opacity="1"/>
<stop offset="0.21875" stop-color="rgb(72.348022%, 63.371277%, 80.126953%)" stop-opacity="1"/>
<stop offset="0.234375" stop-color="rgb(72.624207%, 63.708496%, 80.311584%)" stop-opacity="1"/>
<stop offset="0.25" stop-color="rgb(72.900391%, 64.045715%, 80.49469%)" stop-opacity="1"/>
<stop offset="0.265625" stop-color="rgb(73.176575%, 64.382935%, 80.679321%)" stop-opacity="1"/>
<stop offset="0.28125" stop-color="rgb(73.451233%, 64.720154%, 80.862427%)" stop-opacity="1"/>
<stop offset="0.296875" stop-color="rgb(73.727417%, 65.057373%, 81.047058%)" stop-opacity="1"/>
<stop offset="0.3125" stop-color="rgb(74.003601%, 65.393066%, 81.230164%)" stop-opacity="1"/>
<stop offset="0.328125" stop-color="rgb(74.278259%, 65.730286%, 81.414795%)" stop-opacity="1"/>
<stop offset="0.34375" stop-color="rgb(74.554443%, 66.067505%, 81.5979%)" stop-opacity="1"/>
<stop offset="0.359375" stop-color="rgb(74.830627%, 66.404724%, 81.782532%)" stop-opacity="1"/>
<stop offset="0.375" stop-color="rgb(75.105286%, 66.741943%, 81.965637%)" stop-opacity="1"/>
<stop offset="0.390625" stop-color="rgb(75.38147%, 67.079163%, 82.150269%)" stop-opacity="1"/>
<stop offset="0.40625" stop-color="rgb(75.657654%, 67.416382%, 82.333374%)" stop-opacity="1"/>
<stop offset="0.421875" stop-color="rgb(75.933838%, 67.753601%, 82.518005%)" stop-opacity="1"/>
<stop offset="0.4375" stop-color="rgb(76.208496%, 68.089294%, 82.701111%)" stop-opacity="1"/>
<stop offset="0.453125" stop-color="rgb(76.48468%, 68.426514%, 82.884216%)" stop-opacity="1"/>
<stop offset="0.46875" stop-color="rgb(76.760864%, 68.763733%, 83.068848%)" stop-opacity="1"/>
<stop offset="0.484375" stop-color="rgb(77.035522%, 69.100952%, 83.251953%)" stop-opacity="1"/>
<stop offset="0.5" stop-color="rgb(77.311707%, 69.438171%, 83.436584%)" stop-opacity="1"/>
<stop offset="0.515625" stop-color="rgb(77.587891%, 69.775391%, 83.61969%)" stop-opacity="1"/>
<stop offset="0.53125" stop-color="rgb(77.864075%, 70.11261%, 83.804321%)" stop-opacity="1"/>
<stop offset="0.546875" stop-color="rgb(78.138733%, 70.448303%, 83.987427%)" stop-opacity="1"/>
<stop offset="0.5625" stop-color="rgb(78.414917%, 70.785522%, 84.172058%)" stop-opacity="1"/>
<stop offset="0.578125" stop-color="rgb(78.691101%, 71.122742%, 84.355164%)" stop-opacity="1"/>
<stop offset="0.59375" stop-color="rgb(78.965759%, 71.459961%, 84.539795%)" stop-opacity="1"/>
<stop offset="0.609375" stop-color="rgb(79.241943%, 71.79718%, 84.7229%)" stop-opacity="1"/>
<stop offset="0.625" stop-color="rgb(79.518127%, 72.134399%, 84.907532%)" stop-opacity="1"/>
<stop offset="0.640625" stop-color="rgb(79.792786%, 72.471619%, 85.090637%)" stop-opacity="1"/>
<stop offset="0.65625" stop-color="rgb(80.06897%, 72.808838%, 85.275269%)" stop-opacity="1"/>
<stop offset="0.671875" stop-color="rgb(80.345154%, 73.144531%, 85.458374%)" stop-opacity="1"/>
<stop offset="0.6875" stop-color="rgb(80.621338%, 73.48175%, 85.643005%)" stop-opacity="1"/>
<stop offset="0.703125" stop-color="rgb(80.895996%, 73.81897%, 85.826111%)" stop-opacity="1"/>
<stop offset="0.71875" stop-color="rgb(81.17218%, 74.156189%, 86.010742%)" stop-opacity="1"/>
<stop offset="0.734375" stop-color="rgb(81.448364%, 74.493408%, 86.193848%)" stop-opacity="1"/>
<stop offset="0.75" stop-color="rgb(81.723022%, 74.830627%, 86.376953%)" stop-opacity="1"/>
<stop offset="0.765625" stop-color="rgb(81.999207%, 75.167847%, 86.561584%)" stop-opacity="1"/>
<stop offset="0.78125" stop-color="rgb(82.275391%, 75.50354%, 86.74469%)" stop-opacity="1"/>
<stop offset="0.796875" stop-color="rgb(82.551575%, 75.840759%, 86.929321%)" stop-opacity="1"/>
<stop offset="0.8125" stop-color="rgb(82.826233%, 76.177979%, 87.112427%)" stop-opacity="1"/>
<stop offset="0.828125" stop-color="rgb(83.102417%, 76.515198%, 87.297058%)" stop-opacity="1"/>
<stop offset="0.84375" stop-color="rgb(83.378601%, 76.852417%, 87.480164%)" stop-opacity="1"/>
<stop offset="0.859375" stop-color="rgb(83.653259%, 77.189636%, 87.664795%)" stop-opacity="1"/>
<stop offset="0.875" stop-color="rgb(83.929443%, 77.526855%, 87.8479%)" stop-opacity="1"/>
<stop offset="0.890625" stop-color="rgb(84.205627%, 77.862549%, 88.032532%)" stop-opacity="1"/>
<stop offset="0.90625" stop-color="rgb(84.480286%, 78.199768%, 88.215637%)" stop-opacity="1"/>
<stop offset="0.921875" stop-color="rgb(84.75647%, 78.536987%, 88.400269%)" stop-opacity="1"/>
<stop offset="0.9375" stop-color="rgb(85.032654%, 78.874207%, 88.583374%)" stop-opacity="1"/>
<stop offset="0.953125" stop-color="rgb(85.308838%, 79.211426%, 88.768005%)" stop-opacity="1"/>
<stop offset="0.96875" stop-color="rgb(85.583496%, 79.548645%, 88.951111%)" stop-opacity="1"/>
<stop offset="0.984375" stop-color="rgb(85.85968%, 79.885864%, 89.135742%)" stop-opacity="1"/>
<stop offset="1" stop-color="rgb(86.135864%, 80.223083%, 89.318848%)" stop-opacity="1"/>
</linearGradient>
<clipPath id="clip-1">
<path clip-rule="nonzero" d="M 360.4375 716.898438 L 1639.558594 716.898438 L 1639.558594 1145.191406 L 360.4375 1145.191406 Z M 360.4375 716.898438 "/>
</clipPath>
<linearGradient id="linear-pattern-1" gradientUnits="userSpaceOnUse" x1="0.000000000000000111" y1="0" x2="1.000001" y2="0" gradientTransform="matrix(1279.12, 0, 0, 1279.12, 360.439, 931.05)">
<stop offset="0" stop-color="rgb(93.331909%, 30.979919%, 53.33252%)" stop-opacity="1"/>
<stop offset="0.015625" stop-color="rgb(93.31665%, 31.080627%, 53.338623%)" stop-opacity="1"/>
<stop offset="0.03125" stop-color="rgb(93.286133%, 31.282043%, 53.35083%)" stop-opacity="1"/>
<stop offset="0.046875" stop-color="rgb(93.255615%, 31.484985%, 53.363037%)" stop-opacity="1"/>
<stop offset="0.0625" stop-color="rgb(93.225098%, 31.686401%, 53.375244%)" stop-opacity="1"/>
<stop offset="0.078125" stop-color="rgb(93.19458%, 31.889343%, 53.387451%)" stop-opacity="1"/>
<stop offset="0.09375" stop-color="rgb(93.164062%, 32.090759%, 53.399658%)" stop-opacity="1"/>
<stop offset="0.109375" stop-color="rgb(93.133545%, 32.293701%, 53.411865%)" stop-opacity="1"/>
<stop offset="0.125" stop-color="rgb(93.103027%, 32.495117%, 53.424072%)" stop-opacity="1"/>
<stop offset="0.140625" stop-color="rgb(93.07251%, 32.698059%, 53.436279%)" stop-opacity="1"/>
<stop offset="0.15625" stop-color="rgb(93.041992%, 32.899475%, 53.448486%)" stop-opacity="1"/>
<stop offset="0.171875" stop-color="rgb(93.011475%, 33.102417%, 53.460693%)" stop-opacity="1"/>
<stop offset="0.1875" stop-color="rgb(92.979431%, 33.305359%, 53.4729%)" stop-opacity="1"/>
<stop offset="0.203125" stop-color="rgb(92.948914%, 33.506775%, 53.485107%)" stop-opacity="1"/>
<stop offset="0.21875" stop-color="rgb(92.918396%, 33.709717%, 53.497314%)" stop-opacity="1"/>
<stop offset="0.234375" stop-color="rgb(92.887878%, 33.911133%, 53.509521%)" stop-opacity="1"/>
<stop offset="0.25" stop-color="rgb(92.857361%, 34.114075%, 53.521729%)" stop-opacity="1"/>
<stop offset="0.265625" stop-color="rgb(92.826843%, 34.315491%, 53.535461%)" stop-opacity="1"/>
<stop offset="0.28125" stop-color="rgb(92.796326%, 34.518433%, 53.547668%)" stop-opacity="1"/>
<stop offset="0.296875" stop-color="rgb(92.765808%, 34.719849%, 53.559875%)" stop-opacity="1"/>
<stop offset="0.3125" stop-color="rgb(92.735291%, 34.922791%, 53.572083%)" stop-opacity="1"/>
<stop offset="0.328125" stop-color="rgb(92.704773%, 35.124207%, 53.58429%)" stop-opacity="1"/>
<stop offset="0.34375" stop-color="rgb(92.674255%, 35.327148%, 53.596497%)" stop-opacity="1"/>
<stop offset="0.359375" stop-color="rgb(92.643738%, 35.528564%, 53.608704%)" stop-opacity="1"/>
<stop offset="0.375" stop-color="rgb(92.61322%, 35.731506%, 53.620911%)" stop-opacity="1"/>
<stop offset="0.390625" stop-color="rgb(92.581177%, 35.932922%, 53.633118%)" stop-opacity="1"/>
<stop offset="0.40625" stop-color="rgb(92.550659%, 36.135864%, 53.645325%)" stop-opacity="1"/>
<stop offset="0.421875" stop-color="rgb(92.520142%, 36.33728%, 53.657532%)" stop-opacity="1"/>
<stop offset="0.4375" stop-color="rgb(92.489624%, 36.540222%, 53.669739%)" stop-opacity="1"/>
<stop offset="0.453125" stop-color="rgb(92.459106%, 36.741638%, 53.681946%)" stop-opacity="1"/>
<stop offset="0.46875" stop-color="rgb(92.428589%, 36.94458%, 53.694153%)" stop-opacity="1"/>
<stop offset="0.484375" stop-color="rgb(92.398071%, 37.145996%, 53.70636%)" stop-opacity="1"/>
<stop offset="0.5" stop-color="rgb(92.367554%, 37.348938%, 53.718567%)" stop-opacity="1"/>
<stop offset="0.515625" stop-color="rgb(92.337036%, 37.550354%, 53.730774%)" stop-opacity="1"/>
<stop offset="0.53125" stop-color="rgb(92.306519%, 37.753296%, 53.742981%)" stop-opacity="1"/>
<stop offset="0.546875" stop-color="rgb(92.276001%, 37.954712%, 53.755188%)" stop-opacity="1"/>
<stop offset="0.5625" stop-color="rgb(92.245483%, 38.157654%, 53.767395%)" stop-opacity="1"/>
<stop offset="0.578125" stop-color="rgb(92.214966%, 38.35907%, 53.779602%)" stop-opacity="1"/>
<stop offset="0.59375" stop-color="rgb(92.182922%, 38.562012%, 53.791809%)" stop-opacity="1"/>
<stop offset="0.609375" stop-color="rgb(92.152405%, 38.763428%, 53.804016%)" stop-opacity="1"/>
<stop offset="0.625" stop-color="rgb(92.121887%, 38.96637%, 53.816223%)" stop-opacity="1"/>
<stop offset="0.640625" stop-color="rgb(92.09137%, 39.169312%, 53.82843%)" stop-opacity="1"/>
<stop offset="0.65625" stop-color="rgb(92.060852%, 39.370728%, 53.840637%)" stop-opacity="1"/>
<stop offset="0.671875" stop-color="rgb(92.030334%, 39.573669%, 53.852844%)" stop-opacity="1"/>
<stop offset="0.6875" stop-color="rgb(91.999817%, 39.775085%, 53.865051%)" stop-opacity="1"/>
<stop offset="0.703125" stop-color="rgb(91.969299%, 39.978027%, 53.877258%)" stop-opacity="1"/>
<stop offset="0.71875" stop-color="rgb(91.938782%, 40.179443%, 53.889465%)" stop-opacity="1"/>
<stop offset="0.734375" stop-color="rgb(91.908264%, 40.382385%, 53.901672%)" stop-opacity="1"/>
<stop offset="0.75" stop-color="rgb(91.877747%, 40.583801%, 53.913879%)" stop-opacity="1"/>
<stop offset="0.765625" stop-color="rgb(91.847229%, 40.786743%, 53.927612%)" stop-opacity="1"/>
<stop offset="0.78125" stop-color="rgb(91.815186%, 40.988159%, 53.939819%)" stop-opacity="1"/>
<stop offset="0.796875" stop-color="rgb(91.784668%, 41.191101%, 53.952026%)" stop-opacity="1"/>
<stop offset="0.8125" stop-color="rgb(91.75415%, 41.392517%, 53.964233%)" stop-opacity="1"/>
<stop offset="0.828125" stop-color="rgb(91.723633%, 41.595459%, 53.97644%)" stop-opacity="1"/>
<stop offset="0.84375" stop-color="rgb(91.693115%, 41.796875%, 53.988647%)" stop-opacity="1"/>
<stop offset="0.859375" stop-color="rgb(91.662598%, 41.999817%, 54.000854%)" stop-opacity="1"/>
<stop offset="0.875" stop-color="rgb(91.63208%, 42.201233%, 54.013062%)" stop-opacity="1"/>
<stop offset="0.890625" stop-color="rgb(91.601562%, 42.404175%, 54.025269%)" stop-opacity="1"/>
<stop offset="0.90625" stop-color="rgb(91.571045%, 42.605591%, 54.037476%)" stop-opacity="1"/>
<stop offset="0.921875" stop-color="rgb(91.540527%, 42.808533%, 54.049683%)" stop-opacity="1"/>
<stop offset="0.9375" stop-color="rgb(91.51001%, 43.009949%, 54.06189%)" stop-opacity="1"/>
<stop offset="0.953125" stop-color="rgb(91.479492%, 43.212891%, 54.074097%)" stop-opacity="1"/>
<stop offset="0.96875" stop-color="rgb(91.448975%, 43.414307%, 54.086304%)" stop-opacity="1"/>
<stop offset="0.984375" stop-color="rgb(91.416931%, 43.617249%, 54.098511%)" stop-opacity="1"/>
<stop offset="1" stop-color="rgb(91.386414%, 43.818665%, 54.110718%)" stop-opacity="1"/>
</linearGradient>
<clipPath id="clip-2">
<path clip-rule="nonzero" d="M 419 1451 L 1581 1451 L 1581 1835 L 419 1835 Z M 419 1451 "/>
</clipPath>
<clipPath id="clip-3">
<path clip-rule="evenodd" d="M 1580.898438 1451.988281 L 419.105469 1659.921875 L 419.105469 1834.320312 L 1580.898438 1626.398438 L 1580.898438 1451.988281 "/>
</clipPath>
<linearGradient id="linear-pattern-2" gradientUnits="userSpaceOnUse" x1="-0.000000000079476" y1="0" x2="0.99999" y2="0" gradientTransform="matrix(0.00000002, -382.334, 382.334, 0.00000002, 1000, 1834.32)">
<stop offset="0" stop-color="rgb(68.626404%, 58.822632%, 77.645874%)" stop-opacity="1"/>
<stop offset="0.015625" stop-color="rgb(68.763733%, 58.990479%, 77.737427%)" stop-opacity="1"/>
<stop offset="0.03125" stop-color="rgb(69.039917%, 59.327698%, 77.922058%)" stop-opacity="1"/>
<stop offset="0.046875" stop-color="rgb(69.316101%, 59.664917%, 78.105164%)" stop-opacity="1"/>
<stop offset="0.0625" stop-color="rgb(69.590759%, 60.002136%, 78.289795%)" stop-opacity="1"/>
<stop offset="0.078125" stop-color="rgb(69.866943%, 60.339355%, 78.4729%)" stop-opacity="1"/>
<stop offset="0.09375" stop-color="rgb(70.143127%, 60.675049%, 78.657532%)" stop-opacity="1"/>
<stop offset="0.109375" stop-color="rgb(70.417786%, 61.012268%, 78.840637%)" stop-opacity="1"/>
<stop offset="0.125" stop-color="rgb(70.69397%, 61.349487%, 79.025269%)" stop-opacity="1"/>
<stop offset="0.140625" stop-color="rgb(70.970154%, 61.686707%, 79.208374%)" stop-opacity="1"/>
<stop offset="0.15625" stop-color="rgb(71.246338%, 62.023926%, 79.393005%)" stop-opacity="1"/>
<stop offset="0.171875" stop-color="rgb(71.520996%, 62.361145%, 79.576111%)" stop-opacity="1"/>
<stop offset="0.1875" stop-color="rgb(71.79718%, 62.698364%, 79.759216%)" stop-opacity="1"/>
<stop offset="0.203125" stop-color="rgb(72.073364%, 63.034058%, 79.943848%)" stop-opacity="1"/>
<stop offset="0.21875" stop-color="rgb(72.348022%, 63.371277%, 80.126953%)" stop-opacity="1"/>
<stop offset="0.234375" stop-color="rgb(72.624207%, 63.708496%, 80.311584%)" stop-opacity="1"/>
<stop offset="0.25" stop-color="rgb(72.900391%, 64.045715%, 80.49469%)" stop-opacity="1"/>
<stop offset="0.265625" stop-color="rgb(73.175049%, 64.382935%, 80.679321%)" stop-opacity="1"/>
<stop offset="0.28125" stop-color="rgb(73.451233%, 64.720154%, 80.862427%)" stop-opacity="1"/>
<stop offset="0.296875" stop-color="rgb(73.727417%, 65.057373%, 81.047058%)" stop-opacity="1"/>
<stop offset="0.3125" stop-color="rgb(74.003601%, 65.393066%, 81.230164%)" stop-opacity="1"/>
<stop offset="0.328125" stop-color="rgb(74.278259%, 65.730286%, 81.414795%)" stop-opacity="1"/>
<stop offset="0.34375" stop-color="rgb(74.554443%, 66.067505%, 81.5979%)" stop-opacity="1"/>
<stop offset="0.359375" stop-color="rgb(74.830627%, 66.404724%, 81.782532%)" stop-opacity="1"/>
<stop offset="0.375" stop-color="rgb(75.105286%, 66.741943%, 81.965637%)" stop-opacity="1"/>
<stop offset="0.390625" stop-color="rgb(75.38147%, 67.079163%, 82.150269%)" stop-opacity="1"/>
<stop offset="0.40625" stop-color="rgb(75.657654%, 67.416382%, 82.333374%)" stop-opacity="1"/>
<stop offset="0.421875" stop-color="rgb(75.933838%, 67.752075%, 82.518005%)" stop-opacity="1"/>
<stop offset="0.4375" stop-color="rgb(76.208496%, 68.089294%, 82.701111%)" stop-opacity="1"/>
<stop offset="0.453125" stop-color="rgb(76.48468%, 68.426514%, 82.884216%)" stop-opacity="1"/>
<stop offset="0.46875" stop-color="rgb(76.760864%, 68.763733%, 83.068848%)" stop-opacity="1"/>
<stop offset="0.484375" stop-color="rgb(77.035522%, 69.100952%, 83.251953%)" stop-opacity="1"/>
<stop offset="0.5" stop-color="rgb(77.311707%, 69.438171%, 83.436584%)" stop-opacity="1"/>
<stop offset="0.515625" stop-color="rgb(77.587891%, 69.775391%, 83.61969%)" stop-opacity="1"/>
<stop offset="0.53125" stop-color="rgb(77.862549%, 70.111084%, 83.804321%)" stop-opacity="1"/>
<stop offset="0.546875" stop-color="rgb(78.138733%, 70.448303%, 83.987427%)" stop-opacity="1"/>
<stop offset="0.5625" stop-color="rgb(78.414917%, 70.785522%, 84.172058%)" stop-opacity="1"/>
<stop offset="0.578125" stop-color="rgb(78.691101%, 71.122742%, 84.355164%)" stop-opacity="1"/>
<stop offset="0.59375" stop-color="rgb(78.965759%, 71.459961%, 84.539795%)" stop-opacity="1"/>
<stop offset="0.609375" stop-color="rgb(79.241943%, 71.79718%, 84.7229%)" stop-opacity="1"/>
<stop offset="0.625" stop-color="rgb(79.518127%, 72.134399%, 84.907532%)" stop-opacity="1"/>
<stop offset="0.640625" stop-color="rgb(79.792786%, 72.471619%, 85.090637%)" stop-opacity="1"/>
<stop offset="0.65625" stop-color="rgb(80.06897%, 72.807312%, 85.275269%)" stop-opacity="1"/>
<stop offset="0.671875" stop-color="rgb(80.345154%, 73.144531%, 85.458374%)" stop-opacity="1"/>
<stop offset="0.6875" stop-color="rgb(80.619812%, 73.48175%, 85.641479%)" stop-opacity="1"/>
<stop offset="0.703125" stop-color="rgb(80.895996%, 73.81897%, 85.826111%)" stop-opacity="1"/>
<stop offset="0.71875" stop-color="rgb(81.17218%, 74.156189%, 86.009216%)" stop-opacity="1"/>
<stop offset="0.734375" stop-color="rgb(81.448364%, 74.493408%, 86.193848%)" stop-opacity="1"/>
<stop offset="0.75" stop-color="rgb(81.723022%, 74.830627%, 86.376953%)" stop-opacity="1"/>
<stop offset="0.765625" stop-color="rgb(81.999207%, 75.166321%, 86.561584%)" stop-opacity="1"/>
<stop offset="0.78125" stop-color="rgb(82.275391%, 75.50354%, 86.74469%)" stop-opacity="1"/>
<stop offset="0.796875" stop-color="rgb(82.550049%, 75.840759%, 86.929321%)" stop-opacity="1"/>
<stop offset="0.8125" stop-color="rgb(82.826233%, 76.177979%, 87.112427%)" stop-opacity="1"/>
<stop offset="0.828125" stop-color="rgb(83.102417%, 76.515198%, 87.297058%)" stop-opacity="1"/>
<stop offset="0.84375" stop-color="rgb(83.377075%, 76.852417%, 87.480164%)" stop-opacity="1"/>
<stop offset="0.859375" stop-color="rgb(83.653259%, 77.189636%, 87.664795%)" stop-opacity="1"/>
<stop offset="0.875" stop-color="rgb(83.929443%, 77.52533%, 87.8479%)" stop-opacity="1"/>
<stop offset="0.890625" stop-color="rgb(84.205627%, 77.862549%, 88.032532%)" stop-opacity="1"/>
<stop offset="0.90625" stop-color="rgb(84.480286%, 78.199768%, 88.215637%)" stop-opacity="1"/>
<stop offset="0.921875" stop-color="rgb(84.75647%, 78.536987%, 88.400269%)" stop-opacity="1"/>
<stop offset="0.9375" stop-color="rgb(85.032654%, 78.874207%, 88.583374%)" stop-opacity="1"/>
<stop offset="0.953125" stop-color="rgb(85.307312%, 79.211426%, 88.766479%)" stop-opacity="1"/>
<stop offset="0.96875" stop-color="rgb(85.583496%, 79.548645%, 88.951111%)" stop-opacity="1"/>
<stop offset="0.984375" stop-color="rgb(85.85968%, 79.884338%, 89.134216%)" stop-opacity="1"/>
<stop offset="1" stop-color="rgb(86.135864%, 80.221558%, 89.318848%)" stop-opacity="1"/>
</linearGradient>
<clipPath id="clip-4">
<path clip-rule="nonzero" d="M 419 1180 L 1581 1180 L 1581 1513 L 419 1513 Z M 419 1180 "/>
</clipPath>
<clipPath id="clip-5">
<path clip-rule="evenodd" d="M 1580.898438 1180.359375 L 419.105469 1388.230469 L 419.105469 1512.191406 L 1580.898438 1304.308594 L 1580.898438 1180.359375 "/>
</clipPath>
<linearGradient id="linear-pattern-3" gradientUnits="userSpaceOnUse" x1="-0.0000000000527534" y1="0" x2="0.999994" y2="0" gradientTransform="matrix(0.00000001, -331.832, 331.832, 0.00000001, 1000, 1512.19)">
<stop offset="0" stop-color="rgb(68.626404%, 58.822632%, 77.645874%)" stop-opacity="1"/>
<stop offset="0.015625" stop-color="rgb(68.763733%, 58.990479%, 77.737427%)" stop-opacity="1"/>
<stop offset="0.03125" stop-color="rgb(69.039917%, 59.327698%, 77.922058%)" stop-opacity="1"/>
<stop offset="0.046875" stop-color="rgb(69.316101%, 59.664917%, 78.105164%)" stop-opacity="1"/>
<stop offset="0.0625" stop-color="rgb(69.590759%, 60.002136%, 78.289795%)" stop-opacity="1"/>
<stop offset="0.078125" stop-color="rgb(69.866943%, 60.339355%, 78.4729%)" stop-opacity="1"/>
<stop offset="0.09375" stop-color="rgb(70.143127%, 60.675049%, 78.657532%)" stop-opacity="1"/>
<stop offset="0.109375" stop-color="rgb(70.417786%, 61.012268%, 78.840637%)" stop-opacity="1"/>
<stop offset="0.125" stop-color="rgb(70.69397%, 61.349487%, 79.025269%)" stop-opacity="1"/>
<stop offset="0.140625" stop-color="rgb(70.970154%, 61.686707%, 79.208374%)" stop-opacity="1"/>
<stop offset="0.15625" stop-color="rgb(71.246338%, 62.023926%, 79.393005%)" stop-opacity="1"/>
<stop offset="0.171875" stop-color="rgb(71.520996%, 62.361145%, 79.576111%)" stop-opacity="1"/>
<stop offset="0.1875" stop-color="rgb(71.79718%, 62.698364%, 79.759216%)" stop-opacity="1"/>
<stop offset="0.203125" stop-color="rgb(72.073364%, 63.034058%, 79.943848%)" stop-opacity="1"/>
<stop offset="0.21875" stop-color="rgb(72.348022%, 63.371277%, 80.126953%)" stop-opacity="1"/>
<stop offset="0.234375" stop-color="rgb(72.624207%, 63.708496%, 80.311584%)" stop-opacity="1"/>
<stop offset="0.25" stop-color="rgb(72.900391%, 64.045715%, 80.49469%)" stop-opacity="1"/>
<stop offset="0.265625" stop-color="rgb(73.175049%, 64.382935%, 80.679321%)" stop-opacity="1"/>
<stop offset="0.28125" stop-color="rgb(73.451233%, 64.720154%, 80.862427%)" stop-opacity="1"/>
<stop offset="0.296875" stop-color="rgb(73.727417%, 65.057373%, 81.047058%)" stop-opacity="1"/>
<stop offset="0.3125" stop-color="rgb(74.003601%, 65.393066%, 81.230164%)" stop-opacity="1"/>
<stop offset="0.328125" stop-color="rgb(74.278259%, 65.730286%, 81.414795%)" stop-opacity="1"/>
<stop offset="0.34375" stop-color="rgb(74.554443%, 66.067505%, 81.5979%)" stop-opacity="1"/>
<stop offset="0.359375" stop-color="rgb(74.830627%, 66.404724%, 81.782532%)" stop-opacity="1"/>
<stop offset="0.375" stop-color="rgb(75.105286%, 66.741943%, 81.965637%)" stop-opacity="1"/>
<stop offset="0.390625" stop-color="rgb(75.38147%, 67.079163%, 82.150269%)" stop-opacity="1"/>
<stop offset="0.40625" stop-color="rgb(75.657654%, 67.416382%, 82.333374%)" stop-opacity="1"/>
<stop offset="0.421875" stop-color="rgb(75.933838%, 67.752075%, 82.518005%)" stop-opacity="1"/>
<stop offset="0.4375" stop-color="rgb(76.208496%, 68.089294%, 82.701111%)" stop-opacity="1"/>
<stop offset="0.453125" stop-color="rgb(76.48468%, 68.426514%, 82.884216%)" stop-opacity="1"/>
<stop offset="0.46875" stop-color="rgb(76.760864%, 68.763733%, 83.068848%)" stop-opacity="1"/>
<stop offset="0.484375" stop-color="rgb(77.035522%, 69.100952%, 83.251953%)" stop-opacity="1"/>
<stop offset="0.5" stop-color="rgb(77.311707%, 69.438171%, 83.436584%)" stop-opacity="1"/>
<stop offset="0.515625" stop-color="rgb(77.587891%, 69.775391%, 83.61969%)" stop-opacity="1"/>
<stop offset="0.53125" stop-color="rgb(77.862549%, 70.11261%, 83.804321%)" stop-opacity="1"/>
<stop offset="0.546875" stop-color="rgb(78.138733%, 70.448303%, 83.987427%)" stop-opacity="1"/>
<stop offset="0.5625" stop-color="rgb(78.414917%, 70.785522%, 84.172058%)" stop-opacity="1"/>
<stop offset="0.578125" stop-color="rgb(78.691101%, 71.122742%, 84.355164%)" stop-opacity="1"/>
<stop offset="0.59375" stop-color="rgb(78.965759%, 71.459961%, 84.539795%)" stop-opacity="1"/>
<stop offset="0.609375" stop-color="rgb(79.241943%, 71.79718%, 84.7229%)" stop-opacity="1"/>
<stop offset="0.625" stop-color="rgb(79.518127%, 72.134399%, 84.907532%)" stop-opacity="1"/>
<stop offset="0.640625" stop-color="rgb(79.792786%, 72.471619%, 85.090637%)" stop-opacity="1"/>
<stop offset="0.65625" stop-color="rgb(80.06897%, 72.807312%, 85.275269%)" stop-opacity="1"/>
<stop offset="0.671875" stop-color="rgb(80.345154%, 73.144531%, 85.458374%)" stop-opacity="1"/>
<stop offset="0.6875" stop-color="rgb(80.619812%, 73.48175%, 85.643005%)" stop-opacity="1"/>
<stop offset="0.703125" stop-color="rgb(80.895996%, 73.81897%, 85.826111%)" stop-opacity="1"/>
<stop offset="0.71875" stop-color="rgb(81.17218%, 74.156189%, 86.009216%)" stop-opacity="1"/>
<stop offset="0.734375" stop-color="rgb(81.448364%, 74.493408%, 86.193848%)" stop-opacity="1"/>
<stop offset="0.75" stop-color="rgb(81.723022%, 74.830627%, 86.376953%)" stop-opacity="1"/>
<stop offset="0.765625" stop-color="rgb(81.999207%, 75.166321%, 86.561584%)" stop-opacity="1"/>
<stop offset="0.78125" stop-color="rgb(82.275391%, 75.50354%, 86.74469%)" stop-opacity="1"/>
<stop offset="0.796875" stop-color="rgb(82.550049%, 75.840759%, 86.929321%)" stop-opacity="1"/>
<stop offset="0.8125" stop-color="rgb(82.826233%, 76.177979%, 87.112427%)" stop-opacity="1"/>
<stop offset="0.828125" stop-color="rgb(83.102417%, 76.515198%, 87.297058%)" stop-opacity="1"/>
<stop offset="0.84375" stop-color="rgb(83.378601%, 76.852417%, 87.480164%)" stop-opacity="1"/>
<stop offset="0.859375" stop-color="rgb(83.653259%, 77.189636%, 87.664795%)" stop-opacity="1"/>
<stop offset="0.875" stop-color="rgb(83.929443%, 77.52533%, 87.8479%)" stop-opacity="1"/>
<stop offset="0.890625" stop-color="rgb(84.205627%, 77.862549%, 88.032532%)" stop-opacity="1"/>
<stop offset="0.90625" stop-color="rgb(84.480286%, 78.199768%, 88.215637%)" stop-opacity="1"/>
<stop offset="0.921875" stop-color="rgb(84.75647%, 78.536987%, 88.400269%)" stop-opacity="1"/>
<stop offset="0.9375" stop-color="rgb(85.032654%, 78.874207%, 88.583374%)" stop-opacity="1"/>
<stop offset="0.953125" stop-color="rgb(85.307312%, 79.211426%, 88.766479%)" stop-opacity="1"/>
<stop offset="0.96875" stop-color="rgb(85.583496%, 79.548645%, 88.951111%)" stop-opacity="1"/>
<stop offset="0.984375" stop-color="rgb(85.85968%, 79.885864%, 89.134216%)" stop-opacity="1"/>
<stop offset="1" stop-color="rgb(86.135864%, 80.221558%, 89.318848%)" stop-opacity="1"/>
</linearGradient>
</defs>

<path fill-rule="nonzero" fill="rgb(83.59375%, 94.139099%, 100%)" fill-opacity="1" d="M 1502.109375 1623.5 C 871.601562 1802.601562 549.984375 1738.199219 344.042969 1605.800781 C 154.792969 1484.148438 -234.34375 782.898438 341.570312 718.789062 C 594.816406 642.921875 268.417969 570.730469 461.621094 250.21875 C 788.644531 -264.71875 940.195312 384.808594 1199.460938 480.089844 C 1373.71875 500.71875 1652.808594 226.660156 1877.289062 651.011719 C 2069.28125 1075.390625 1925.578125 1511.878906 1502.109375 1623.5 "/>
<path fill-rule="evenodd" fill="rgb(87.5%, 81.25%, 99.21875%)" fill-opacity="1" d="M 1094.710938 932.988281 C 1079.269531 701.601562 1034.269531 246.140625 1020.191406 254.761719 C 1029.871094 287.921875 1076.761719 768.808594 1050.058594 958.679688 L 1094.710938 932.988281 "/>
<path fill-rule="evenodd" fill="rgb(87.5%, 81.25%, 99.21875%)" fill-opacity="1" d="M 1009.261719 185.21875 C 1019.371094 199.148438 1038.578125 207.5 1042.199219 227.511719 C 1045.828125 247.519531 1039.019531 266.75 1026.050781 278.621094 C 1009.71875 272.050781 996.722656 256.339844 993.101562 236.328125 C 989.53125 216.359375 1003.671875 202.878906 1009.261719 185.21875 "/>
<path fill-rule="evenodd" fill="rgb(87.5%, 81.25%, 99.21875%)" fill-opacity="1" d="M 966.0625 306.921875 C 978.597656 307.019531 991.808594 299.371094 1005.078125 305.980469 C 1018.390625 312.539062 1026.738281 324.820312 1028.019531 337.519531 C 1017.078125 344.21875 1002.28125 345.070312 988.972656 338.519531 C 975.753906 331.941406 973.964844 317.839844 966.0625 306.921875 "/>
<path fill-rule="evenodd" fill="rgb(87.5%, 81.25%, 99.21875%)" fill-opacity="1" d="M 1068.488281 270.660156 C 1066.339844 279.539062 1069.640625 290.089844 1062.871094 298.378906 C 1056.011719 306.691406 1046.019531 310.550781 1036.839844 309.398438 C 1033.871094 300.671875 1035.71875 290.058594 1042.480469 281.769531 C 1049.28125 273.429688 1059.46875 274.5 1068.488281 270.660156 "/>
<path fill-rule="evenodd" fill="rgb(87.5%, 81.25%, 99.21875%)" fill-opacity="1" d="M 1108.828125 337.339844 C 1094 343.738281 1074.480469 341.28125 1061.980469 355.730469 C 1049.578125 370.160156 1045.800781 388.890625 1050.671875 404.671875 C 1066.929688 407.128906 1084.929688 400.761719 1097.429688 386.308594 C 1109.929688 371.859375 1104.871094 354.261719 1108.828125 337.339844 "/>
<path fill-rule="evenodd" fill="rgb(87.5%, 81.25%, 99.21875%)" fill-opacity="1" d="M 948.597656 405.351562 C 966.59375 405.5 985.523438 394.570312 1004.570312 403.941406 C 1023.640625 413.390625 1035.640625 431.03125 1037.46875 449.308594 C 1021.828125 458.929688 1000.539062 460.089844 981.496094 450.71875 C 962.425781 441.269531 959.90625 421.03125 948.597656 405.351562 "/>
<path fill-rule="evenodd" fill="rgb(87.5%, 81.25%, 99.21875%)" fill-opacity="1" d="M 1154.699219 425.828125 C 1132.820312 433.230469 1105.28125 427.421875 1085.851562 446.578125 C 1066.359375 465.699219 1058.75 492.019531 1063.808594 515.101562 C 1086.828125 520.519531 1113.230469 513.5 1132.75 494.328125 C 1152.238281 475.210938 1147.171875 449.519531 1154.699219 425.828125 "/>
<path fill-rule="evenodd" fill="rgb(87.5%, 81.25%, 99.21875%)" fill-opacity="1" d="M 901.050781 512.398438 C 930.382812 512.671875 961.390625 494.75 992.492188 510.160156 C 1023.628906 525.511719 1043.21875 554.320312 1046.25 584.199219 C 1020.628906 599.910156 985.914062 601.851562 954.78125 586.5 C 923.621094 571.058594 919.503906 538.019531 901.050781 512.398438 "/>
<path fill-rule="evenodd" fill="rgb(87.5%, 81.25%, 99.21875%)" fill-opacity="1" d="M 1228.96875 544.5 C 1194.679688 552.839844 1153.589844 540.398438 1121.429688 566.898438 C 1089.261719 593.398438 1074.289062 632.398438 1078.871094 668.160156 C 1113.121094 679.511719 1154.25 672.261719 1186.421875 645.761719 C 1218.578125 619.261719 1214.289062 579.511719 1228.96875 544.5 "/>
<path fill-rule="evenodd" fill="rgb(87.5%, 81.25%, 99.21875%)" fill-opacity="1" d="M 853.71875 641.210938 C 896.222656 646.261719 943.796875 625.269531 986.429688 652.46875 C 1028.96875 679.699219 1052.628906 724.410156 1052.351562 768.109375 C 1012.828125 786.769531 962.269531 784.058594 919.695312 756.878906 C 877.097656 729.621094 876.484375 681.171875 853.71875 641.210938 "/>
<path fill-rule="evenodd" fill="rgb(87.5%, 81.25%, 99.21875%)" fill-opacity="1" d="M 1132.171875 964.921875 C 1285.789062 691.121094 1571.519531 141.300781 1549.21875 140.671875 C 1535.660156 185.398438 1233.238281 765.488281 1062.628906 961.101562 L 1132.171875 964.921875 "/>
<path fill-rule="evenodd" fill="rgb(87.5%, 81.25%, 99.21875%)" fill-opacity="1" d="M 1588.199219 53.820312 C 1589.390625 77.050781 1605.011719 100.691406 1594.328125 126.078125 C 1583.601562 151.429688 1561.699219 168.230469 1538.21875 172.089844 C 1524.578125 152.601562 1521.441406 125.160156 1532.121094 99.78125 C 1542.851562 74.429688 1568.800781 69.660156 1588.199219 53.820312 "/>
<path fill-rule="evenodd" fill="rgb(87.5%, 81.25%, 99.21875%)" fill-opacity="1" d="M 1449.269531 159.878906 C 1463.429688 169.238281 1484.039062 170.351562 1494.269531 187.601562 C 1504.460938 204.910156 1504.789062 224.96875 1496.910156 240.378906 C 1479.539062 239.929688 1462.140625 229.910156 1451.921875 212.660156 C 1441.71875 195.351562 1450.160156 178.121094 1449.269531 159.878906 "/>
<path fill-rule="evenodd" fill="rgb(87.5%, 81.25%, 99.21875%)" fill-opacity="1" d="M 1592.171875 194.460938 C 1583.269531 202.960938 1579.128906 217.320312 1565.320312 221.738281 C 1551.460938 226.109375 1537.25 223.089844 1527.648438 215.03125 C 1530.78125 202.878906 1540.691406 192.160156 1554.550781 187.78125 C 1568.359375 183.371094 1579.160156 192.148438 1592.171875 194.460938 "/>
<path fill-rule="evenodd" fill="rgb(87.5%, 81.25%, 99.21875%)" fill-opacity="1" d="M 1588.640625 299.878906 C 1567.089844 296.21875 1546.78125 278.988281 1522 286.160156 C 1497.171875 293.300781 1479.101562 311.78125 1472.898438 333.21875 C 1489.550781 348.128906 1514.730469 354.171875 1539.5 347 C 1564.371094 339.808594 1571.71875 316.160156 1588.640625 299.878906 "/>
<path fill-rule="evenodd" fill="rgb(87.5%, 81.25%, 99.21875%)" fill-opacity="1" d="M 1356.648438 258.578125 C 1376.929688 272.011719 1406.539062 273.558594 1421.160156 298.390625 C 1435.808594 323.160156 1436.351562 352.011719 1425.019531 374.109375 C 1400.140625 373.441406 1375.078125 359.101562 1360.460938 334.269531 C 1345.800781 309.5 1357.929688 284.679688 1356.648438 258.578125 "/>
<path fill-rule="evenodd" fill="rgb(87.5%, 81.25%, 99.21875%)" fill-opacity="1" d="M 1575.261719 434.160156 C 1544.980469 426.359375 1518.019531 399.46875 1481.828125 406.769531 C 1445.589844 414.03125 1417.550781 438.308594 1406.210938 468.191406 C 1428.269531 491.351562 1463.449219 502.871094 1499.691406 495.609375 C 1535.941406 488.351562 1549.160156 455.441406 1575.261719 434.160156 "/>
<path fill-rule="evenodd" fill="rgb(87.5%, 81.25%, 99.21875%)" fill-opacity="1" d="M 1223.578125 344.769531 C 1256.699219 366.78125 1305.039062 369.359375 1328.96875 409.859375 C 1352.929688 450.308594 1353.808594 497.441406 1335.179688 533.601562 C 1294.570312 532.480469 1253.671875 508.96875 1229.761719 468.558594 C 1205.828125 428.058594 1225.660156 387.511719 1223.578125 344.769531 "/>
<path fill-rule="evenodd" fill="rgb(87.5%, 81.25%, 99.21875%)" fill-opacity="1" d="M 1571.699219 623.609375 C 1526.660156 607.71875 1489.300781 563.261719 1433.210938 569.488281 C 1377.140625 575.820312 1331.320312 608.96875 1310.078125 652.910156 C 1340.519531 691.050781 1392.539062 713.300781 1448.609375 706.96875 C 1504.699219 700.738281 1529.25 652.460938 1571.699219 623.609375 "/>
<path fill-rule="evenodd" fill="rgb(87.5%, 81.25%, 99.21875%)" fill-opacity="1" d="M 1074.691406 455.898438 C 1119.148438 493.011719 1188.640625 504.421875 1216.800781 566.769531 C 1245 629.070312 1238.761719 697.320312 1206.101562 746.648438 C 1147.46875 738.558594 1092.148438 698.121094 1063.988281 635.769531 C 1035.820312 573.421875 1070.921875 517.980469 1074.691406 455.898438 "/>
<path fill-rule="evenodd" fill="rgb(87.5%, 81.25%, 99.21875%)" fill-opacity="1" d="M 1150.71875 1020.230469 C 1366.390625 845.109375 1780.808594 486.171875 1762.679688 478.378906 C 1736.949219 510.769531 1298.929688 889.140625 1094.710938 994.351562 L 1150.71875 1020.230469 "/>
<path fill-rule="evenodd" fill="rgb(87.5%, 81.25%, 99.21875%)" fill-opacity="1" d="M 1823.078125 419.640625 C 1816.449219 439.199219 1821.601562 463.75 1804.5 481.101562 C 1787.390625 498.449219 1763.929688 505.140625 1743.390625 500.660156 C 1738.519531 480.140625 1744.871094 456.558594 1761.96875 439.210938 C 1779.03125 421.828125 1801.960938 426.390625 1823.078125 419.640625 "/>
<path fill-rule="evenodd" fill="rgb(87.5%, 81.25%, 99.21875%)" fill-opacity="1" d="M 1674.179688 461.550781 C 1682.78125 473.910156 1699.378906 481.53125 1702.128906 499.019531 C 1704.898438 516.589844 1698.640625 533.261719 1687.121094 543.320312 C 1673.011719 537.25 1661.921875 523.339844 1659.171875 505.851562 C 1656.398438 488.28125 1668.96875 476.828125 1674.179688 461.550781 "/>
<path fill-rule="evenodd" fill="rgb(87.5%, 81.25%, 99.21875%)" fill-opacity="1" d="M 1780.449219 536.640625 C 1770.328125 540.71875 1762.261719 551.199219 1749.460938 550.28125 C 1736.640625 549.421875 1725.921875 542.25 1720.679688 532.46875 C 1727.230469 523.539062 1738.839844 517.96875 1751.628906 518.890625 C 1764.460938 519.75 1770.511719 530.53125 1780.449219 536.640625 "/>
<path fill-rule="evenodd" fill="rgb(87.5%, 81.25%, 99.21875%)" fill-opacity="1" d="M 1743.128906 622.191406 C 1726.648438 612.121094 1715.539062 591.371094 1692.828125 589.171875 C 1670.070312 586.941406 1649.140625 596.238281 1637.078125 611.839844 C 1645.929688 629.53125 1664.640625 642.710938 1687.351562 644.910156 C 1710.109375 647.140625 1723.878906 630.039062 1743.128906 622.191406 "/>
<path fill-rule="evenodd" fill="rgb(87.5%, 81.25%, 99.21875%)" fill-opacity="1" d="M 1565.820312 512.441406 C 1578.121094 530.191406 1601.941406 541.128906 1605.910156 566.308594 C 1609.871094 591.480469 1600.898438 615.359375 1584.320312 629.828125 C 1564.101562 621.179688 1548.160156 601.199219 1544.191406 576.019531 C 1540.28125 550.878906 1558.351562 534.398438 1565.820312 512.441406 "/>
<path fill-rule="evenodd" fill="rgb(87.5%, 81.25%, 99.21875%)" fill-opacity="1" d="M 1688.308594 728.261719 C 1665.960938 711.960938 1652.570312 681.050781 1620.378906 675.230469 C 1588.191406 669.398438 1557.269531 680.191406 1538.191406 701.109375 C 1548.75 727.300781 1573.929688 748.308594 1606.121094 754.140625 C 1638.308594 759.960938 1659.949219 737.21875 1688.308594 728.261719 "/>
<path fill-rule="evenodd" fill="rgb(87.5%, 81.25%, 99.21875%)" fill-opacity="1" d="M 1428.230469 540.011719 C 1448.28125 568.941406 1487.261719 586.800781 1493.71875 627.898438 C 1500.171875 669.011719 1485.539062 708.050781 1458.410156 731.679688 C 1425.390625 717.511719 1399.378906 684.890625 1392.921875 643.789062 C 1386.46875 602.691406 1415.980469 575.800781 1428.230469 540.011719 "/>
<path fill-rule="evenodd" fill="rgb(87.5%, 81.25%, 99.21875%)" fill-opacity="1" d="M 1623.578125 882.910156 C 1591.699219 855.191406 1575.511719 806.390625 1527.351562 793.238281 C 1479.140625 780.070312 1430.671875 792.449219 1398.828125 821.660156 C 1411.441406 863.011719 1446.949219 898.21875 1495.101562 911.359375 C 1543.261719 924.5 1579.261719 892.789062 1623.578125 882.910156 "/>
<path fill-rule="evenodd" fill="rgb(87.5%, 81.25%, 99.21875%)" fill-opacity="1" d="M 1269.550781 582.789062 C 1293.960938 627.859375 1347.441406 659.878906 1350.191406 720.351562 C 1353.03125 780.800781 1325.691406 834.910156 1282.710938 864.769531 C 1237.140625 839.011719 1204.871094 787.710938 1202.03125 727.269531 C 1199.199219 666.820312 1246.140625 632.640625 1269.550781 582.789062 "/>
<path fill-rule="evenodd" fill="rgb(87.5%, 90.234375%, 100%)" fill-opacity="1" d="M 1000 1946.179688 C 1467.988281 1946.179688 1849.820312 1920.648438 1849.820312 1889.449219 C 1849.820312 1858.171875 1467.988281 1832.640625 1000 1832.640625 C 531.917969 1832.640625 150.183594 1858.171875 150.183594 1889.449219 C 150.183594 1920.648438 531.917969 1946.179688 1000 1946.179688 "/>
<path fill-rule="nonzero" fill="rgb(100%, 100%, 100%)" fill-opacity="1" d="M 652.523438 244.578125 L 661.324219 294.460938 L 711.214844 303.269531 L 661.324219 312.070312 L 652.523438 361.960938 L 643.722656 312.070312 L 593.835938 303.269531 L 643.722656 294.460938 L 652.523438 244.578125 "/>
<path fill-rule="nonzero" fill="rgb(100%, 100%, 100%)" fill-opacity="1" d="M 192.722656 1042.550781 L 201.519531 1092.441406 L 251.410156 1101.238281 L 201.519531 1110.039062 L 192.722656 1159.929688 L 183.917969 1110.039062 L 134.03125 1101.238281 L 183.917969 1092.441406 L 192.722656 1042.550781 "/>
<path fill-rule="nonzero" fill="rgb(100%, 100%, 100%)" fill-opacity="1" d="M 1791.128906 833.230469 L 1799.929688 883.109375 L 1849.820312 891.921875 L 1799.929688 900.71875 L 1791.128906 950.609375 L 1782.320312 900.71875 L 1732.441406 891.921875 L 1782.320312 883.109375 L 1791.128906 833.230469 "/>
<path fill-rule="evenodd" fill="rgb(8.227539%, 28.24707%, 61.521912%)" fill-opacity="1" d="M 1063.648438 716.898438 L 593.839844 716.898438 C 592.6875 266.320312 910.277344 668.53125 1063.648438 716.898438 "/>
<path fill-rule="evenodd" fill="rgb(29.417419%, 46.263123%, 72.851562%)" fill-opacity="1" d="M 936.351562 716.898438 L 1406.160156 716.898438 C 1407.308594 266.320312 1089.71875 668.53125 936.351562 716.898438 "/>
<g clip-path="url(#clip-0)">
<path fill-rule="nonzero" fill="url(#linear-pattern-0)" d="M 419.105469 716.898438 L 419.105469 1878.75 L 1580.898438 1878.75 L 1580.898438 716.898438 Z M 419.105469 716.898438 "/>
</g>
<g clip-path="url(#clip-1)">
<path fill-rule="nonzero" fill="url(#linear-pattern-1)" d="M 360.4375 716.898438 L 360.4375 1145.191406 L 1639.558594 1145.191406 L 1639.558594 716.898438 Z M 360.4375 716.898438 "/>
</g>
<g clip-path="url(#clip-2)">
<g clip-path="url(#clip-3)">
<path fill-rule="nonzero" fill="url(#linear-pattern-2)" d="M 419.105469 1834.320312 L 1580.898438 1834.320312 L 1580.898438 1451.988281 L 419.105469 1451.988281 Z M 419.105469 1834.320312 "/>
</g>
</g>
<g clip-path="url(#clip-4)">
<g clip-path="url(#clip-5)">
<path fill-rule="nonzero" fill="url(#linear-pattern-3)" d="M 419.105469 1512.191406 L 1580.898438 1512.191406 L 1580.898438 1180.359375 L 419.105469 1180.359375 Z M 419.105469 1512.191406 "/>
</g>
</g>
<path fill-rule="evenodd" fill="rgb(49.021912%, 50.193787%, 73.631287%)" fill-opacity="1" d="M 881.246094 1878.75 L 1118.75 1878.75 L 1118.75 716.898438 L 881.246094 716.898438 L 881.246094 1878.75 "/>
<path fill-rule="evenodd" fill="rgb(100%, 100%, 100%)" fill-opacity="1" d="M 1419.019531 909.828125 L 1453.738281 907.558594 L 1454.25 953.378906 L 1419.609375 953.378906 L 1419.019531 909.828125 "/>
<path fill-rule="evenodd" fill="rgb(8.227539%, 28.24707%, 61.521912%)" fill-opacity="1" d="M 1419.609375 942.449219 C 1429.78125 944.21875 1444.238281 952.710938 1454.25 942.449219 C 1463.910156 969.519531 1510.160156 1007.269531 1492.328125 1014.339844 C 1463.910156 1007.269531 1413.71875 962.039062 1411.949219 955.230469 C 1411.949219 949.929688 1415.820312 945.640625 1419.609375 942.449219 "/>
<path fill-rule="evenodd" fill="rgb(92.576599%, 50.976562%, 36.083984%)" fill-opacity="1" d="M 1286.261719 549.050781 L 1248.421875 540.730469 C 1244.980469 552.75 1236.230469 571.5 1238.078125 576.960938 L 1291.890625 659.699219 L 1312.910156 651.621094 L 1275.078125 577.71875 L 1286.261719 549.050781 "/>
<path fill-rule="evenodd" fill="rgb(92.576599%, 50.976562%, 36.083984%)" fill-opacity="1" d="M 1418.261719 549.050781 L 1456.101562 540.730469 C 1459.539062 552.75 1468.289062 571.5 1466.441406 576.960938 L 1412.628906 659.699219 L 1391.609375 651.621094 L 1429.359375 577.71875 L 1418.261719 549.050781 "/>
<path fill-rule="evenodd" fill="rgb(8.616638%, 71.679688%, 61.914062%)" fill-opacity="1" d="M 1352.261719 448.070312 L 1336.871094 446.898438 C 1319.808594 463.800781 1278.269531 464.378906 1270.621094 478.339844 C 1260.609375 494.230469 1253.71875 523.660156 1245.230469 546.359375 L 1287.519531 555.269531 L 1287.519531 661.378906 L 1417 661.378906 L 1417 555.269531 L 1459.289062 546.359375 C 1450.878906 523.660156 1443.898438 494.230469 1433.980469 478.339844 C 1426.25 464.378906 1384.710938 463.800781 1367.648438 446.898438 L 1352.261719 448.070312 "/>
<path fill-rule="evenodd" fill="rgb(92.576599%, 50.976562%, 36.083984%)" fill-opacity="1" d="M 1354.359375 419.320312 L 1331.238281 419.320312 L 1331.238281 461.859375 C 1331.410156 469.601562 1343.429688 481.960938 1352.261719 480.269531 C 1361.089844 481.960938 1373.109375 469.601562 1373.28125 461.859375 L 1373.28125 419.320312 L 1354.359375 419.320312 "/>
<path fill-rule="evenodd" fill="rgb(94.53125%, 68.164062%, 55.664062%)" fill-opacity="1" d="M 1356.878906 360.96875 L 1352.261719 361.140625 L 1347.640625 360.96875 L 1347.640625 361.390625 L 1312.570312 362.898438 C 1314.421875 387.449219 1311.988281 422.339844 1319.550781 435.628906 C 1324.011719 443.949219 1336.789062 450.261719 1347.800781 451.691406 C 1349.230469 451.941406 1350.75 452.019531 1352.261719 452.019531 C 1353.859375 452.019531 1355.289062 451.941406 1356.71875 451.691406 C 1367.730469 450.261719 1380.511719 443.949219 1384.96875 435.628906 C 1392.53125 422.339844 1390.179688 387.449219 1391.941406 362.898438 L 1356.878906 361.390625 L 1356.878906 360.96875 "/>
<path fill-rule="evenodd" fill="rgb(10.205078%, 8.616638%, 30.979919%)" fill-opacity="1" d="M 1313.160156 395.78125 C 1311.308594 392.25 1307.359375 382.320312 1307.03125 378.539062 C 1306.769531 375.261719 1305.429688 373.660156 1305.679688 368.109375 C 1305.929688 362.820312 1303.578125 358.78125 1306.941406 352.898438 C 1307.609375 351.71875 1315.011719 338.859375 1315.269531 342.300781 C 1315.429688 344.070312 1319.808594 339.441406 1323.5 338.601562 C 1325.351562 338.269531 1335.78125 333.640625 1335.78125 335.070312 C 1335.78125 336.839844 1348.808594 333.308594 1351.921875 333.308594 C 1354.609375 333.308594 1359.828125 331.628906 1357.980469 335.910156 C 1358.140625 336 1372.351562 332.71875 1375.800781 334.148438 C 1380.089844 335.910156 1380.929688 332.128906 1379.078125 337.511719 C 1378.320312 337.679688 1397.75 333.640625 1394.890625 337.261719 C 1391.101562 342.050781 1390.511719 338.269531 1401.699219 343.308594 C 1409.601562 346.839844 1394.71875 345.828125 1400.441406 352.898438 C 1401.78125 354.488281 1405.648438 360.71875 1401.191406 360.300781 C 1399.261719 360.128906 1401.019531 367.859375 1401.019531 370.96875 C 1401.019531 377.28125 1394.800781 381.738281 1394.128906 389.71875 C 1393.789062 393.171875 1388.75 402.328125 1389.171875 392.921875 C 1389.25 391.070312 1387.488281 386.949219 1387.570312 383.75 C 1387.738281 379.628906 1383.960938 366.429688 1378.488281 367.191406 C 1376.21875 367.53125 1373.78125 365.929688 1368.738281 368.960938 C 1361.761719 373.238281 1373.949219 362.648438 1359.238281 368.371094 C 1358.058594 368.871094 1351 370.96875 1351 370.128906 C 1351.171875 365.589844 1348.898438 367.019531 1343.261719 367.019531 C 1331.578125 367.019531 1330.820312 371.140625 1328.628906 371.558594 C 1327.710938 370.46875 1329.558594 362.570312 1319.300781 368.371094 C 1313.421875 371.648438 1315.851562 385.859375 1314.261719 391.570312 C 1313.75 393.171875 1313.160156 395.859375 1313.160156 395.78125 "/>
<path fill-rule="evenodd" fill="rgb(100%, 100%, 100%)" fill-opacity="1" d="M 1287.269531 909.828125 L 1252.628906 907.558594 L 1252.039062 953.378906 L 1286.679688 953.378906 L 1287.269531 909.828125 "/>
<path fill-rule="evenodd" fill="rgb(8.227539%, 28.24707%, 61.521912%)" fill-opacity="1" d="M 1286.679688 942.449219 C 1276.511719 944.21875 1262.039062 952.710938 1252.039062 942.449219 C 1242.449219 969.519531 1196.128906 1007.269531 1213.949219 1014.339844 C 1242.449219 1007.269531 1292.648438 962.039062 1294.410156 955.230469 C 1294.410156 949.929688 1290.460938 945.640625 1286.679688 942.449219 "/>
<path fill-rule="evenodd" fill="rgb(8.227539%, 28.24707%, 61.521912%)" fill-opacity="1" d="M 1374.289062 661.378906 L 1286.679688 661.378906 C 1271.460938 695.179688 1243.550781 744.109375 1241.191406 762.78125 L 1242.121094 922.101562 L 1291.980469 920.671875 L 1320.480469 775.050781 L 1356.71875 720.988281 L 1390.179688 775.558594 L 1413.71875 920.671875 L 1462.820312 920.671875 C 1462.910156 869.128906 1464.761719 815.738281 1463.910156 764.628906 C 1463.488281 740.578125 1433.230469 695.769531 1417.921875 661.378906 L 1374.289062 661.378906 "/>
<path fill-rule="evenodd" fill="rgb(55.271912%, 68.554688%, 85.9375%)" fill-opacity="1" d="M 1247.921875 597.480469 L 1456.601562 597.480469 C 1461.558594 597.480469 1464.171875 602.101562 1462.488281 607.738281 C 1455.679688 629.429688 1449.371094 649.609375 1443.570312 668.441406 C 1438.101562 686.011719 1432.96875 702.488281 1428.179688 717.960938 C 1427.511719 719.980469 1425.910156 721.828125 1423.890625 723.011719 C 1422.628906 723.929688 1421.121094 724.441406 1419.441406 724.441406 L 1285.171875 724.441406 C 1283.480469 724.441406 1281.890625 723.929688 1280.628906 723.011719 C 1278.691406 721.828125 1277.011719 719.980469 1276.421875 717.960938 C 1271.539062 702.488281 1266.5 686.011719 1261.039062 668.441406 C 1255.148438 649.609375 1248.839844 629.429688 1242.121094 607.738281 C 1240.351562 602.101562 1242.960938 597.480469 1247.921875 597.480469 "/>
<path fill-rule="evenodd" fill="rgb(70.117188%, 79.296875%, 83.984375%)" fill-opacity="1" d="M 1253.46875 601.511719 L 1451.050781 601.511719 C 1455.761719 601.511719 1458.28125 605.890625 1456.601562 611.101562 C 1450.210938 631.449219 1444.238281 650.359375 1438.691406 668.019531 C 1433.480469 684.421875 1428.691406 699.890625 1424.148438 714.351562 C 1423.46875 716.28125 1421.960938 717.960938 1420.109375 719.140625 C 1418.929688 719.980469 1417.421875 720.480469 1415.820312 720.480469 L 1288.699219 720.480469 C 1287.101562 720.480469 1285.671875 719.980469 1284.488281 719.140625 C 1282.558594 717.960938 1281.050781 716.28125 1280.460938 714.351562 C 1275.828125 699.890625 1271.039062 684.421875 1265.828125 668.019531 C 1260.28125 650.359375 1254.308594 631.449219 1247.921875 611.101562 C 1246.320312 605.890625 1248.761719 601.511719 1253.46875 601.511719 "/>
<path fill-rule="evenodd" fill="rgb(100%, 100%, 100%)" fill-opacity="1" d="M 1352.089844 645.570312 C 1354.53125 649.441406 1356.878906 652.96875 1358.898438 656.160156 C 1360.839844 659.191406 1362.691406 661.96875 1364.28125 664.488281 C 1361.929688 666.839844 1359.738281 669.03125 1357.640625 671.050781 C 1355.710938 672.980469 1353.941406 674.75 1352.261719 676.429688 C 1350.578125 674.660156 1348.730469 672.898438 1346.789062 670.960938 C 1344.78125 668.859375 1342.589844 666.671875 1340.238281 664.320312 C 1341.828125 661.800781 1343.519531 659.019531 1345.371094 656.078125 C 1347.378906 652.890625 1349.648438 649.359375 1352.089844 645.570312 "/>
<path fill-rule="evenodd" fill="rgb(94.53125%, 68.164062%, 55.664062%)" fill-opacity="1" d="M 1388.828125 408.558594 L 1388.410156 393.511719 C 1387.988281 384.011719 1402.199219 387.199219 1401.109375 393.339844 C 1401.109375 399.21875 1393.039062 410.828125 1388.828125 408.558594 "/>
<path fill-rule="evenodd" fill="rgb(94.53125%, 68.164062%, 55.664062%)" fill-opacity="1" d="M 1316.441406 408.558594 L 1316.859375 393.511719 C 1317.28125 384.011719 1303.070312 387.199219 1304.171875 393.339844 C 1304.171875 399.21875 1312.238281 410.828125 1316.441406 408.558594 "/>
<path fill-rule="evenodd" fill="rgb(93.359375%, 92.96875%, 92.96875%)" fill-opacity="1" d="M 1368.320312 432.351562 C 1365.121094 437.308594 1359.148438 440.671875 1352.261719 440.671875 C 1345.449219 440.671875 1339.398438 437.308594 1336.28125 432.351562 C 1340.988281 433.609375 1346.460938 434.371094 1352.261719 434.371094 C 1358.058594 434.371094 1363.53125 433.609375 1368.320312 432.351562 "/>
<path fill-rule="evenodd" fill="rgb(6.665039%, 17.259216%, 30.979919%)" fill-opacity="1" d="M 415.316406 1843.648438 L 429.011719 1859.550781 C 449.488281 1876.019531 503.578125 1868.800781 496.78125 1889.25 C 490.191406 1895.378906 430.058594 1893.261719 396.773438 1895.308594 C 393.945312 1886.058594 395.289062 1870.941406 403.878906 1860.03125 L 415.316406 1843.648438 "/>
<path fill-rule="evenodd" fill="rgb(92.576599%, 50.976562%, 36.083984%)" fill-opacity="1" d="M 402.242188 1825.78125 L 428.25 1832.691406 L 429.257812 1859.011719 L 404.050781 1859.488281 L 402.242188 1825.78125 "/>
<path fill-rule="evenodd" fill="rgb(6.665039%, 17.259216%, 30.979919%)" fill-opacity="1" d="M 281.839844 1837.148438 L 290.375 1856.328125 C 305.238281 1877.988281 359.117188 1886.660156 346.71875 1904.28125 C 338.644531 1908.25 281.664062 1888.910156 249.203125 1881.28125 C 249.15625 1871.609375 254.800781 1857.511719 266.171875 1849.539062 L 281.839844 1837.148438 "/>
<path fill-rule="evenodd" fill="rgb(92.576599%, 50.976562%, 36.083984%)" fill-opacity="1" d="M 274.46875 1816.269531 L 297.382812 1830.390625 L 290.769531 1855.871094 L 266.488281 1849.070312 L 274.46875 1816.269531 "/>
<path fill-rule="evenodd" fill="rgb(96.484375%, 59.179688%, 41.184998%)" fill-opacity="1" d="M 509.957031 1182.28125 L 506.222656 1171.128906 C 504.1875 1162.351562 494.988281 1147.800781 500.109375 1144.800781 C 503.664062 1143.058594 506.3125 1154.46875 511.835938 1155.660156 C 522.933594 1153.140625 519.074219 1121.320312 528.179688 1119.871094 C 541.738281 1117.488281 555.398438 1129.480469 552.734375 1142.449219 C 551.78125 1149.441406 536.464844 1164.589844 525.726562 1180.570312 L 509.957031 1182.28125 "/>
<path fill-rule="evenodd" fill="rgb(96.484375%, 59.179688%, 41.184998%)" fill-opacity="1" d="M 257.390625 1506.578125 L 261.554688 1517.578125 C 263.933594 1526.269531 273.6875 1540.460938 268.6875 1543.660156 C 265.199219 1545.53125 262.113281 1534.238281 256.546875 1533.25 C 245.558594 1536.210938 250.648438 1567.851562 241.605469 1569.648438 C 228.148438 1572.558594 214.035156 1561.109375 216.191406 1548.050781 C 216.871094 1541.019531 231.59375 1525.289062 241.699219 1508.898438 L 257.390625 1506.578125 "/>
<path fill-rule="evenodd" fill="rgb(29.417419%, 46.263123%, 72.851562%)" fill-opacity="1" d="M 375.507812 1480.128906 L 434.59375 1547.789062 L 464.3125 1676.421875 L 439.382812 1850.890625 L 392.644531 1850.890625 L 406.664062 1691.988281 L 384.855469 1629.679688 L 369.28125 1702.898438 L 299.175781 1852.460938 L 260.234375 1843.109375 L 314.757812 1682.648438 L 320.816406 1550.691406 L 375.507812 1480.128906 "/>
<path fill-rule="evenodd" fill="rgb(10.594177%, 72.068787%, 61.914062%)" fill-opacity="1" d="M 464.300781 1266.609375 L 390.234375 1300.960938 C 370.5 1309.058594 350.773438 1317.171875 331.035156 1325.289062 C 304.238281 1336.648438 294.503906 1353.871094 284.203125 1377.058594 L 230.945312 1515.878906 L 268.328125 1524.058594 L 329.863281 1385.878906 C 326.847656 1440.820312 323.832031 1495.75 320.816406 1550.691406 C 326.484375 1586 381.523438 1565.789062 434.59375 1547.789062 L 431.699219 1356.871094 L 499.046875 1293.039062 L 531.761719 1180.011719 L 504.496094 1175.878906 L 464.300781 1266.609375 "/>
<path fill-rule="evenodd" fill="rgb(96.484375%, 59.179688%, 40.795898%)" fill-opacity="1" d="M 342.1875 1271.53125 L 381.996094 1280.839844 L 393.023438 1329.71875 C 390.050781 1334.570312 366.46875 1328.980469 355.390625 1319.671875 L 342.1875 1271.53125 "/>
<path fill-rule="evenodd" fill="rgb(97.264099%, 66.601562%, 50.584412%)" fill-opacity="1" d="M 323.710938 1246.511719 C 349.246094 1238.140625 367.34375 1218.929688 395.667969 1214.359375 C 399.136719 1224.078125 403.425781 1234.859375 406.816406 1245.710938 C 413.589844 1252.75 423.515625 1256.828125 422.820312 1263.441406 C 421.148438 1266.710938 415.972656 1266.640625 412.046875 1267.730469 C 414.488281 1285.449219 411.054688 1301.109375 393.671875 1309.25 C 357.144531 1319.820312 329.355469 1279.671875 323.710938 1246.511719 "/>
<path fill-rule="evenodd" fill="rgb(10.594177%, 9.008789%, 30.979919%)" fill-opacity="1" d="M 398.492188 1221.878906 C 397.777344 1226.878906 368.300781 1223.191406 356.207031 1229.96875 C 344.90625 1235.171875 356.304688 1259.691406 349.519531 1264.191406 C 343.898438 1266.941406 340.601562 1253.539062 334.066406 1259.300781 C 331.871094 1261.96875 343.496094 1275.519531 336.457031 1280.269531 C 315.191406 1251.960938 311.988281 1233.480469 339.910156 1210.269531 C 358.34375 1197.769531 399.246094 1183.789062 398.492188 1221.878906 "/>
<path fill-rule="evenodd" fill="rgb(96.484375%, 58.789062%, 40.795898%)" fill-opacity="1" d="M 1557.238281 1432.371094 L 1542.261719 1402.289062 L 1501.28125 1413.550781 L 1451.589844 1338.710938 L 1437.648438 1344.839844 C 1456.46875 1378.691406 1480.570312 1442.378906 1493.359375 1442.621094 C 1501.128906 1443.519531 1535.980469 1435.800781 1557.238281 1432.371094 "/>
<path fill-rule="evenodd" fill="rgb(96.484375%, 58.789062%, 40.795898%)" fill-opacity="1" d="M 1450.390625 1340.800781 L 1449.550781 1331.738281 C 1448.25 1324.921875 1450.191406 1311.71875 1445.609375 1311.230469 C 1442.578125 1311.078125 1444.21875 1319.988281 1440.730469 1322.578125 C 1432.070312 1324.21875 1424.851562 1300.570312 1417.929688 1302.410156 C 1407.621094 1304.949219 1401.75 1317.699219 1407.671875 1326.011719 C 1410.558594 1330.691406 1426.101562 1336.621094 1438.691406 1344.539062 L 1450.390625 1340.800781 "/>
<path fill-rule="evenodd" fill="rgb(29.417419%, 46.263123%, 72.851562%)" fill-opacity="1" d="M 1811.429688 1648.308594 L 1829.5 1653.238281 C 1844.289062 1668.230469 1865 1712.089844 1873.808594 1698.101562 C 1864.300781 1672.710938 1854.738281 1647.308594 1845.179688 1621.921875 C 1838.808594 1621.96875 1829.148438 1626.75 1823.03125 1633.921875 L 1811.429688 1648.308594 "/>
<path fill-rule="evenodd" fill="rgb(96.484375%, 58.789062%, 40.795898%)" fill-opacity="1" d="M 1791.710938 1669.921875 L 1780.699219 1644.96875 L 1823.03125 1633.921875 C 1826.710938 1636.558594 1832.929688 1645.269531 1829.5 1653.238281 L 1791.710938 1669.921875 "/>
<path fill-rule="evenodd" fill="rgb(29.417419%, 46.263123%, 72.851562%)" fill-opacity="1" d="M 1536.628906 1856.078125 L 1530.308594 1873.710938 C 1514.28125 1887.25 1468.871094 1904.53125 1482.160156 1914.390625 C 1508.199219 1906.871094 1534.238281 1899.300781 1560.328125 1891.78125 C 1560.78125 1885.410156 1556.75 1875.398438 1550.070312 1868.730469 L 1536.628906 1856.078125 "/>
<path fill-rule="evenodd" fill="rgb(96.484375%, 58.789062%, 40.795898%)" fill-opacity="1" d="M 1516.621094 1834.71875 L 1542.359375 1825.660156 L 1550.070312 1868.730469 C 1547.140625 1872.21875 1538.03125 1877.738281 1530.308594 1873.710938 L 1516.621094 1834.71875 "/>
<path fill-rule="evenodd" fill="rgb(29.417419%, 46.263123%, 72.851562%)" fill-opacity="1" d="M 1604.101562 1519.5 L 1564.859375 1570.691406 C 1531.101562 1605.640625 1471.210938 1644.46875 1463.988281 1676.941406 C 1456.421875 1693.769531 1499.191406 1798.28125 1516.761719 1858.96875 C 1527.769531 1858.378906 1543.5 1864.949219 1554.359375 1849.160156 L 1519.699219 1688.589844 L 1599.371094 1637.550781 C 1615.148438 1661.648438 1640.941406 1712.039062 1660.761719 1721 C 1679.480469 1725.730469 1790.710938 1674.75 1815.359375 1664.640625 C 1815.460938 1656.230469 1818.589844 1644.078125 1807.789062 1634.421875 L 1687.601562 1664.238281 L 1642.828125 1570.191406 L 1604.101562 1519.5 "/>
<path fill-rule="evenodd" fill="rgb(96.484375%, 58.789062%, 40.795898%)" fill-opacity="1" d="M 1656.53125 1412.800781 L 1651.898438 1379.539062 L 1692.03125 1365.648438 L 1690.730469 1275.828125 L 1705.671875 1272.988281 C 1709.300781 1311.53125 1725.441406 1377.699219 1715.03125 1385.121094 C 1709.160156 1390.238281 1675.988281 1403.589844 1656.53125 1412.800781 "/>
<path fill-rule="evenodd" fill="rgb(96.484375%, 58.789062%, 40.795898%)" fill-opacity="1" d="M 1692.871094 1276.871094 L 1688.488281 1268.898438 C 1685.699219 1262.53125 1676.640625 1252.769531 1680.078125 1249.738281 C 1682.570312 1247.941406 1686.199219 1256.210938 1690.53125 1256.359375 C 1698.648438 1252.820312 1691.230469 1229.21875 1697.949219 1226.828125 C 1707.910156 1223.101562 1719.960938 1230.269531 1719.808594 1240.519531 C 1720.058594 1245.949219 1710.550781 1259.640625 1704.621094 1273.339844 L 1692.871094 1276.871094 "/>
<path fill-rule="evenodd" fill="rgb(8.616638%, 71.679688%, 61.914062%)" fill-opacity="1" d="M 1608.230469 1383.21875 L 1581.988281 1385.171875 C 1560.128906 1388.601562 1530.859375 1404.78125 1522.140625 1406.53125 C 1516.761719 1418.921875 1521.691406 1429.378906 1527.96875 1438.890625 C 1536.28125 1437.988281 1552.808594 1435.75 1565.261719 1434.210938 L 1560.03125 1575.558594 L 1643.628906 1573.421875 L 1639.25 1452.128906 L 1639.101562 1439.441406 C 1632.878906 1390.890625 1656.878906 1393.878906 1630.78125 1387.460938 C 1623.371094 1385.710938 1621.128906 1385.121094 1608.230469 1383.21875 "/>
<path fill-rule="evenodd" fill="rgb(8.616638%, 71.679688%, 61.914062%)" fill-opacity="1" d="M 1623.910156 1431.820312 C 1621.621094 1428.179688 1620.429688 1390.289062 1621.519531 1385.859375 C 1642.140625 1380.828125 1653.890625 1376.449219 1664.238281 1374.308594 C 1668.378906 1379.941406 1676.640625 1399.410156 1669.570312 1410.960938 L 1623.910156 1431.820312 "/>
<path fill-rule="evenodd" fill="rgb(96.484375%, 58.789062%, 40.795898%)" fill-opacity="1" d="M 1618.210938 1355.851562 L 1589.179688 1356.238281 C 1586.78125 1365.441406 1584.371094 1374.640625 1581.96875 1383.839844 C 1581.75 1409.21875 1603.570312 1393.21875 1607.941406 1390.589844 L 1618.210938 1355.851562 "/>
<path fill-rule="evenodd" fill="rgb(97.264099%, 66.209412%, 50.584412%)" fill-opacity="1" d="M 1586.488281 1297.421875 C 1576.609375 1302.300781 1579.570312 1315.238281 1568.429688 1321.230469 C 1545.71875 1333.460938 1568.878906 1332.339844 1567.320312 1338.210938 C 1563.609375 1352.121094 1566.050781 1355.050781 1571.570312 1369.410156 C 1574.191406 1376.25 1598.109375 1389.460938 1618.871094 1366.550781 C 1623.730469 1361.21875 1624.320312 1357.878906 1627.839844 1344.738281 C 1635.261719 1316.730469 1634.71875 1313.410156 1610.769531 1294.328125 C 1595.429688 1282.140625 1580.679688 1289.980469 1586.488281 1297.421875 "/>
<path fill-rule="evenodd" fill="rgb(100%, 100%, 100%)" fill-opacity="1" d="M 1572.960938 1359.578125 C 1579.339844 1361.609375 1583.53125 1364.980469 1591.871094 1362.878906 C 1582.441406 1373.609375 1576.058594 1364.25 1572.960938 1359.578125 "/>
<path fill-rule="evenodd" fill="rgb(7.835388%, 9.812927%, 25.87738%)" fill-opacity="1" d="M 1622.601562 1337.699219 C 1627.839844 1344.738281 1615.128906 1351.410156 1622.921875 1360.75 C 1644.320312 1356.261719 1639.828125 1337.21875 1659.421875 1312.679688 L 1651.75 1314.730469 C 1645.929688 1314.171875 1650.46875 1277.351562 1637.339844 1266.179688 L 1633.121094 1282.878906 C 1625.230469 1281.378906 1626.960938 1247.898438 1612.808594 1240.121094 C 1611.480469 1247.328125 1610.199219 1254.558594 1608.859375 1261.78125 C 1600.929688 1263.648438 1592.199219 1244.359375 1576.421875 1245.769531 L 1582.058594 1263.5 C 1577.691406 1273.738281 1566.738281 1258.089844 1552.691406 1270.429688 C 1568.851562 1274.980469 1575.070312 1295.070312 1590.058594 1300.960938 L 1620.898438 1317.988281 C 1619.699219 1328.121094 1608.839844 1333.621094 1608.679688 1342.671875 C 1613.320312 1341.03125 1617.949219 1339.390625 1622.601562 1337.699219 "/>
<path fill-rule="evenodd" fill="rgb(100%, 100%, 100%)" fill-opacity="1" d="M 810.238281 1838.378906 L 821.152344 1855.03125 C 820.054688 1874.160156 826.488281 1888.769531 829.988281 1905.53125 L 794.644531 1871.410156 L 810.238281 1838.378906 "/>
<path fill-rule="evenodd" fill="rgb(100%, 100%, 100%)" fill-opacity="1" d="M 836.484375 1820.230469 L 813.546875 1810.070312 L 803.34375 1849.050781 C 803.386719 1853.910156 818.101562 1862.359375 821.152344 1855.03125 L 836.484375 1820.230469 "/>
<path fill-rule="evenodd" fill="rgb(10.984802%, 72.068787%, 61.521912%)" fill-opacity="1" d="M 865.824219 1930.28125 C 885.023438 1923.738281 823.277344 1914.96875 805.75 1852.460938 C 805.140625 1849.421875 803.34375 1849.050781 802.464844 1851.101562 C 791.328125 1867.828125 787.570312 1885.648438 780.144531 1902.898438 L 783.402344 1904.570312 C 787.757812 1896.25 792.09375 1887.921875 796.449219 1879.601562 C 797.179688 1891.230469 811.921875 1910.53125 819.710938 1913.917969 C 826.429688 1917.710938 847.777344 1923.890625 865.824219 1930.28125 "/>
<path fill-rule="evenodd" fill="rgb(100%, 100%, 100%)" fill-opacity="1" d="M 599.300781 1631.511719 L 580.648438 1638.410156 C 562.246094 1633.121094 546.574219 1636.171875 529.457031 1635.859375 L 570.554688 1608.929688 L 599.300781 1631.511719 "/>
<path fill-rule="evenodd" fill="rgb(100%, 100%, 100%)" fill-opacity="1" d="M 611.1875 1661.101562 L 626.175781 1640.960938 L 590.425781 1622.378906 C 585.652344 1621.328125 574.171875 1633.828125 580.648438 1638.410156 L 611.1875 1661.101562 "/>
<path fill-rule="evenodd" fill="rgb(10.594177%, 72.068787%, 61.914062%)" fill-opacity="1" d="M 497.367188 1665.320312 C 499.488281 1685.46875 521.738281 1627.230469 586.570312 1623.96875 C 589.660156 1624.058594 590.425781 1622.378906 588.625 1621.078125 C 574.761719 1606.511719 558.242188 1598.921875 543.042969 1587.828125 L 540.6875 1590.628906 C 547.847656 1596.71875 555.007812 1602.800781 562.171875 1608.890625 C 550.644531 1607.019531 528.5625 1617.128906 523.53125 1623.96875 C 518.359375 1629.679688 507.59375 1649.148438 497.367188 1665.320312 "/>
<path fill-rule="nonzero" fill="rgb(10.594177%, 72.068787%, 61.914062%)" fill-opacity="1" d="M 801.960938 1516.730469 L 846.144531 1569.191406 C 846.144531 1569.191406 884.96875 1663.019531 884.410156 1696.171875 C 883.753906 1735.648438 833.808594 1845.78125 833.808594 1845.78125 L 797.625 1837.78125 L 833.5625 1698.03125 L 796.898438 1644.671875 C 796.898438 1644.671875 757.335938 1728.621094 731.992188 1734.628906 C 694.140625 1743.609375 595.355469 1660.179688 595.355469 1660.179688 L 608.792969 1625.640625 L 715.0625 1673.890625 C 715.0625 1673.890625 736.25 1584.171875 753.046875 1559.019531 C 762.019531 1545.570312 801.960938 1516.730469 801.960938 1516.730469 "/>
<path fill-rule="evenodd" fill="rgb(96.484375%, 59.179688%, 41.184998%)" fill-opacity="1" d="M 842.351562 1428.601562 L 847.941406 1405.621094 L 890.503906 1413.011719 C 926.332031 1406.890625 962.164062 1400.78125 997.992188 1394.660156 L 1001.949219 1411.050781 C 964.488281 1419.628906 895.984375 1436.828125 889.5625 1436.800781 C 883.359375 1436.550781 858.078125 1431.339844 842.351562 1428.601562 "/>
<path fill-rule="evenodd" fill="rgb(96.484375%, 59.179688%, 41.184998%)" fill-opacity="1" d="M 989.742188 1404.238281 L 994.226562 1396.148438 C 998.242188 1390.308594 1001.789062 1377.269531 1006.238281 1378.621094 C 1009.148438 1379.789062 1003.96875 1387.371094 1006.191406 1391.191406 C 1013.550781 1396.289062 1029.949219 1377.179688 1035.601562 1381.71875 C 1044.179688 1388.308594 1044.480469 1402.570312 1035.570312 1407.921875 C 1030.96875 1411.078125 1014.078125 1410.238281 999.101562 1412.460938 L 989.742188 1404.238281 "/>
<path fill-rule="evenodd" fill="rgb(12.156677%, 10.205078%, 30.589294%)" fill-opacity="1" d="M 795.511719 1299.011719 C 797.136719 1317.230469 815.441406 1290.328125 808.746094 1269.328125 C 806.609375 1262.628906 798.914062 1246.25 790.699219 1248.460938 C 786.039062 1239.21875 726.515625 1254.160156 738.554688 1299.210938 C 745.441406 1325 703.054688 1312.941406 727.871094 1381.289062 C 729.613281 1386.109375 709.488281 1412.871094 736.507812 1437.269531 C 760.992188 1459.371094 785.164062 1460.441406 786.367188 1461.480469 C 790.511719 1460.160156 850.964844 1415.769531 812.988281 1402.859375 C 783.78125 1392.929688 798.238281 1354.320312 795.261719 1326.761719 C 795.214844 1326.328125 795.5 1299.070312 795.511719 1299.011719 "/>
<path fill-rule="evenodd" fill="rgb(93.359375%, 31.37207%, 52.929688%)" fill-opacity="1" d="M 791.953125 1385.570312 L 816.128906 1387.371094 C 836.230469 1390.558594 863.199219 1405.429688 871.257812 1407.03125 C 876.214844 1418.441406 871.644531 1428.101562 865.886719 1436.828125 C 858.242188 1436.019531 842.988281 1433.96875 831.550781 1432.539062 C 831.550781 1432.539062 850.324219 1478.550781 844.371094 1562.449219 C 842.757812 1585.191406 753.21875 1560.050781 753.21875 1560.050781 L 763.40625 1449.039062 L 763.546875 1437.351562 C 769.277344 1392.628906 747.179688 1395.378906 771.1875 1389.480469 C 778.027344 1387.871094 780.105469 1387.320312 791.953125 1385.570312 "/>
<path fill-rule="evenodd" fill="rgb(96.484375%, 59.179688%, 41.184998%)" fill-opacity="1" d="M 767.210938 1357.820312 L 795.71875 1356.808594 C 798.5 1365.710938 801.28125 1374.621094 804.089844 1383.519531 C 805.53125 1408.371094 783.378906 1393.761719 778.984375 1391.378906 L 767.210938 1357.820312 "/>
<path fill-rule="evenodd" fill="rgb(97.264099%, 66.601562%, 50.193787%)" fill-opacity="1" d="M 795.511719 1299.011719 C 805.453125 1303.308594 803.132812 1316.171875 814.367188 1321.511719 C 837.195312 1332.390625 814.472656 1332.398438 816.285156 1338.101562 C 820.570312 1351.53125 818.339844 1354.558594 813.605469 1368.890625 C 811.363281 1375.710938 788.570312 1389.808594 767.089844 1368.378906 C 762.058594 1363.351562 754.949219 1360.558594 757.257812 1347.390625 C 763.238281 1313.371094 761.996094 1326.609375 773.671875 1318.289062 C 789.320312 1307.109375 792.058594 1298.480469 795.511719 1299.011719 "/>
<path fill-rule="evenodd" fill="rgb(96.484375%, 59.179688%, 41.184998%)" fill-opacity="1" d="M 851.820312 1560.820312 L 860.097656 1562.070312 C 866.328125 1563.621094 878.539062 1562.480469 878.789062 1566.71875 C 878.734375 1569.519531 870.648438 1567.550781 868.101562 1570.621094 C 866.136719 1578.511719 887.539062 1586.351562 885.464844 1592.609375 C 882.582031 1601.96875 870.59375 1606.730469 863.226562 1600.859375 C 859.101562 1597.980469 854.449219 1583.390625 847.804688 1571.371094 L 851.820312 1560.820312 "/>
<path fill-rule="evenodd" fill="rgb(96.484375%, 59.179688%, 41.184998%)" fill-opacity="1" d="M 770.496094 1447.019531 L 745.351562 1447.820312 C 746.902344 1464.820312 750.476562 1506.019531 757.148438 1511.390625 L 848.910156 1573.671875 L 855.972656 1561.429688 C 828.863281 1542.210938 803.835938 1518.898438 776.753906 1499.679688 C 771.90625 1483.980469 773.125 1467.671875 770.496094 1447.019531 "/>
<path fill-rule="evenodd" fill="rgb(93.359375%, 31.37207%, 52.929688%)" fill-opacity="1" d="M 770.386719 1399.941406 C 767.144531 1397.671875 765.816406 1391.75 761.664062 1392.550781 C 747.042969 1395.761719 743.414062 1438.019531 743.554688 1447.070312 C 748.511719 1451.171875 765.429688 1454.800781 776.421875 1448.898438 L 770.386719 1399.941406 "/>
<path fill-rule="evenodd" fill="rgb(100%, 100%, 100%)" fill-opacity="1" d="M 794.367188 1361.601562 C 801.421875 1360.019531 807.195312 1360.910156 813.882812 1354.441406 C 810.820312 1369.628906 799.769531 1364.320312 794.367188 1361.601562 "/>
</svg>
